<svg width="7476" height="5039" viewBox="0 0 7476 5039" fill="none" xmlns="http://www.w3.org/2000/svg">
<rect opacity="0.5" width="7475.86" height="4798.38" rx="383" fill="white"/>
<g clip-path="url(#clip0_190_9)">
<path d="M5479.55 3026.14H1938.51C1914.34 3026.11 1891.16 3016.17 1874.07 2998.5C1856.98 2980.84 1847.37 2956.88 1847.34 2931.89V674.863C1847.36 656.557 1854.4 639.007 1866.92 626.063C1879.44 613.119 1896.42 605.837 1914.13 605.816H5502.77C5520.78 605.838 5538.06 613.245 5550.8 626.413C5563.53 639.581 5570.7 657.434 5570.72 676.056V2931.89C5570.69 2956.88 5561.08 2980.84 5543.99 2998.5C5526.89 3016.17 5503.72 3026.11 5479.55 3026.14Z" fill="#F2F2F2"/>
<path d="M5350.37 2892.67H2050.22C2001.84 2892.67 1962.49 2854.57 1962.49 2807.75V842.295C1962.49 807.567 1991.65 779.312 2027.5 779.312H5372.02C5408.46 779.312 5438.11 808.033 5438.11 843.333V2807.75C5438.11 2854.57 5398.75 2892.67 5350.37 2892.67Z" fill="white"/>
<path d="M5569.45 669.471H1846.06V621.49C1846.09 596.42 1855.75 572.389 1872.9 554.667C1890.06 536.946 1913.31 526.982 1937.56 526.961H5477.94C5502.2 526.982 5525.45 536.946 5542.61 554.667C5559.76 572.388 5569.41 596.42 5569.45 621.49V669.471Z" fill="url(#paint0_linear_190_9)"/>
<path d="M2012.35 622.823C2025.43 622.823 2036.02 611.869 2036.02 598.357C2036.02 584.844 2025.43 573.891 2012.35 573.891C1999.28 573.891 1988.69 584.844 1988.69 598.357C1988.69 611.869 1999.28 622.823 2012.35 622.823Z" fill="white"/>
<path d="M2102.19 622.823C2115.27 622.823 2125.86 611.869 2125.86 598.357C2125.86 584.844 2115.27 573.891 2102.19 573.891C2089.12 573.891 2078.53 584.844 2078.53 598.357C2078.53 611.869 2089.12 622.823 2102.19 622.823Z" fill="white"/>
<path d="M2192.04 622.823C2205.11 622.823 2215.7 611.869 2215.7 598.357C2215.7 584.844 2205.11 573.891 2192.04 573.891C2178.96 573.891 2168.37 584.844 2168.37 598.357C2168.37 611.869 2178.96 622.823 2192.04 622.823Z" fill="white"/>
<path d="M4987.13 2563.03H2429.65C2404.01 2563 2379.44 2552.46 2361.31 2533.72C2343.18 2514.99 2332.98 2489.58 2332.95 2463.08V1188.47C2332.97 1168.65 2340.6 1149.65 2354.16 1135.64C2367.72 1121.62 2386.1 1113.74 2405.27 1113.71H5010.35C5029.83 1113.74 5048.5 1121.75 5062.28 1135.99C5076.05 1150.22 5083.8 1169.53 5083.82 1189.67V2463.08C5083.79 2489.58 5073.6 2514.99 5055.47 2533.72C5037.34 2552.46 5012.76 2563 4987.13 2563.03ZM2405.27 1125.14C2389.03 1125.16 2373.45 1131.84 2361.97 1143.71C2350.48 1155.58 2344.02 1171.68 2344 1188.47V2463.08C2344.03 2486.55 2353.06 2509.05 2369.12 2525.65C2385.17 2542.25 2406.94 2551.58 2429.65 2551.61H4987.13C5009.83 2551.58 5031.6 2542.25 5047.66 2525.65C5063.72 2509.05 5072.75 2486.55 5072.77 2463.08V1189.67C5072.75 1172.56 5066.17 1156.16 5054.47 1144.06C5042.77 1131.96 5026.9 1125.16 5010.35 1125.14H2405.27Z" fill="#CCCCCC"/>
<path d="M2518.06 2463.08H4898.72C4922.16 2463.08 4944.65 2453.45 4961.23 2436.31C4977.81 2419.17 4987.13 2395.93 4987.13 2371.69V1306.17C4987.13 1281.93 4977.81 1258.69 4961.23 1241.55C4944.65 1224.41 4922.16 1214.78 4898.72 1214.78H2518.06C2494.61 1214.78 2472.13 1224.41 2455.55 1241.55C2438.97 1258.69 2429.65 1281.93 2429.65 1306.17V2371.69C2429.65 2395.93 2438.97 2419.17 2455.55 2436.31C2472.13 2453.45 2494.61 2463.08 2518.06 2463.08Z" fill="#F2F2F2"/>
<path d="M2788.37 1524.78C2815.84 1524.78 2838.1 1501.77 2838.1 1473.37C2838.1 1444.98 2815.84 1421.97 2788.37 1421.97C2760.91 1421.97 2738.64 1444.98 2738.64 1473.37C2738.64 1501.77 2760.91 1524.78 2788.37 1524.78Z" fill="#CCCCCC"/>
<path d="M2788.37 1718.98C2815.84 1718.98 2838.1 1695.96 2838.1 1667.57C2838.1 1639.18 2815.84 1616.17 2788.37 1616.17C2760.91 1616.17 2738.64 1639.18 2738.64 1667.57C2738.64 1695.96 2760.91 1718.98 2788.37 1718.98Z" fill="#CCCCCC"/>
<path d="M2788.37 1913.18C2815.84 1913.18 2838.1 1890.17 2838.1 1861.78C2838.1 1833.39 2815.84 1810.37 2788.37 1810.37C2760.91 1810.37 2738.64 1833.39 2738.64 1861.78C2738.64 1890.17 2760.91 1913.18 2788.37 1913.18Z" fill="#CCCCCC"/>
<path d="M2788.37 2107.38C2815.84 2107.38 2838.1 2084.37 2838.1 2055.98C2838.1 2027.59 2815.84 2004.57 2788.37 2004.57C2760.91 2004.57 2738.64 2027.59 2738.64 2055.98C2738.64 2084.37 2760.91 2107.38 2788.37 2107.38Z" fill="#CCCCCC"/>
<path d="M4672.61 1479.09H3037.03C3035.56 1479.09 3034.15 1478.49 3033.12 1477.41C3032.08 1476.34 3031.5 1474.89 3031.5 1473.38C3031.5 1471.86 3032.08 1470.41 3033.12 1469.34C3034.15 1468.27 3035.56 1467.66 3037.03 1467.66H4672.61C4674.08 1467.66 4675.48 1468.27 4676.52 1469.34C4677.56 1470.41 4678.14 1471.86 4678.14 1473.38C4678.14 1474.89 4677.56 1476.34 4676.52 1477.41C4675.48 1478.49 4674.08 1479.09 4672.61 1479.09Z" fill="#CCCCCC"/>
<path d="M4672.61 1673.29H3037.03C3035.56 1673.29 3034.15 1672.69 3033.12 1671.61C3032.08 1670.54 3031.5 1669.09 3031.5 1667.58C3031.5 1666.06 3032.08 1664.61 3033.12 1663.54C3034.15 1662.47 3035.56 1661.86 3037.03 1661.86H4672.61C4674.08 1661.86 4675.48 1662.47 4676.52 1663.54C4677.56 1664.61 4678.14 1666.06 4678.14 1667.58C4678.14 1669.09 4677.56 1670.54 4676.52 1671.61C4675.48 1672.69 4674.08 1673.29 4672.61 1673.29Z" fill="#CCCCCC"/>
<path d="M4672.61 1867.49H3037.03C3035.56 1867.49 3034.15 1866.89 3033.12 1865.82C3032.08 1864.74 3031.5 1863.29 3031.5 1861.78C3031.5 1860.26 3032.08 1858.81 3033.12 1857.74C3034.15 1856.67 3035.56 1856.06 3037.03 1856.06H4672.61C4674.08 1856.06 4675.48 1856.67 4676.52 1857.74C4677.56 1858.81 4678.14 1860.26 4678.14 1861.78C4678.14 1863.29 4677.56 1864.74 4676.52 1865.82C4675.48 1866.89 4674.08 1867.49 4672.61 1867.49Z" fill="#CCCCCC"/>
<path d="M4672.61 2061.69H3037.03C3035.56 2061.69 3034.15 2061.09 3033.12 2060.02C3032.08 2058.95 3031.5 2057.49 3031.5 2055.98C3031.5 2054.46 3032.08 2053.01 3033.12 2051.94C3034.15 2050.87 3035.56 2050.27 3037.03 2050.27H4672.61C4674.08 2050.27 4675.48 2050.87 4676.52 2051.94C4677.56 2053.01 4678.14 2054.46 4678.14 2055.98C4678.14 2057.49 4677.56 2058.95 4676.52 2060.02C4675.48 2061.09 4674.08 2061.69 4672.61 2061.69Z" fill="#CCCCCC"/>
<path d="M3346.46 2255.89H3186.22C3178.89 2255.88 3171.87 2252.87 3166.69 2247.51C3161.51 2242.16 3158.6 2234.9 3158.59 2227.33V2073.11C3158.6 2065.54 3161.51 2058.28 3166.69 2052.93C3171.87 2047.57 3178.89 2044.56 3186.22 2044.55H3346.46C3353.79 2044.56 3360.81 2047.57 3365.99 2052.93C3371.17 2058.28 3374.08 2065.54 3374.09 2073.11V2227.33C3374.08 2234.9 3371.17 2242.16 3365.99 2247.51C3360.81 2252.87 3353.79 2255.88 3346.46 2255.89Z" fill="url(#paint1_linear_190_9)"/>
<path d="M3705.63 2255.89H3545.38C3538.06 2255.88 3531.04 2252.87 3525.86 2247.52C3520.68 2242.16 3517.76 2234.9 3517.76 2227.33V1878.91C3517.76 1871.34 3520.68 1864.08 3525.86 1858.73C3531.04 1853.37 3538.06 1850.36 3545.38 1850.35H3705.63C3712.95 1850.36 3719.97 1853.37 3725.15 1858.73C3730.33 1864.08 3733.25 1871.34 3733.26 1878.91V2227.33C3733.25 2234.9 3730.33 2242.16 3725.15 2247.52C3719.97 2252.87 3712.95 2255.88 3705.63 2255.89Z" fill="url(#paint2_linear_190_9)"/>
<path d="M4070.32 2255.89H3910.07C3902.75 2255.88 3895.73 2252.87 3890.55 2247.51C3885.37 2242.16 3882.45 2234.9 3882.45 2227.33V1684.71C3882.45 1677.14 3885.37 1669.88 3890.55 1664.53C3895.73 1659.17 3902.75 1656.16 3910.07 1656.15H4070.32C4077.64 1656.16 4084.66 1659.17 4089.84 1664.53C4095.02 1669.88 4097.94 1677.14 4097.94 1684.71V2227.33C4097.94 2234.9 4095.02 2242.16 4089.84 2247.51C4084.66 2252.87 4077.64 2255.88 4070.32 2255.89Z" fill="url(#paint3_linear_190_9)"/>
<path d="M4446.06 2255.89H4285.82C4278.49 2255.88 4271.47 2252.87 4266.29 2247.52C4261.11 2242.16 4258.2 2234.9 4258.19 2227.33V1496.22C4258.2 1488.65 4261.11 1481.39 4266.29 1476.04C4271.47 1470.68 4278.49 1467.67 4285.82 1467.66H4446.06C4453.39 1467.67 4460.41 1470.68 4465.59 1476.04C4470.77 1481.39 4473.68 1488.65 4473.69 1496.22V2227.33C4473.68 2234.9 4470.77 2242.16 4465.59 2247.52C4460.41 2252.87 4453.39 2255.88 4446.06 2255.89Z" fill="url(#paint4_linear_190_9)"/>
<path d="M4672.61 2255.89H3037.03C3035.56 2255.89 3034.15 2255.29 3033.12 2254.22C3032.08 2253.14 3031.5 2251.69 3031.5 2250.18C3031.5 2248.66 3032.08 2247.21 3033.12 2246.14C3034.15 2245.07 3035.56 2244.46 3037.03 2244.46H4672.61C4674.08 2244.46 4675.48 2245.07 4676.52 2246.14C4677.56 2247.21 4678.14 2248.66 4678.14 2250.18C4678.14 2251.69 4677.56 2253.14 4676.52 2254.22C4675.48 2255.29 4674.08 2255.89 4672.61 2255.89Z" fill="#3F3D56"/>
<path d="M5391.21 3321.41C5395.68 3314.4 5401.59 3308.5 5408.52 3304.11C5415.44 3299.72 5423.21 3296.95 5431.28 3296C5439.36 3295.05 5447.53 3295.94 5455.23 3298.61C5462.93 3301.28 5469.98 3305.66 5475.86 3311.45L5651.33 3217.84L5640.42 3323.31L5475.46 3396.03C5465.4 3405.61 5452.29 3411.04 5438.62 3411.29C5424.94 3411.54 5411.66 3406.6 5401.27 3397.4C5390.88 3388.21 5384.12 3375.39 5382.27 3361.38C5380.41 3347.38 5383.59 3333.15 5391.21 3321.41Z" fill="#FFB8B8"/>
<path d="M5542.18 3360.74C5538.2 3357.51 5535.26 3353.11 5533.77 3348.11L5519.81 3301.5C5518.31 3296.46 5518.35 3291.05 5519.91 3286.02C5521.48 3281 5524.51 3276.59 5528.58 3273.4L5670.79 3162.36L5824.82 2866.99C5831.27 2858.4 5839.3 2851.21 5848.44 2845.82C5857.58 2840.44 5867.65 2836.97 5878.09 2835.61C5888.53 2834.26 5899.12 2835.04 5909.27 2837.91C5919.41 2840.78 5928.91 2845.7 5937.22 2852.37C5945.53 2859.04 5952.49 2867.33 5957.69 2876.78C5962.9 2886.23 5966.26 2896.64 5967.57 2907.43C5968.88 2918.22 5968.13 2929.17 5965.34 2939.66C5962.56 2950.15 5957.81 2959.96 5951.36 2968.55L5863.73 3159.73C5837.14 3217.75 5791.07 3263.82 5734.08 3289.36L5567.41 3364.09C5564.21 3365.53 5560.75 3366.25 5557.25 3366.21C5553.76 3366.17 5550.32 3365.37 5547.14 3363.87C5545.38 3363.03 5543.71 3361.98 5542.18 3360.74Z" fill="#3F3D56"/>
<path d="M5955.23 2743.72C6030.18 2743.72 6090.95 2680.91 6090.95 2603.43C6090.95 2525.95 6030.18 2463.14 5955.23 2463.14C5880.28 2463.14 5819.52 2525.95 5819.52 2603.43C5819.52 2680.91 5880.28 2743.72 5955.23 2743.72Z" fill="#FFB8B8"/>
<path d="M5900.18 4443.74L5832.44 4443.73L5800.22 4173.63L5900.2 4173.64L5900.18 4443.74Z" fill="#FFB8B8"/>
<path d="M5784.05 4423.72H5914.69V4508.75H5701.79C5701.79 4497.59 5703.91 4486.53 5708.05 4476.21C5712.18 4465.9 5718.24 4456.52 5725.88 4448.63C5733.52 4440.73 5742.59 4434.47 5752.57 4430.2C5762.55 4425.92 5773.24 4423.72 5784.05 4423.72Z" fill="#2F2E41"/>
<path d="M6121.2 4443.75L6053.46 4443.74L6021.24 4173.64L6121.23 4173.65L6121.2 4443.75Z" fill="#FFB8B8"/>
<path d="M6005.07 4423.73H6135.72V4508.77H5922.81C5922.81 4497.6 5924.94 4486.54 5929.07 4476.23C5933.21 4465.91 5939.27 4456.54 5946.91 4448.64C5954.54 4440.74 5963.61 4434.48 5973.59 4430.21C5983.57 4425.93 5994.27 4423.73 6005.07 4423.73Z" fill="#2F2E41"/>
<path d="M6126.15 4375.21L6046.77 4375.21C6041.3 4375.2 6035.99 4373.34 6031.65 4369.9C6027.31 4366.46 6024.19 4361.65 6022.76 4356.19L5908.49 3918.09C5908.31 3917.41 5907.9 3916.82 5907.32 3916.44C5906.75 3916.05 5906.05 3915.91 5905.38 3916.02C5904.7 3916.13 5904.09 3916.5 5903.67 3917.05C5903.24 3917.61 5903.03 3918.3 5903.07 3919.01L5926.15 4334.5C5926.35 4338.17 5925.79 4341.85 5924.5 4345.28C5923.21 4348.71 5921.23 4351.81 5918.68 4354.38C5916.13 4356.95 5913.08 4358.92 5909.73 4360.16C5906.37 4361.4 5902.8 4361.89 5899.26 4361.58L5810.03 4353.89C5804.31 4353.38 5798.94 4350.86 5794.82 4346.73C5790.7 4342.61 5788.07 4337.14 5787.4 4331.25L5706.11 3458.8L5737.56 3478.31L6032.24 3426.6L6150.8 4346.11C6151.27 4349.74 6150.98 4353.44 6149.96 4356.94C6148.93 4360.45 6147.19 4363.69 6144.86 4366.44C6142.53 4369.2 6139.65 4371.4 6136.42 4372.92C6133.2 4374.43 6129.7 4375.21 6126.15 4375.21Z" fill="#2F2E41"/>
<path d="M5804.66 3550.89C5772.15 3550.62 5740.31 3541.35 5712.43 3524.05C5708.14 3521.43 5704.71 3517.52 5702.61 3512.84C5700.5 3508.16 5699.81 3502.93 5700.63 3497.84C5710.99 3432.24 5765.19 3095.69 5814.5 2912.22C5834.58 2837.49 5878.99 2797.24 5946.49 2792.6C6045.22 2785.9 6132.98 2865.75 6142.12 2970.8C6158.24 3156.14 6092.76 3419.46 6063.85 3524.08C6062.73 3528.12 6060.67 3531.81 6057.85 3534.84C6055.02 3537.86 6051.53 3540.12 6047.66 3541.42C6043.79 3542.72 6039.68 3543.02 6035.67 3542.29C6031.67 3541.57 6027.9 3539.83 6024.69 3537.25L5965.78 3489.88C5962.15 3487.02 5957.67 3485.56 5953.11 3485.75C5948.55 3485.95 5944.21 3487.79 5940.82 3490.95C5891.17 3536.74 5844 3550.89 5804.66 3550.89Z" fill="#3F3D56"/>
<path opacity="0.2" d="M5999.5 3061.49L6049.23 3278.55L5977.38 3461.32L6027.12 3284.26L5999.5 3061.49Z" fill="black"/>
<path d="M6032.67 2718.79C6044.74 2719.02 6056.74 2716.78 6067.97 2712.19C6072.91 2710.22 6078.04 2708.61 6082.97 2706.64C6126.52 2689.25 6155.21 2641.3 6156.24 2593.05C6157.27 2544.8 6133.1 2497.97 6097.21 2467.11C6061.32 2436.24 6014.82 2420.4 5968.27 2416.73C5918.12 2412.78 5861.66 2425.92 5833.63 2469.09C5826.18 2480.58 5820.96 2494.52 5825.38 2508.4C5826.7 2512.58 5829.07 2516.34 5832.23 2519.28C5844.75 2530.79 5857.22 2522.14 5869.98 2521.38C5887.51 2520.33 5903.26 2535 5908.92 2552.18C5914.58 2569.37 5912.09 2588.29 5907.52 2605.82C5904.04 2616.37 5901.84 2627.33 5900.98 2638.44C5900.61 2644.01 5901.63 2649.58 5903.93 2654.64C5906.23 2659.69 5909.74 2664.05 5914.12 2667.31C5925.08 2674.15 5939.47 2670.19 5950.43 2663.36C5961.4 2656.52 5970.87 2647.02 5982.71 2641.99C5994.55 2636.96 6010.46 2638.08 6017.36 2649.23C6019.55 2653.29 6021.03 2657.72 6021.74 2662.3C6027.91 2691.41 6026.49 2689.69 6032.67 2718.79Z" fill="#2F2E41"/>
<path d="M5822.32 4247.8L4972.5 3941.87C4957.91 3936.6 4945.95 3925.57 4939.23 3911.19C4932.5 3896.81 4931.57 3880.27 4936.64 3865.18L5157.47 3209.71C5161.2 3198.67 5169.02 3189.6 5179.21 3184.51C5189.4 3179.42 5201.13 3178.72 5211.82 3182.55L6090.37 3498.82C6101.24 3502.75 6110.15 3510.97 6115.16 3521.68C6120.17 3532.4 6120.87 3544.73 6117.09 3555.97L5896.5 4210.73C5891.4 4225.8 5880.73 4238.17 5866.82 4245.12C5852.92 4252.07 5836.91 4253.03 5822.32 4247.8Z" fill="#E6E6E6"/>
<path d="M5045.01 3904.2L5788.12 4171.71C5802.27 4176.8 5817.8 4175.88 5831.29 4169.14C5844.78 4162.4 5855.13 4150.39 5860.06 4135.77L6038.38 3606.47C6043.31 3591.85 6042.42 3575.79 6035.89 3561.85C6029.37 3547.9 6017.76 3537.21 6003.61 3532.11L5260.5 3264.6C5246.35 3259.51 5230.82 3260.43 5217.33 3267.17C5203.84 3273.91 5193.49 3285.92 5188.56 3300.55L5010.24 3829.84C5007.8 3837.08 5006.76 3844.75 5007.19 3852.41C5007.62 3860.06 5009.5 3867.56 5012.73 3874.46C5015.96 3881.37 5020.47 3887.55 5026.01 3892.65C5031.55 3897.75 5038.01 3901.68 5045.01 3904.2Z" fill="white"/>
<path d="M5231.62 3532.32L5194.82 3519.08C5192.82 3518.36 5191.19 3516.85 5190.27 3514.88C5189.35 3512.91 5189.22 3510.65 5189.91 3508.59L5202.73 3470.54C5203.43 3468.48 5204.89 3466.79 5206.79 3465.84C5208.69 3464.89 5210.88 3464.76 5212.88 3465.47L5249.68 3478.72C5251.67 3479.44 5253.31 3480.95 5254.23 3482.92C5255.15 3484.88 5255.28 3487.15 5254.59 3489.21L5241.77 3527.25C5241.07 3529.32 5239.61 3531.01 5237.71 3531.96C5235.81 3532.91 5233.62 3533.04 5231.62 3532.32Z" fill="url(#paint5_linear_190_9)"/>
<path d="M5198.41 3630.89L5161.61 3617.64C5159.62 3616.92 5157.98 3615.41 5157.06 3613.44C5156.14 3611.47 5156.01 3609.21 5156.7 3607.15L5169.52 3569.11C5170.22 3567.04 5171.68 3565.35 5173.58 3564.4C5175.48 3563.45 5177.67 3563.32 5179.67 3564.03L5216.47 3577.28C5218.47 3578 5220.1 3579.51 5221.02 3581.48C5221.94 3583.45 5222.07 3585.71 5221.38 3587.77L5208.56 3625.82C5207.87 3627.88 5206.4 3629.57 5204.5 3630.52C5202.6 3631.47 5200.41 3631.6 5198.41 3630.89Z" fill="#3F3D56"/>
<path d="M5165.21 3729.45L5128.4 3716.2C5126.41 3715.48 5124.77 3713.97 5123.85 3712C5122.93 3710.04 5122.8 3707.77 5123.5 3705.71L5136.31 3667.67C5137.01 3665.61 5138.47 3663.91 5140.37 3662.96C5142.28 3662.01 5144.47 3661.88 5146.46 3662.6L5183.27 3675.85C5185.26 3676.57 5186.9 3678.08 5187.82 3680.04C5188.74 3682.01 5188.86 3684.27 5188.17 3686.34L5175.36 3724.38C5174.66 3726.44 5173.2 3728.13 5171.3 3729.08C5169.39 3730.03 5167.2 3730.17 5165.21 3729.45Z" fill="#CCCCCC"/>
<path d="M5478.92 3600.02L5301.6 3536.19C5300.6 3535.83 5299.69 3535.28 5298.91 3534.56C5298.12 3533.84 5297.48 3532.97 5297.03 3531.99C5296.57 3531.02 5296.3 3529.96 5296.24 3528.88C5296.18 3527.8 5296.33 3526.71 5296.67 3525.69C5297.01 3524.66 5297.55 3523.72 5298.25 3522.91C5298.95 3522.1 5299.79 3521.45 5300.74 3520.97C5301.68 3520.5 5302.71 3520.23 5303.75 3520.17C5304.8 3520.11 5305.85 3520.26 5306.84 3520.62L5484.16 3584.46C5485.15 3584.81 5486.06 3585.36 5486.85 3586.08C5487.63 3586.8 5488.27 3587.67 5488.73 3588.65C5489.19 3589.63 5489.45 3590.68 5489.51 3591.77C5489.58 3592.85 5489.43 3593.93 5489.08 3594.96C5488.74 3595.98 5488.2 3596.92 5487.5 3597.73C5486.81 3598.54 5485.96 3599.2 5485.02 3599.67C5484.07 3600.14 5483.05 3600.41 5482 3600.47C5480.95 3600.53 5479.9 3600.38 5478.92 3600.02Z" fill="#CCCCCC"/>
<path d="M5445.71 3698.58L5268.39 3634.75C5266.39 3634.03 5264.75 3632.52 5263.83 3630.55C5262.91 3628.59 5262.79 3626.32 5263.48 3624.26C5264.18 3622.19 5265.64 3620.5 5267.54 3619.55C5269.44 3618.6 5271.64 3618.47 5273.63 3619.19L5450.95 3683.02C5451.94 3683.37 5452.86 3683.93 5453.64 3684.65C5454.42 3685.37 5455.06 3686.24 5455.52 3687.21C5455.98 3688.19 5456.24 3689.25 5456.3 3690.33C5456.36 3691.41 5456.22 3692.49 5455.87 3693.52C5455.53 3694.54 5454.99 3695.48 5454.29 3696.29C5453.6 3697.1 5452.75 3697.76 5451.81 3698.23C5450.86 3698.7 5449.84 3698.97 5448.79 3699.03C5447.75 3699.09 5446.7 3698.94 5445.71 3698.58Z" fill="#CCCCCC"/>
<path d="M5412.5 3797.15L5235.18 3733.31C5233.19 3732.6 5231.55 3731.09 5230.63 3729.12C5229.71 3727.15 5229.58 3724.89 5230.28 3722.82C5230.97 3720.76 5232.43 3719.07 5234.33 3718.11C5236.24 3717.16 5238.43 3717.03 5240.42 3717.75L5417.74 3781.58C5419.74 3782.3 5421.38 3783.81 5422.3 3785.78C5423.22 3787.75 5423.35 3790.01 5422.65 3792.08C5421.96 3794.14 5420.5 3795.83 5418.59 3796.78C5416.69 3797.74 5414.5 3797.87 5412.5 3797.15Z" fill="#CCCCCC"/>
<path d="M5884.38 3850.55C5885.67 3847.35 5886.89 3844.09 5888.01 3840.77C5902.58 3797.51 5899.94 3750.04 5880.65 3708.8C5861.36 3667.56 5827.02 3635.92 5785.17 3620.86L5726.89 3793.85L5884.38 3850.55Z" fill="url(#paint6_linear_190_9)"/>
<path d="M5709.94 3804.38L5768.22 3631.38C5737.42 3620.29 5704.15 3618.77 5672.52 3626.99C5640.89 3635.21 5612.28 3652.82 5590.21 3677.65C5568.15 3702.47 5553.6 3733.43 5548.35 3766.71C5543.1 3799.99 5547.39 3834.12 5560.69 3864.91C5573.99 3895.69 5595.71 3921.78 5623.18 3939.96C5650.65 3958.13 5682.67 3967.6 5715.28 3967.19C5747.89 3966.79 5779.68 3956.52 5806.71 3937.66C5833.75 3918.81 5854.86 3892.18 5867.43 3861.07L5709.94 3804.38Z" fill="#3F3D56"/>
<path d="M5918.59 3556.22C5917.93 3547.85 5919.06 3539.43 5921.89 3531.56C5924.71 3523.69 5929.18 3516.56 5934.96 3510.66C5940.75 3504.76 5947.71 3500.25 5955.36 3497.44C5963.02 3494.63 5971.17 3493.58 5979.26 3494.38L6061.45 3308.79L6115.82 3398.74L6029.44 3561.19C6027.24 3575.14 6020.17 3587.78 6009.56 3596.7C5998.95 3605.62 5985.55 3610.21 5971.88 3609.6C5958.22 3608.99 5945.25 3603.21 5935.43 3593.37C5925.6 3583.54 5919.62 3570.32 5918.59 3556.22Z" fill="#FFB8B8"/>
<path d="M6060.87 3490.86C6055.81 3490.86 6050.87 3489.27 6046.71 3486.29L6007.9 3458.52C6003.71 3455.5 6000.51 3451.23 5998.74 3446.27C5996.98 3441.32 5996.73 3435.92 5998.02 3430.81L6043.64 3252.71L5988.5 2922.04C5988.43 2911.16 5990.45 2900.37 5994.42 2890.3C5998.39 2880.22 6004.25 2871.05 6011.65 2863.31C6019.05 2855.58 6027.86 2849.42 6037.56 2845.21C6047.27 2840.99 6057.68 2838.8 6068.21 2838.74C6078.74 2838.69 6089.17 2840.78 6098.92 2844.9C6108.66 2849.02 6117.52 2855.08 6125 2862.75C6132.47 2870.41 6138.41 2879.52 6142.48 2889.56C6146.55 2899.59 6148.66 2910.36 6148.7 2921.24L6193.88 3127.57C6207.6 3190.19 6198.85 3255.83 6169.26 3312.28L6082.73 3477.4C6081.06 3480.57 6078.77 3483.35 6076 3485.55C6073.23 3487.75 6070.04 3489.32 6066.64 3490.16C6064.75 3490.62 6062.82 3490.86 6060.87 3490.86Z" fill="#3F3D56"/>
<path d="M6481.41 4511.96H5431.54C5430.07 4511.96 5428.67 4511.36 5427.63 4510.29C5426.59 4509.22 5426.01 4507.76 5426.01 4506.25C5426.01 4504.73 5426.59 4503.28 5427.63 4502.21C5428.67 4501.14 5430.07 4500.54 5431.54 4500.54H6481.41C6482.87 4500.54 6484.28 4501.14 6485.31 4502.21C6486.35 4503.28 6486.93 4504.73 6486.93 4506.25C6486.93 4507.76 6486.35 4509.22 6485.31 4510.29C6484.28 4511.36 6482.87 4511.96 6481.41 4511.96Z" fill="#CCCCCC"/>
<path d="M3699.48 4440.9L3767.22 4440.89L3799.45 4170.8H3699.47L3699.48 4440.9Z" fill="#A0616A"/>
<path d="M3682.2 4418.03L3815.61 4418.03C3826.78 4418.03 3837.84 4420.3 3848.15 4424.72C3858.47 4429.13 3867.84 4435.61 3875.73 4443.77C3883.63 4451.93 3889.89 4461.62 3894.16 4472.28C3898.44 4482.94 3900.64 4494.37 3900.64 4505.91V4508.77L3682.21 4508.77L3682.2 4418.03Z" fill="url(#paint7_linear_190_9)"/>
<path d="M3428.72 4440.9L3496.47 4440.89L3528.69 4170.8H3428.71L3428.72 4440.9Z" fill="#A0616A"/>
<path d="M3411.45 4418.03L3544.85 4418.03C3556.02 4418.03 3567.08 4420.3 3577.4 4424.72C3587.71 4429.13 3597.08 4435.61 3604.98 4443.77C3612.87 4451.93 3619.14 4461.62 3623.41 4472.28C3627.68 4482.94 3629.88 4494.37 3629.88 4505.91V4508.77L3411.45 4508.77L3411.45 4418.03Z" fill="url(#paint8_linear_190_9)"/>
<path d="M3713 2570.97C3787.95 2570.97 3848.72 2508.16 3848.72 2430.68C3848.72 2353.2 3787.95 2290.39 3713 2290.39C3638.05 2290.39 3577.29 2353.2 3577.29 2430.68C3577.29 2508.16 3638.05 2570.97 3713 2570.97Z" fill="#A0616A"/>
<path d="M3804.27 4382.6H3678.55C3675.26 4382.6 3672 4381.92 3668.97 4380.61C3665.93 4379.3 3663.18 4377.38 3660.86 4374.96C3658.55 4372.54 3656.73 4369.67 3655.5 4366.51C3654.26 4363.36 3653.65 4359.98 3653.69 4356.58L3661 3739.53C3661.02 3737.34 3660.23 3735.22 3658.8 3733.61C3657.36 3732 3655.38 3731.02 3653.26 3730.88C3651.15 3730.73 3649.06 3731.43 3647.42 3732.82C3645.79 3734.22 3644.74 3736.21 3644.48 3738.39L3571.32 4360C3570.58 4366.23 3567.66 4371.97 3563.11 4376.13C3558.57 4380.29 3552.71 4382.59 3546.63 4382.6H3419.71C3416.28 4382.6 3412.89 4381.87 3409.75 4380.45C3406.61 4379.03 3403.79 4376.95 3401.46 4374.35C3399.13 4371.75 3397.35 4368.68 3396.22 4365.33C3395.1 4361.98 3394.66 4358.43 3394.92 4354.89L3478.73 3246.38L3481.01 3246.12L3882.33 3201.32L3829.1 4358.12C3828.81 4364.72 3826.06 4370.95 3821.43 4375.51C3816.81 4380.07 3810.66 4382.61 3804.27 4382.6Z" fill="#2F2E41"/>
<path d="M3483.62 3314.43C3477.17 3314.41 3470.98 3311.81 3466.36 3307.16C3461.73 3302.52 3459.04 3296.2 3458.84 3289.54C3456.65 3219.44 3452.9 2976.92 3496.54 2798.86C3508.45 2750.22 3535.18 2706.84 3572.79 2675.12C3610.4 2643.39 3656.88 2625.02 3705.37 2622.72C3753.09 2620.03 3800.42 2632.93 3840.65 2659.61C3880.88 2686.29 3911.96 2725.39 3929.48 2771.36C4002.83 2963.86 4072.14 3201.15 3985.73 3238.36C3872.49 3287.14 3573.94 3308.88 3485.14 3314.38C3484.63 3314.41 3484.12 3314.43 3483.62 3314.43Z" fill="#3F3D56"/>
<path d="M4002.32 2288.89C4004.45 2291.16 4006.75 2293.24 4009.2 2295.13L3994.95 2578.02L3935.7 2609.38L3969.79 2708.01L4079.92 2663.03C4088.81 2659.39 4096.33 2652.87 4101.34 2644.45C4106.34 2636.02 4108.57 2626.15 4107.69 2616.3L4078.84 2295.42C4088.28 2288.14 4095.35 2278.06 4099.11 2266.52C4102.88 2254.98 4103.15 2242.53 4099.91 2230.83C4096.66 2219.13 4090.04 2208.72 4080.93 2201C4071.83 2193.28 4060.66 2188.61 4048.92 2187.61C4037.18 2186.61 4025.43 2189.32 4015.22 2195.4C4005.01 2201.47 3996.83 2210.61 3991.77 2221.61C3986.71 2232.6 3985.01 2244.93 3986.9 2256.95C3988.78 2268.97 3994.16 2280.11 4002.32 2288.89Z" fill="#A0616A"/>
<path d="M3996.08 2588.55L4037.77 2711C4038.95 2714.48 4039.4 2718.19 4039.07 2721.87C4038.75 2725.55 4037.66 2729.11 4035.88 2732.32C4034.1 2735.52 4031.68 2738.29 4028.77 2740.44C4025.87 2742.59 4022.55 2744.06 4019.04 2744.77L3896.12 2769.37C3878.84 2775.54 3859.9 2774.38 3843.44 2766.14C3826.99 2757.9 3814.37 2743.25 3808.35 2725.4C3802.33 2707.56 3803.41 2687.97 3811.34 2670.94C3819.27 2653.91 3833.41 2640.83 3850.66 2634.56L3961.02 2574.34C3964.18 2572.62 3967.67 2571.62 3971.23 2571.42C3974.8 2571.21 3978.37 2571.8 3981.7 2573.15C3985.02 2574.5 3988.03 2576.57 3990.51 2579.23C3992.99 2581.88 3994.89 2585.06 3996.08 2588.55Z" fill="#3F3D56"/>
<path d="M3414.46 2288.89C3412.33 2291.16 3410.03 2293.24 3407.58 2295.13L3421.82 2578.02L3481.08 2609.38L3446.98 2708.01L3336.86 2663.03C3327.96 2659.39 3320.45 2652.87 3315.44 2644.45C3310.43 2636.02 3308.2 2626.15 3309.09 2616.3L3337.94 2295.42C3328.5 2288.14 3321.43 2278.06 3317.66 2266.52C3313.9 2254.98 3313.62 2242.53 3316.87 2230.83C3320.12 2219.13 3326.74 2208.72 3335.84 2201C3344.95 2193.28 3356.12 2188.61 3367.86 2187.61C3379.6 2186.61 3391.35 2189.32 3401.56 2195.4C3411.77 2201.47 3419.95 2210.61 3425.01 2221.61C3430.06 2232.6 3431.77 2244.93 3429.88 2256.95C3428 2268.97 3422.62 2280.11 3414.46 2288.89Z" fill="#A0616A"/>
<path d="M3435.08 2573.15C3438.41 2571.8 3441.98 2571.21 3445.55 2571.41C3449.11 2571.62 3452.6 2572.62 3455.76 2574.34L3566.12 2634.56C3583.37 2640.83 3597.51 2653.91 3605.44 2670.94C3613.37 2687.97 3614.44 2707.56 3608.43 2725.4C3602.41 2743.25 3589.79 2757.9 3573.34 2766.14C3556.88 2774.38 3537.94 2775.55 3520.66 2769.37L3397.74 2744.77C3394.23 2744.06 3390.91 2742.59 3388.01 2740.44C3385.1 2738.29 3382.67 2735.52 3380.9 2732.32C3379.12 2729.11 3378.03 2725.55 3377.71 2721.87C3377.38 2718.19 3377.83 2714.48 3379.01 2711L3420.7 2588.55C3421.88 2585.06 3423.78 2581.88 3426.26 2579.22C3428.75 2576.57 3431.76 2574.49 3435.08 2573.15Z" fill="#3F3D56"/>
<path d="M3765.71 2454.59C3765 2436.7 3769.34 2418.97 3778.21 2403.59C3787.09 2388.2 3800.1 2375.82 3815.67 2367.96C3856.92 2345.94 3882.84 2298.99 3871.48 2256.11C3856.94 2201.23 3784.68 2165.63 3726.13 2184.51C3710.28 2190.33 3695 2197.67 3680.48 2206.44L3642.23 2227.64C3625.88 2236.1 3610.13 2245.71 3595.07 2256.41C3572.52 2273.6 3554.84 2296.72 3543.88 2323.38C3532.93 2350.03 3529.1 2379.24 3532.8 2407.95C3540.33 2463.74 3575.68 2514.92 3624.07 2549.95C3642.57 2564.24 3663.94 2574.06 3686.61 2578.68C3709.8 2582.64 3735.62 2578.15 3752.58 2563.24C3779.08 2539.94 3776.35 2500.92 3767.77 2468.33C3766.64 2463.83 3765.95 2459.23 3765.71 2454.59Z" fill="#2F2E41"/>
<path d="M4226.95 4511.96H3177.08C3175.61 4511.96 3174.21 4511.36 3173.17 4510.29C3172.14 4509.22 3171.55 4507.76 3171.55 4506.25C3171.55 4504.73 3172.14 4503.28 3173.17 4502.21C3174.21 4501.14 3175.61 4500.54 3177.08 4500.54H4226.95C4228.42 4500.54 4229.82 4501.14 4230.86 4502.21C4231.89 4503.28 4232.48 4504.73 4232.48 4506.25C4232.48 4507.76 4231.89 4509.22 4230.86 4510.29C4229.82 4511.36 4228.42 4511.96 4226.95 4511.96Z" fill="#CCCCCC"/>
<path d="M2513.51 3469.98L1647.21 3837.34C1632.34 3843.63 1615.65 3843.56 1600.82 3837.15C1585.99 3830.74 1574.23 3818.51 1568.11 3803.15L1302.93 3134.97C1298.47 3123.7 1298.52 3111.07 1303.06 3099.84C1307.6 3088.61 1316.27 3079.7 1327.16 3075.07L2222.74 2695.28C2233.83 2690.59 2246.26 2690.64 2257.31 2695.42C2268.36 2700.2 2277.13 2709.31 2281.69 2720.76L2546.58 3388.21C2552.67 3403.59 2552.6 3420.84 2546.4 3436.16C2540.2 3451.49 2528.37 3463.65 2513.51 3469.98Z" fill="#E6E6E6"/>
<path d="M1678.59 3756.3L2436.11 3435.06C2450.53 3428.94 2462.01 3417.15 2468.03 3402.28C2474.05 3387.42 2474.1 3370.68 2468.18 3355.77L2254.05 2816.22C2251.12 2808.84 2246.81 2802.12 2241.37 2796.46C2235.93 2790.8 2229.46 2786.3 2222.34 2783.22C2215.22 2780.14 2207.58 2778.54 2199.86 2778.52C2192.14 2778.49 2184.49 2780.04 2177.34 2783.06L1419.83 3104.3C1412.69 3107.33 1406.19 3111.78 1400.72 3117.41C1395.24 3123.03 1390.89 3129.71 1387.91 3137.08C1384.93 3144.44 1383.38 3152.34 1383.36 3160.32C1383.33 3168.3 1384.82 3176.21 1387.75 3183.59L1601.89 3723.14C1604.82 3730.52 1609.13 3737.24 1614.57 3742.9C1620.01 3748.56 1626.48 3753.06 1633.6 3756.14C1640.72 3759.22 1648.36 3760.82 1656.08 3760.84C1663.8 3760.87 1671.45 3759.33 1678.59 3756.3Z" fill="white"/>
<path d="M2249.86 2963.37L2238.72 2968.09L2239.49 2970.01L2250.62 2965.28L2249.86 2963.37Z" fill="#E6E6E6"/>
<path d="M2216.99 2979.55L2194.49 2989.09L2193.73 2987.17L2216.23 2977.63L2216.99 2979.55ZM2171.99 2998.63L2149.49 3008.17L2148.73 3006.25L2171.23 2996.71L2171.99 2998.63ZM2126.99 3017.71L2104.49 3027.25L2103.73 3025.33L2126.23 3015.79L2126.99 3017.71ZM2081.99 3036.79L2059.49 3046.34L2058.73 3044.42L2081.23 3034.88L2081.99 3036.79ZM2036.99 3055.88L2014.5 3065.42L2013.73 3063.5L2036.23 3053.96L2036.99 3055.88ZM1992 3074.96L1969.5 3084.5L1968.74 3082.58L1991.24 3073.04L1992 3074.96ZM1947 3094.04L1924.5 3103.58L1923.74 3101.66L1946.24 3092.12L1947 3094.04ZM1902 3113.12L1879.5 3122.66L1878.74 3120.75L1901.24 3111.2L1902 3113.12ZM1857 3132.21L1834.5 3141.75L1833.74 3139.83L1856.24 3130.29L1857 3132.21ZM1812 3151.29L1789.51 3160.83L1788.74 3158.91L1811.24 3149.37L1812 3151.29ZM1767.01 3170.37L1744.51 3179.91L1743.75 3177.99L1766.25 3168.45L1767.01 3170.37ZM1722.01 3189.45L1699.51 3198.99L1698.75 3197.07L1721.25 3187.53L1722.01 3189.45ZM1677.01 3208.53L1654.51 3218.08L1653.75 3216.16L1676.25 3206.62L1677.01 3208.53ZM1632.01 3227.62L1609.51 3237.16L1608.75 3235.24L1631.25 3225.7L1632.01 3227.62ZM1587.01 3246.7L1564.52 3256.24L1563.75 3254.32L1586.25 3244.78L1587.01 3246.7ZM1542.02 3265.78L1519.52 3275.32L1518.76 3273.4L1541.26 3263.86L1542.02 3265.78Z" fill="#E6E6E6"/>
<path d="M1496.26 3282.95L1485.12 3287.67L1485.88 3289.59L1497.02 3284.86L1496.26 3282.95Z" fill="#E6E6E6"/>
<path d="M1955.01 3296.87L1943.88 3301.59L1944.64 3303.51L1955.78 3298.79L1955.01 3296.87Z" fill="#E6E6E6"/>
<path d="M1922.47 3312.91L1900.31 3322.31L1899.55 3320.39L1921.71 3310.99L1922.47 3312.91ZM1878.14 3331.71L1855.98 3341.11L1855.22 3339.19L1877.38 3329.79L1878.14 3331.71ZM1833.81 3350.51L1811.65 3359.91L1810.89 3357.99L1833.05 3348.59L1833.81 3350.51ZM1789.49 3369.31L1767.32 3378.71L1766.56 3376.79L1788.72 3367.39L1789.49 3369.31ZM1745.16 3388.11L1722.99 3397.51L1722.23 3395.59L1744.39 3386.19L1745.16 3388.11ZM1700.83 3406.91L1678.66 3416.31L1677.9 3414.39L1700.06 3404.99L1700.83 3406.91ZM1656.5 3425.71L1634.33 3435.11L1633.57 3433.19L1655.73 3423.79L1656.5 3425.71ZM1612.17 3444.5L1590 3453.9L1589.24 3451.99L1611.41 3442.59L1612.17 3444.5Z" fill="#E6E6E6"/>
<path d="M1567.07 3461.38L1555.94 3466.11L1556.7 3468.03L1567.84 3463.3L1567.07 3461.38Z" fill="#E6E6E6"/>
<path d="M1771.35 3473.39L1760.21 3478.11L1760.97 3480.03L1772.11 3475.31L1771.35 3473.39Z" fill="#E6E6E6"/>
<path d="M1738.17 3489.7L1715.36 3499.37L1714.6 3497.45L1737.41 3487.78L1738.17 3489.7ZM1692.56 3509.04L1669.75 3518.71L1668.99 3516.79L1691.8 3507.12L1692.56 3509.04ZM1646.95 3528.38L1624.15 3538.05L1623.38 3536.14L1646.19 3526.47L1646.95 3528.38Z" fill="#E6E6E6"/>
<path d="M1600.58 3545.81L1589.44 3550.53L1590.2 3552.45L1601.34 3547.73L1600.58 3545.81Z" fill="#E6E6E6"/>
<path d="M1828.53 3617.46L1817.39 3622.18L1818.15 3624.1L1829.29 3619.38L1828.53 3617.46Z" fill="#E6E6E6"/>
<path d="M1795.35 3633.77L1772.54 3643.44L1771.78 3641.52L1794.58 3631.85L1795.35 3633.77ZM1749.74 3653.11L1726.93 3662.78L1726.17 3660.87L1748.98 3651.19L1749.74 3653.11ZM1704.13 3672.45L1681.32 3682.13L1680.56 3680.21L1703.37 3670.54L1704.13 3672.45Z" fill="#E6E6E6"/>
<path d="M1657.76 3689.88L1646.62 3694.6L1647.38 3696.52L1658.52 3691.8L1657.76 3689.88Z" fill="#E6E6E6"/>
<path d="M1710.76 3671.36L2352.7 3399.14C2368.23 3392.53 2380.6 3379.82 2387.08 3363.8C2393.56 3347.77 2393.63 3329.75 2387.27 3313.68L2257.57 2986.87L2256.32 2987.45L2098.79 3376.8L1981.95 3326.31C1979.79 3325.37 1977.46 3324.96 1975.12 3325.11C1972.79 3325.26 1970.52 3325.97 1968.49 3327.18C1965.45 3329.07 1963.09 3331.95 1961.79 3335.36L1879.23 3539.4L1793.81 3502.48C1791.96 3501.69 1789.99 3501.27 1787.99 3501.27C1785.99 3501.26 1784.01 3501.66 1782.16 3502.44C1780.31 3503.23 1778.63 3504.38 1777.22 3505.83C1775.8 3507.29 1774.67 3509.02 1773.9 3510.93C1773.35 3512.31 1720.68 3645.9 1710.76 3671.36Z" fill="url(#paint9_linear_190_9)"/>
<path d="M1708.78 3674.44L1706.93 3673.64L1772.99 3510.36C1774.74 3506.05 1778.07 3502.63 1782.25 3500.86C1786.43 3499.09 1791.13 3499.1 1795.3 3500.9L1879.04 3537.1L1961.13 3334.19C1962.88 3329.88 1966.21 3326.46 1970.39 3324.69C1974.57 3322.91 1979.27 3322.93 1983.44 3324.72L2098.59 3374.5L2256.93 2983.11L2258.78 2983.91L2099.67 3377.22L1982.67 3326.64C1980.84 3325.85 1978.89 3325.44 1976.91 3325.43C1974.94 3325.43 1972.98 3325.82 1971.15 3326.6C1969.32 3327.37 1967.66 3328.51 1966.26 3329.95C1964.86 3331.39 1963.74 3333.1 1962.98 3334.99L1880.12 3539.81L1794.53 3502.81C1790.84 3501.23 1786.7 3501.21 1783.01 3502.78C1779.32 3504.34 1776.38 3507.36 1774.84 3511.16L1708.78 3674.44Z" fill="#3F3D56"/>
<path d="M1771.73 3488.87C1779.49 3488.87 1785.77 3482.37 1785.77 3474.35C1785.77 3466.33 1779.49 3459.83 1771.73 3459.83C1763.97 3459.83 1757.69 3466.33 1757.69 3474.35C1757.69 3482.37 1763.97 3488.87 1771.73 3488.87Z" fill="#3F3D56"/>
<path d="M1955.4 3312.35C1963.15 3312.35 1969.44 3305.85 1969.44 3297.83C1969.44 3289.81 1963.15 3283.31 1955.4 3283.31C1947.64 3283.31 1941.35 3289.81 1941.35 3297.83C1941.35 3305.85 1947.64 3312.35 1955.4 3312.35Z" fill="#3F3D56"/>
<path d="M2241.38 2978.33C2249.14 2978.33 2255.43 2971.83 2255.43 2963.81C2255.43 2955.79 2249.14 2949.29 2241.38 2949.29C2233.63 2949.29 2227.34 2955.79 2227.34 2963.81C2227.34 2971.83 2233.63 2978.33 2241.38 2978.33Z" fill="#3F3D56"/>
<path d="M1455.3 3457.88C1462.6 3454.12 1469.02 3448.76 1474.09 3442.16C1479.17 3435.57 1482.79 3427.9 1484.69 3419.7C1486.59 3411.5 1486.73 3402.98 1485.1 3394.72C1483.47 3386.46 1480.11 3378.67 1475.25 3371.9L1516.96 2950.35H1426.82L1393.67 3361.97C1383.21 3371.16 1376.37 3384 1374.45 3398.05C1372.54 3412.11 1375.68 3426.4 1383.27 3438.22C1390.87 3450.04 1402.4 3458.57 1415.67 3462.2C1428.95 3465.82 1443.05 3464.28 1455.3 3457.88Z" fill="#FFB8B8"/>
<path d="M1538.07 2717.7C1608.5 2717.7 1665.6 2658.68 1665.6 2585.87C1665.6 2513.06 1608.5 2454.04 1538.07 2454.04C1467.63 2454.04 1410.54 2513.06 1410.54 2585.87C1410.54 2658.68 1467.63 2717.7 1538.07 2717.7Z" fill="#FFB8B8"/>
<path d="M1562.08 3195.85C1556.97 3195.84 1552.01 3194.11 1547.95 3190.91C1543.89 3187.71 1540.95 3183.23 1539.6 3178.14C1529.38 3139.77 1502.8 3074.89 1460.59 2985.29C1451.06 2965.04 1445.79 2942.93 1445.11 2920.43C1444.43 2897.92 1448.37 2875.52 1456.65 2854.69C1464.94 2833.86 1477.39 2815.08 1493.2 2799.58C1509 2784.08 1527.79 2772.21 1548.34 2764.74C1567.82 2757.64 1588.48 2754.64 1609.1 2755.93C1629.72 2757.21 1649.88 2762.77 1668.38 2772.25C1686.89 2781.73 1703.37 2794.96 1716.84 2811.14C1730.32 2827.32 1740.52 2846.13 1746.84 2866.46C1779.55 2972.49 1777.97 3086.06 1775.77 3129.96C1775.5 3135.25 1773.56 3140.3 1770.24 3144.34C1766.93 3148.38 1762.43 3151.18 1757.42 3152.32L1567.09 3195.29C1565.44 3195.66 1563.76 3195.85 1562.08 3195.85Z" fill="url(#paint10_linear_190_9)"/>
<path d="M1746.4 4447.67H1810.05L1840.34 4193.86L1746.38 4193.86L1746.4 4447.67Z" fill="#FFB8B8"/>
<path d="M1932.82 4508.77L1732.76 4508.78L1732.75 4428.87L1855.52 4428.87C1865.67 4428.87 1875.72 4430.93 1885.1 4434.95C1894.48 4438.96 1903 4444.85 1910.18 4452.27C1917.36 4459.69 1923.05 4468.49 1926.94 4478.19C1930.82 4487.88 1932.82 4498.27 1932.82 4508.77Z" fill="#2F2E41"/>
<path d="M1109.84 4362.39L1165.63 4394.09L1310.47 4186.77L1228.14 4139.97L1109.84 4362.39Z" fill="#FFB8B8"/>
<path d="M1244.73 4508.78L1069.41 4409.14L1106.65 4339.12L1214.24 4400.26C1232.2 4410.47 1245.51 4427.64 1251.23 4447.99C1256.95 4468.34 1254.61 4490.21 1244.73 4508.78Z" fill="#2F2E41"/>
<path d="M1743.42 4306.79C1737.75 4306.79 1732.27 4304.65 1728.01 4300.78C1723.75 4296.9 1721 4291.56 1720.27 4285.75L1640.66 3651.6C1640.31 3648.8 1639.11 3646.18 1637.23 3644.12C1635.35 3642.06 1632.89 3640.67 1630.21 3640.14C1627.52 3639.62 1624.74 3639.98 1622.26 3641.18C1619.78 3642.39 1617.74 3644.37 1616.42 3646.85L1284.63 4269.09C1281.89 4274.17 1277.48 4278.07 1272.2 4280.07C1266.92 4282.07 1261.12 4282.05 1255.85 4280.01L1183.53 4251.53C1180.62 4250.38 1177.96 4248.65 1175.71 4246.42C1173.46 4244.2 1171.66 4241.54 1170.42 4238.59C1169.18 4235.64 1168.52 4232.46 1168.48 4229.24C1168.45 4226.02 1169.03 4222.83 1170.2 4219.85L1400.04 3636.22C1400.63 3634.73 1401.02 3633.18 1401.22 3631.59C1432.35 3382.53 1511.56 3255.87 1535.09 3222.99C1536.81 3220.57 1537.94 3217.76 1538.39 3214.8C1538.83 3211.83 1538.59 3208.8 1537.66 3205.96L1534.43 3195.92C1533.14 3191.94 1532.87 3187.68 1533.66 3183.56C1534.45 3179.44 1536.26 3175.61 1538.92 3172.43C1623.72 3072.59 1771.53 3127.07 1773.01 3127.63L1773.75 3127.92L1774.21 3128.57C1939.94 3363.51 1878.67 4126.6 1864.7 4277.19C1864.18 4282.85 1861.74 4288.13 1857.81 4292.11C1853.88 4296.09 1848.72 4298.5 1843.24 4298.93L1745.24 4306.73C1744.63 4306.77 1744.02 4306.79 1743.42 4306.79Z" fill="#2F2E41"/>
<path d="M2033.86 2739C2033.22 2741.9 2032.81 2744.84 2032.62 2747.81L1809.57 2880.82L1755.35 2848.56L1697.55 2926.77L1788.16 2993.53C1795.48 2998.92 1804.3 3001.72 1813.28 3001.49C1822.27 3001.26 1830.94 2998.03 1838 2992.27L2068.01 2804.71C2078.39 2808.68 2089.69 2809.29 2100.41 2806.46C2111.14 2803.63 2120.78 2797.49 2128.04 2788.86C2135.31 2780.23 2139.86 2769.52 2141.09 2758.15C2142.33 2746.78 2140.18 2735.29 2134.94 2725.21C2129.71 2715.13 2121.62 2706.94 2111.77 2701.72C2101.92 2696.51 2090.77 2694.51 2079.79 2696.01C2068.82 2697.51 2058.55 2702.43 2050.34 2710.11C2042.14 2717.78 2036.39 2727.86 2033.86 2739Z" fill="#FFB8B8"/>
<path d="M1802.11 2887.12L1730.02 2983.7C1727.97 2986.45 1725.37 2988.71 1722.39 2990.32C1719.42 2991.94 1716.15 2992.88 1712.8 2993.06C1709.44 2993.25 1706.09 2992.7 1702.97 2991.43C1699.84 2990.15 1697.02 2988.2 1694.69 2985.7L1613.08 2898.1C1599.54 2887.17 1590.74 2871.14 1588.62 2853.52C1586.49 2835.9 1591.21 2818.12 1601.75 2804.09C1612.28 2790.07 1627.77 2780.93 1644.81 2778.69C1661.85 2776.44 1679.06 2781.28 1692.66 2792.13L1795.02 2851.29C1797.95 2852.99 1800.49 2855.31 1802.47 2858.12C1804.45 2860.92 1805.83 2864.13 1806.5 2867.53C1807.17 2870.93 1807.13 2874.44 1806.37 2877.82C1805.61 2881.2 1804.16 2884.37 1802.11 2887.12Z" fill="url(#paint11_linear_190_9)"/>
<path d="M1522.7 3054.92L1406.56 3033.24C1403.26 3032.62 1400.12 3031.28 1397.36 3029.3C1394.61 3027.31 1392.3 3024.74 1390.59 3021.75C1388.88 3018.76 1387.82 3015.43 1387.47 3011.97C1387.13 3008.52 1387.5 3005.03 1388.58 3001.74L1426.22 2886.52C1429.37 2869.06 1439.09 2853.61 1453.24 2843.54C1467.4 2833.48 1484.84 2829.63 1501.74 2832.84C1518.63 2836.04 1533.61 2846.05 1543.39 2860.65C1553.16 2875.26 1556.93 2893.27 1553.87 2910.75L1550.2 3031.91C1550.09 3035.38 1549.27 3038.79 1547.77 3041.89C1546.28 3045 1544.15 3047.74 1541.54 3049.93C1538.93 3052.11 1535.9 3053.68 1532.65 3054.55C1529.39 3055.41 1526 3055.53 1522.7 3054.92Z" fill="#FF6584"/>
<path d="M1558.25 2555.55C1591.03 2578.74 1634.07 2602.58 1667.55 2577.88C1678.02 2569.64 1685.63 2558.11 1689.23 2545.03C1692.83 2531.94 1692.24 2518 1687.54 2505.29C1671.51 2457.9 1627.47 2437.04 1585.35 2421.05C1530.6 2400.26 1470.98 2383.72 1414.46 2398.61C1357.94 2413.5 1307.99 2470.07 1318.19 2529.43C1326.4 2577.17 1369.96 2616.89 1363.77 2664.95C1357.55 2713.33 1304.92 2738.79 1258.46 2747.43C1212 2756.08 1160.01 2758.86 1126.62 2793.35C1084.03 2837.36 1094.67 2916.01 1134.75 2962.47C1174.82 3008.94 1235.31 3030 1293.91 3044.31C1371.56 3063.28 1455.55 3073.25 1529.3 3041.77C1603.05 3010.29 1660.44 2925.54 1639.07 2846.08C1630.05 2812.51 1608.79 2784.14 1588.25 2756.53C1567.7 2728.91 1546.9 2700.03 1539.06 2666.15C1532.53 2637.91 1537.36 2605.13 1555.48 2583.95C1558.77 2580.24 1560.85 2575.55 1561.4 2570.55C1561.96 2565.54 1560.96 2560.49 1558.57 2556.11L1558.25 2555.55Z" fill="#2F2E41"/>
<path d="M2044.33 4511.96H994.457C992.992 4511.96 991.586 4511.36 990.55 4510.29C989.514 4509.22 988.932 4507.76 988.932 4506.25C988.932 4504.73 989.514 4503.28 990.55 4502.21C991.586 4501.14 992.992 4500.54 994.457 4500.54H2044.33C2045.79 4500.54 2047.2 4501.14 2048.23 4502.21C2049.27 4503.28 2049.85 4504.73 2049.85 4506.25C2049.85 4507.76 2049.27 4509.22 2048.23 4510.29C2047.2 4511.36 2045.79 4511.96 2044.33 4511.96Z" fill="#CCCCCC"/>
</g>
<defs>
<linearGradient id="paint0_linear_190_9" x1="1846.06" y1="598.216" x2="5569.45" y2="598.216" gradientUnits="userSpaceOnUse">
<stop stop-color="#E99922"/>
<stop offset="1" stop-color="#85000C"/>
</linearGradient>
<linearGradient id="paint1_linear_190_9" x1="3266.34" y1="2044.55" x2="3266.34" y2="2255.89" gradientUnits="userSpaceOnUse">
<stop stop-color="#E99922"/>
<stop offset="1" stop-color="#85000C"/>
</linearGradient>
<linearGradient id="paint2_linear_190_9" x1="3625.51" y1="1850.35" x2="3625.51" y2="2255.89" gradientUnits="userSpaceOnUse">
<stop stop-color="#E99922"/>
<stop offset="1" stop-color="#85000C"/>
</linearGradient>
<linearGradient id="paint3_linear_190_9" x1="3990.2" y1="1656.15" x2="3990.2" y2="2255.89" gradientUnits="userSpaceOnUse">
<stop stop-color="#E99922"/>
<stop offset="1" stop-color="#85000C"/>
</linearGradient>
<linearGradient id="paint4_linear_190_9" x1="4365.94" y1="1467.66" x2="4365.94" y2="2255.89" gradientUnits="userSpaceOnUse">
<stop stop-color="#E99922"/>
<stop offset="1" stop-color="#85000C"/>
</linearGradient>
<linearGradient id="paint5_linear_190_9" x1="5222.25" y1="3465.02" x2="5222.25" y2="3532.78" gradientUnits="userSpaceOnUse">
<stop stop-color="#E99922"/>
<stop offset="1" stop-color="#85000C"/>
</linearGradient>
<linearGradient id="paint6_linear_190_9" x1="5812.1" y1="3620.86" x2="5812.1" y2="3850.55" gradientUnits="userSpaceOnUse">
<stop stop-color="#E99922"/>
<stop offset="1" stop-color="#85000C"/>
</linearGradient>
<linearGradient id="paint7_linear_190_9" x1="3791.42" y1="4418.03" x2="3791.42" y2="4508.77" gradientUnits="userSpaceOnUse">
<stop stop-color="#E99922"/>
<stop offset="1" stop-color="#85000C"/>
</linearGradient>
<linearGradient id="paint8_linear_190_9" x1="3520.66" y1="4418.03" x2="3520.66" y2="4508.77" gradientUnits="userSpaceOnUse">
<stop stop-color="#E99922"/>
<stop offset="1" stop-color="#85000C"/>
</linearGradient>
<linearGradient id="paint9_linear_190_9" x1="2051.38" y1="2986.87" x2="2051.38" y2="3671.36" gradientUnits="userSpaceOnUse">
<stop stop-color="#E99922"/>
<stop offset="1" stop-color="#85000C"/>
</linearGradient>
<linearGradient id="paint10_linear_190_9" x1="1610.91" y1="2755.63" x2="1610.91" y2="3195.85" gradientUnits="userSpaceOnUse">
<stop stop-color="#E99922"/>
<stop offset="1" stop-color="#85000C"/>
</linearGradient>
<linearGradient id="paint11_linear_190_9" x1="1697.55" y1="2778.15" x2="1697.55" y2="2993.1" gradientUnits="userSpaceOnUse">
<stop stop-color="#E99922"/>
<stop offset="1" stop-color="#85000C"/>
</linearGradient>
<clipPath id="clip0_190_9">
<rect width="5498" height="3985" fill="white" transform="translate(988.932 526.961)"/>
</clipPath>
</defs>
</svg>
