<svg width="7476" height="5039" viewBox="0 0 7476 5039" fill="none" xmlns="http://www.w3.org/2000/svg">
<rect opacity="0.5" width="7475.86" height="4798.38" rx="383" fill="white"/>
<g clip-path="url(#clip0_190_153)">
<path d="M4020.17 526.961H2620.27V1958.54H4020.17V526.961Z" fill="#F2F2F2"/>
<path d="M4020.17 532.223H2620.27V1963.8H4020.17V532.223Z" stroke="#3F3D56" stroke-width="2" stroke-miterlimit="10"/>
<path d="M2769.13 1802.3H2693.65V1872.67H2769.13V1802.3Z" fill="url(#paint0_linear_190_153)"/>
<path d="M2878.15 1802.3H2802.67V1872.67H2878.15V1802.3Z" fill="#3F3D56"/>
<path d="M2987.18 1802.3H2911.7V1872.67H2987.18V1802.3Z" fill="#575A89"/>
<path d="M3833.89 1832.86H3540.36V1843.96H3833.89V1832.86Z" fill="#3F3D56"/>
<path d="M3833.89 1866.15H3540.36V1877.25H3833.89V1866.15Z" fill="#3F3D56"/>
<path d="M3833.89 1899.44H3540.36V1910.53H3833.89V1899.44Z" fill="#3F3D56"/>
<path d="M3320.22 784.855V900.645C3393.9 900.645 3465.93 921.018 3527.2 959.187C3588.47 997.356 3636.22 1051.61 3664.41 1115.08C3692.61 1178.55 3699.99 1248.4 3685.61 1315.78C3671.24 1383.16 3635.76 1445.06 3583.65 1493.64L3671.47 1575.52C3740.94 1510.74 3788.25 1428.21 3807.41 1338.37C3826.58 1248.53 3816.74 1155.4 3779.15 1070.77C3741.55 986.139 3677.88 913.804 3596.19 862.912C3514.5 812.019 3418.46 784.855 3320.22 784.855Z" fill="#3F3D56"/>
<path d="M3671.47 1575.52L3583.65 1493.64C3519.96 1553.04 3435.33 1588.9 3345.45 1594.59C3255.57 1600.27 3166.53 1575.38 3094.82 1524.54L3019.65 1616.76C3115.28 1684.53 3234.01 1717.69 3353.85 1710.11C3473.7 1702.53 3586.53 1654.71 3671.47 1575.52Z" fill="#575A89"/>
<path d="M2947.66 1248.01C2947.66 1155.89 2986.91 1067.53 3056.78 1002.39C3126.65 937.243 3221.41 900.645 3320.22 900.645V784.855C3216.23 784.855 3114.86 815.281 3030.41 871.847C2945.95 928.413 2882.67 1008.27 2849.47 1100.15C2816.27 1192.03 2814.84 1291.31 2845.37 1384C2875.9 1476.68 2936.86 1558.09 3019.65 1616.76L3094.82 1524.54C3049.05 1492.18 3011.95 1450.37 2986.42 1402.39C2960.88 1354.41 2947.62 1301.57 2947.66 1248.01Z" fill="url(#paint1_linear_190_153)"/>
<path d="M4293.57 2520.24C4315.08 2448.59 4354.82 2382.83 4409.42 2328.56C4464.02 2274.29 4531.86 2233.11 4607.18 2208.52C4627.67 2201.95 4618.87 2171.44 4598.18 2178.07C4517.26 2204.23 4444.33 2248.24 4385.61 2306.36C4326.88 2364.48 4284.1 2434.98 4260.91 2511.85C4255.1 2531.47 4287.77 2539.84 4293.57 2520.24Z" fill="white"/>
<path d="M4229.33 2692.7C4251.13 2692.7 4251.16 2661.12 4229.33 2661.12C4207.54 2661.12 4207.51 2692.7 4229.33 2692.7Z" fill="white"/>
<path d="M2822.64 2366.59L2295.36 2210.59L2090.49 2812.59L2617.77 2968.59L2822.64 2366.59Z" fill="#F2F2F2"/>
<path d="M2579.71 2410.1L2372.68 2348.84L2369.05 2359.52L2576.08 2420.78L2579.71 2410.1Z" fill="#3F3D56"/>
<path d="M2667.27 2457.7L2365.97 2368.56L2362.33 2379.24L2663.64 2468.38L2667.27 2457.7Z" fill="#3F3D56"/>
<path d="M2556.79 2477.46L2349.76 2416.2L2346.12 2426.88L2553.16 2488.13L2556.79 2477.46Z" fill="#3F3D56"/>
<path d="M2529.96 2556.31L2322.92 2495.06L2319.29 2505.74L2526.32 2566.99L2529.96 2556.31Z" fill="#3F3D56"/>
<path d="M2644.35 2525.06L2343.05 2435.92L2339.41 2446.6L2640.71 2535.74L2644.35 2525.06Z" fill="#3F3D56"/>
<path d="M2637.64 2544.77L2336.34 2455.63L2332.71 2466.31L2634.01 2555.45L2637.64 2544.77Z" fill="#3F3D56"/>
<path d="M2630.93 2564.49L2329.63 2475.35L2325.99 2486.02L2627.3 2575.17L2630.93 2564.49Z" fill="#3F3D56"/>
<path d="M2415.07 2574.77L2306.71 2542.71L2297.2 2570.63L2405.57 2602.69L2415.07 2574.77Z" fill="url(#paint2_linear_190_153)"/>
<path d="M1728.39 4511.96C2136.79 4511.96 2467.86 4471.9 2467.86 4422.49C2467.86 4373.07 2136.79 4333.01 1728.39 4333.01C1320 4333.01 988.93 4373.07 988.93 4422.49C988.93 4471.9 1320 4511.96 1728.39 4511.96Z" fill="#3F3D56"/>
<path d="M1379.11 1945.52L1354.55 1999.91L1382.18 2352.04C1382.18 2352.04 1366.83 2372.08 1382.18 2386.4C1397.54 2400.71 1394.47 2406.44 1394.47 2406.44C1394.47 2406.44 1369.9 2406.44 1382.18 2423.61C1394.47 2440.79 1394.47 2449.38 1394.47 2449.38L1388.33 2466.56C1388.33 2466.56 1400.61 2480.87 1400.61 2492.32C1400.61 2503.77 1480.44 2855.9 1480.44 2855.9L1557.2 2715.62L1514.21 2157.37L1379.11 1945.52Z" fill="url(#paint3_linear_190_153)"/>
<path d="M2167.32 2840.97C2167.32 2840.97 2334.96 2834.66 2388.41 2889.8C2441.86 2944.94 2178.42 2905.05 2163.52 2889.51C2148.62 2873.97 2167.32 2840.97 2167.32 2840.97Z" fill="#FFB9B9"/>
<path d="M1339.2 4230.07L1305.42 4333.13C1305.42 4333.13 1256.3 4433.33 1323.85 4447.64C1391.39 4461.96 1455.87 4407.56 1455.87 4407.56V4338.85L1480.44 4230.07H1339.2Z" fill="#2F2E41"/>
<path d="M1891.87 4230.07C1891.87 4230.07 1876.52 4424.74 1910.29 4436.19C1944.07 4447.64 2063.81 4450.51 2066.89 4436.19C2069.96 4421.88 2106.8 4407.56 2079.17 4387.52C2051.53 4367.48 2033.11 4250.11 2033.11 4250.11L1891.87 4230.07Z" fill="#2F2E41"/>
<path d="M1581.76 2386.4V2472.28C1581.76 2472.28 1480.44 2669.82 1443.59 2981.87C1406.75 3293.92 1280.86 4244.38 1311.56 4261.56C1342.27 4278.73 1673.87 4290.19 1683.08 4267.28C1692.3 4244.38 1701.51 3574.48 1701.51 3574.48L1815.11 3102.11C1815.11 3102.11 1836.6 3271.01 1855.03 3299.64C1873.45 3328.27 1824.32 4258.69 1855.03 4273.01C1885.73 4287.32 2300.24 4313.09 2294.1 4267.28C2287.96 4221.48 2149.79 2979 2149.79 2979C2149.79 2979 2079.17 2392.12 2057.67 2386.4C2036.18 2380.67 1839.68 2374.94 1808.97 2380.67C1778.27 2386.4 1581.76 2386.4 1581.76 2386.4Z" fill="#2F2E41"/>
<path d="M1815.11 1676.41C1911.77 1676.41 1990.12 1603.35 1990.12 1513.23C1990.12 1423.11 1911.77 1350.05 1815.11 1350.05C1718.45 1350.05 1640.1 1423.11 1640.1 1513.23C1640.1 1603.35 1718.45 1676.41 1815.11 1676.41Z" fill="#FFB9B9"/>
<path d="M1851.96 1650.65C1851.96 1650.65 1762.92 1779.47 1784.41 1813.83C1805.9 1848.18 1557.2 1779.47 1557.2 1779.47C1557.2 1779.47 1707.65 1607.7 1704.58 1587.66C1701.51 1567.62 1851.96 1650.65 1851.96 1650.65Z" fill="#FFB9B9"/>
<path d="M2036.18 1842.46C2036.18 1842.46 1873.45 1793.79 1851.96 1773.75C1838.17 1760.62 1825.83 1746.23 1815.11 1730.81C1815.11 1730.81 1618.61 1705.04 1612.47 1705.04C1606.33 1705.04 1560.27 1756.57 1547.99 1768.02C1535.71 1779.47 1379.11 1856.77 1379.11 1876.81C1379.11 1896.85 1354.55 1999.91 1354.55 1999.91C1354.55 1999.91 1409.82 2105.84 1443.59 2128.74C1477.37 2151.64 1486.58 2145.92 1489.65 2183.14C1492.72 2220.35 1535.71 2280.47 1535.71 2280.47C1535.71 2280.47 1563.34 2346.32 1557.2 2366.36C1551.06 2386.4 1523.42 2403.57 1587.9 2397.85C1652.38 2392.12 1971.7 2409.3 1971.7 2377.81C1971.7 2346.32 1910.3 2045.72 1910.3 2045.72L2036.18 1842.46Z" fill="url(#paint4_linear_190_153)"/>
<path d="M1977.84 1848.18L2036.18 1842.46C2036.18 1842.46 2057.67 1853.91 2060.74 1965.56C2063.81 2077.21 2063.81 2346.32 2085.31 2369.22C2106.8 2392.12 2195.84 2747.12 2195.84 2747.12C2195.84 2747.12 2220.41 2752.84 2220.41 2772.88C2220.41 2792.92 2248.04 2810.1 2235.76 2833C2223.48 2855.9 2248.04 2850.18 2232.69 2864.49C2217.34 2878.81 2143.65 2907.43 2140.57 2890.26C2137.5 2873.08 2149.79 2870.22 2137.5 2864.49C2125.22 2858.77 2125.22 2855.9 2122.15 2835.86C2119.08 2815.82 2091.45 2795.78 2094.52 2787.19C2097.59 2778.61 1959.42 2529.54 1959.42 2520.95C1959.42 2512.36 1950.21 2480.87 1937.93 2475.15C1925.65 2469.42 1907.22 2463.69 1916.43 2449.38C1925.65 2435.07 1891.87 2005.64 1891.87 2005.64L1977.84 1848.18Z" fill="url(#paint5_linear_190_153)"/>
<path d="M1963.11 1409.74C1909.44 1355.42 1825.16 1326.59 1747.87 1342.75C1670.58 1358.91 1605.5 1422.89 1599.45 1496.53C1598.22 1511.59 1599.25 1526.98 1595.07 1541.57C1588.03 1566.12 1567.11 1585.58 1559.74 1610.04C1554.8 1626.42 1556.26 1644.06 1551.02 1660.37C1541.35 1690.49 1511.4 1710.14 1488.58 1733.29C1479.34 1741.78 1472.47 1752.25 1468.59 1763.79C1466.59 1774.02 1466.08 1784.46 1467.08 1794.82C1468.04 1850.67 1445.77 1904.7 1404.95 1945.57C1428.95 1928.94 1454.89 1914.88 1482.27 1903.66C1468.7 1943.95 1481.1 1991.62 1515.25 2019.37C1549.39 2047.12 1604.08 2051.43 1641 2026.97C1662.93 2012.43 1677.17 1990.12 1690.78 1968.48L1742.29 1886.52C1751.61 1871.7 1761.34 1856.45 1776.22 1846.32C1788.06 1838.28 1802.43 1833.99 1814.34 1826.05C1844.38 1806.01 1852.45 1766.78 1846.86 1732.73C1841.26 1698.69 1824.84 1667.08 1815.42 1633.77C1807.97 1607.43 1805.64 1577.24 1822.39 1554.92C1844.64 1525.3 1890.35 1521.52 1920.58 1498.86C1931.96 1490.33 1937.04 1479.95 1945.19 1469.27C1952.71 1459.42 1954.63 1462.95 1966.29 1462.5C1998.3 1461.26 1974.97 1421.75 1963.11 1409.74Z" fill="#2F2E41"/>
<path d="M1810.24 1601.44C1818.04 1601.44 1824.36 1587.3 1824.36 1569.86C1824.36 1552.42 1818.04 1538.28 1810.24 1538.28C1802.45 1538.28 1796.13 1552.42 1796.13 1569.86C1796.13 1587.3 1802.45 1601.44 1810.24 1601.44Z" fill="#FFB9B9"/>
<path d="M4519.73 1121.17C4619.49 1121.17 4700.36 1045.77 4700.36 952.753C4700.36 859.737 4619.49 784.332 4519.73 784.332C4419.97 784.332 4339.1 859.737 4339.1 952.753C4339.1 1045.77 4419.97 1121.17 4519.73 1121.17Z" fill="#F2F2F2"/>
<path d="M1559.05 952.752C1658.81 952.752 1739.68 877.347 1739.68 784.331C1739.68 691.315 1658.81 615.91 1559.05 615.91C1459.29 615.91 1378.42 691.315 1378.42 784.331C1378.42 877.347 1459.29 952.752 1559.05 952.752Z" fill="#F2F2F2"/>
<path d="M5341.04 1347.49C5440.8 1347.49 5521.68 1272.09 5521.68 1179.07C5521.68 1086.05 5440.8 1010.65 5341.04 1010.65C5241.28 1010.65 5160.41 1086.05 5160.41 1179.07C5160.41 1272.09 5241.28 1347.49 5341.04 1347.49Z" fill="#F2F2F2"/>
<path d="M3368.6 3630.87C3300.75 3631.45 3232.95 3627.46 3165.84 3618.91C3103.35 3609.91 3071.66 3597.13 3071.66 3580.92L3071.69 3580.62L3188.26 2824.85L3129.55 2681.53C3127.08 2675.51 3126.36 2669.08 3127.43 2662.77C3128.5 2656.46 3131.34 2650.47 3135.7 2645.29C3140.07 2640.12 3145.83 2635.91 3152.51 2633.03C3159.19 2630.15 3166.58 2628.68 3174.06 2628.75L3560.15 2632.17C3567.49 2632.24 3574.72 2633.78 3581.23 2636.68C3587.74 2639.57 3593.36 2643.74 3597.63 2648.83C3601.89 2653.92 3604.68 2659.81 3605.77 2665.99C3606.86 2672.18 3606.22 2678.5 3603.89 2684.43L3548.94 2824.83L3665.51 3580.62C3665.53 3620.35 3478.89 3630.87 3368.6 3630.87Z" fill="#F2F2F2"/>
<path d="M5065.37 3630.87C4997.52 3631.45 4929.72 3627.46 4862.61 3618.91C4800.12 3609.91 4768.44 3597.13 4768.44 3580.92L4768.46 3580.62L4885.03 2824.85L4826.32 2681.53C4823.86 2675.51 4823.13 2669.08 4824.2 2662.77C4825.27 2656.46 4828.11 2650.47 4832.48 2645.29C4836.84 2640.12 4842.61 2635.91 4849.28 2633.03C4855.96 2630.15 4863.35 2628.68 4870.84 2628.75L5256.92 2632.17C5264.27 2632.24 5271.49 2633.78 5278 2636.68C5284.52 2639.57 5290.14 2643.74 5294.4 2648.83C5298.67 2653.92 5301.46 2659.81 5302.54 2665.99C5303.63 2672.18 5302.99 2678.5 5300.67 2684.43L5245.71 2824.83L5362.28 3580.62C5362.31 3620.35 5175.66 3630.87 5065.37 3630.87Z" fill="#F2F2F2"/>
<path d="M5033.91 3524.48H4845.32V3533.51H5033.91V3524.48Z" fill="#CCCCCC"/>
<path d="M5033.91 3470.29H4845.32V3479.32H5033.91V3470.29Z" fill="#CCCCCC"/>
<path d="M5033.91 3416.11H4845.32V3425.14H5033.91V3416.11Z" fill="#CCCCCC"/>
<path d="M5033.91 3361.93H4845.32V3370.96H5033.91V3361.93Z" fill="#CCCCCC"/>
<path d="M5033.91 3307.74H4845.32V3316.77H5033.91V3307.74Z" fill="#CCCCCC"/>
<path d="M4270.01 3630.87C4202.16 3631.45 4134.36 3627.46 4067.25 3618.91C4004.76 3609.91 3973.07 3597.13 3973.07 3580.92L3973.1 3580.62L4089.67 2824.85L4030.96 2681.53C4028.49 2675.51 4027.77 2669.08 4028.84 2662.77C4029.91 2656.46 4032.75 2650.47 4037.11 2645.29C4041.48 2640.12 4047.24 2635.91 4053.92 2633.03C4060.6 2630.15 4067.99 2628.68 4075.47 2628.75L4461.56 2632.17C4468.9 2632.24 4476.13 2633.78 4482.64 2636.68C4489.15 2639.57 4494.77 2643.74 4499.04 2648.83C4503.3 2653.92 4506.09 2659.81 4507.18 2665.99C4508.27 2672.18 4507.63 2678.5 4505.3 2684.43L4450.35 2824.83L4566.92 3580.62C4566.94 3620.35 4380.3 3630.87 4270.01 3630.87Z" fill="#F2F2F2"/>
<path d="M4238.55 3524.48H4049.96V3533.51H4238.55V3524.48Z" fill="#CCCCCC"/>
<path d="M4238.55 3470.29H4049.96V3479.32H4238.55V3470.29Z" fill="#CCCCCC"/>
<path d="M4238.55 3416.11H4049.96V3425.14H4238.55V3416.11Z" fill="#CCCCCC"/>
<path d="M4238.55 3361.93H4049.96V3370.96H4238.55V3361.93Z" fill="#CCCCCC"/>
<path d="M4238.55 3307.74H4049.96V3316.77H4238.55V3307.74Z" fill="#CCCCCC"/>
<path d="M5524.03 3687.03H5163.46V3172.29H5524.03C5543.72 3172.29 5562.6 3165.63 5576.52 3153.77C5590.44 3141.92 5598.26 3125.84 5598.26 3109.07C5598.26 3092.31 5590.44 3076.23 5576.52 3064.37C5562.6 3052.52 5543.72 3045.86 5524.03 3045.86H3010.69C2991 3045.86 2972.12 3052.52 2958.2 3064.37C2944.27 3076.23 2936.45 3092.31 2936.45 3109.07C2936.45 3125.84 2944.27 3141.92 2958.2 3153.77C2972.12 3165.63 2991 3172.29 3010.69 3172.29H3318.23V3687.03H3010.69C2991 3687.03 2972.12 3693.69 2958.2 3705.54C2944.27 3717.4 2936.45 3733.47 2936.45 3750.24C2936.45 3767.01 2944.27 3783.08 2958.2 3794.94C2972.12 3806.79 2991 3813.45 3010.69 3813.45H5524.03C5533.78 3813.46 5543.45 3811.83 5552.46 3808.66C5561.48 3805.49 5569.67 3800.83 5576.57 3794.96C5583.47 3789.09 5588.95 3782.12 5592.68 3774.45C5596.42 3766.77 5598.34 3758.55 5598.34 3750.24C5598.34 3741.93 5596.42 3733.71 5592.68 3726.03C5588.95 3718.36 5583.47 3711.39 5576.57 3705.52C5569.67 3699.65 5561.48 3694.99 5552.46 3691.82C5543.45 3688.65 5533.78 3687.02 5524.03 3687.03ZM3466.69 3687.03V3172.29H5015V3687.03H3466.69Z" fill="#CCCCCC"/>
<path d="M5465.64 4353.49C5281.22 4353.49 5109.22 4343.34 4981.33 4324.92C4823.57 4302.19 4746.87 4269.17 4746.87 4223.96L4746.96 4222.54L5023.87 2427.04L4885.23 2088.62C4878.58 2072.7 4876.58 2055.64 4879.42 2038.91C4882.26 2022.19 4889.85 2006.3 4901.53 1992.64C4912.93 1978.76 4928.19 1967.5 4945.94 1959.85C4963.69 1952.21 4983.38 1948.42 5003.27 1948.82L5921.3 1956.97C5940.76 1957.14 5959.89 1961.22 5977.14 1968.89C5994.4 1976.56 6009.28 1987.59 6020.57 2001.08C6031.87 2014.57 6039.26 2030.15 6042.14 2046.54C6045.03 2062.92 6043.32 2079.66 6037.17 2095.38L5907.39 2426.92L6184.35 4222.57V4223.26C6184.38 4272 6097.55 4306.61 5918.91 4329.06C5743.41 4351.11 5543.46 4353.49 5465.64 4353.49Z" fill="white"/>
<path d="M5465.64 4353.49C5281.22 4353.49 5109.22 4343.34 4981.33 4324.92C4823.57 4302.19 4746.87 4269.17 4746.87 4223.96L4746.96 4222.54L5023.87 2427.04L4885.23 2088.62C4878.58 2072.7 4876.58 2055.64 4879.42 2038.91C4882.26 2022.19 4889.85 2006.3 4901.53 1992.64C4912.93 1978.76 4928.19 1967.5 4945.94 1959.85C4963.69 1952.21 4983.38 1948.42 5003.27 1948.82L5921.3 1956.97C5940.76 1957.14 5959.89 1961.22 5977.14 1968.89C5994.4 1976.56 6009.28 1987.59 6020.57 2001.08C6031.87 2014.57 6039.26 2030.15 6042.14 2046.54C6045.03 2062.92 6043.32 2079.66 6037.17 2095.38L5907.39 2426.92L6184.35 4222.57V4223.26C6184.38 4272 6097.55 4306.61 5918.91 4329.06C5743.41 4351.11 5543.46 4353.49 5465.64 4353.49ZM5000.73 1970.28C4985.28 1970.27 4970.06 1973.43 4956.35 1979.51C4942.64 1985.58 4930.86 1994.38 4922.01 2005.17C4912.72 2016.04 4906.68 2028.68 4904.42 2041.99C4902.16 2055.3 4903.75 2068.88 4909.05 2081.54L5049.65 2424.78L5049.26 2427.31L4772.04 4224.67C4772.09 4242.27 4799.82 4276.99 4985.54 4303.73C5112.08 4321.97 5282.58 4332.01 5465.64 4332.01C5626.55 4332.01 5794.62 4322.96 5915.23 4307.81C6069.3 4288.45 6158.05 4257.9 6159.12 4223.91L5881.63 2424.82L6013.24 2088.59C6018.14 2076.08 6019.49 2062.76 6017.2 2049.72C6014.9 2036.68 6009.02 2024.29 6000.03 2013.55C5991.05 2002.81 5979.21 1994.04 5965.48 1987.93C5951.75 1981.83 5936.52 1978.58 5921.04 1978.44L5002.87 1970.3C5002.15 1970.28 5001.44 1970.28 5000.73 1970.28Z" fill="#3F3D56"/>
<path opacity="0.5" d="M5988.96 4004.28H4942.33L5108.24 3048.91L5112.76 3022.58L5181.88 2624.86C5186.1 2600.6 5218.9 2619.44 5242.09 2604.89C5386.08 2514.6 5531.79 2511.98 5678.77 2599.01C5701.49 2612.46 5732.87 2596.72 5737.11 2620L5809.72 3018.93L5816.74 3057.52L5988.96 4004.28Z" fill="#F9A826"/>
<path d="M5859.78 4138.06H5070.39C5049.69 4138.06 5029.24 4134.26 5010.42 4126.92C4991.61 4119.59 4974.87 4108.88 4961.35 4095.54C4947.83 4082.2 4937.84 4066.53 4932.07 4049.61C4926.3 4032.68 4924.89 4014.9 4927.91 3997.47L5158.55 2669.38C5159.74 2662.59 5163.02 2656.19 5168.05 2650.82C5173.08 2645.46 5179.68 2641.32 5187.19 2638.82C5194.71 2636.33 5202.86 2635.57 5210.83 2636.62C5218.79 2637.67 5226.29 2640.5 5232.57 2644.81C5373.13 2740.7 5526.33 2738.54 5687.89 2638.43C5694.16 2634.53 5701.5 2632.07 5709.21 2631.31C5716.92 2630.55 5724.73 2631.49 5731.88 2634.06C5739.18 2636.61 5745.58 2640.73 5750.45 2646.02C5755.32 2651.3 5758.51 2657.57 5759.69 2664.21L6002.11 3996.64C6005.29 4014.12 6003.99 4031.99 5998.3 4049C5992.61 4066.02 5982.66 4081.79 5969.14 4095.22C5955.62 4108.66 5938.84 4119.44 5919.97 4126.83C5901.09 4134.23 5880.56 4138.06 5859.78 4138.06Z" fill="#F9A826"/>
<path d="M5542.14 3982.36H5093.64V4003.83H5542.14V3982.36Z" fill="white"/>
<path d="M5542.14 3853.5H5093.64V3874.98H5542.14V3853.5Z" fill="white"/>
<path d="M5542.14 3724.64H5093.64V3746.12H5542.14V3724.64Z" fill="white"/>
<path d="M5542.14 3595.79H5093.64V3617.27H5542.14V3595.79Z" fill="white"/>
<path d="M5542.14 3466.93H5093.64V3488.41H5542.14V3466.93Z" fill="white"/>
<path d="M5837.89 3128.9C5803.1 3158.31 5761.26 3180.97 5715.22 3195.32C5669.18 3209.66 5620.05 3215.36 5571.19 3212.01C5515.45 3207.72 5464.63 3190 5415.7 3167.66C5365.14 3144.58 5316.21 3116.98 5260.22 3104.09C5211.17 3092.82 5153.04 3091.32 5110.92 3119.23C5107.48 3121.51 5103.27 3122.78 5098.92 3122.88C5094.57 3122.98 5090.29 3121.89 5086.71 3119.77L5091.5 3091.85C5138.41 3063.93 5195.41 3059.64 5251.27 3069.19C5363.75 3088.52 5449.12 3167.77 5564.38 3179.15C5614.09 3183.92 5664.42 3178.09 5710.84 3162.2C5757.26 3146.31 5798.32 3120.84 5830.32 3088.09L5830.45 3087.99L5837.89 3128.9Z" fill="white"/>
<path d="M5755.51 1581.73C5784.07 1581.73 5807.23 1562.01 5807.23 1537.69C5807.23 1513.36 5784.07 1493.64 5755.51 1493.64C5726.94 1493.64 5703.78 1513.36 5703.78 1537.69C5703.78 1562.01 5726.94 1581.73 5755.51 1581.73Z" fill="#F9A826"/>
<path d="M5479.64 1897.4C5508.2 1897.4 5531.36 1877.68 5531.36 1853.36C5531.36 1829.03 5508.2 1809.31 5479.64 1809.31C5451.07 1809.31 5427.91 1829.03 5427.91 1853.36C5427.91 1877.68 5451.07 1897.4 5479.64 1897.4Z" fill="#F9A826"/>
<path d="M5524.03 3687.03H5163.46V3172.29H5524.03C5543.72 3172.29 5562.6 3165.63 5576.52 3153.77C5590.44 3141.92 5598.26 3125.84 5598.26 3109.07C5598.26 3092.31 5590.44 3076.23 5576.52 3064.37C5562.6 3052.52 5543.72 3045.86 5524.03 3045.86H3010.69C2991 3045.86 2972.12 3052.52 2958.2 3064.37C2944.27 3076.23 2936.45 3092.31 2936.45 3109.07C2936.45 3125.84 2944.27 3141.92 2958.2 3153.77C2972.12 3165.63 2991 3172.29 3010.69 3172.29H3318.23V3687.03H3010.69C2991 3687.03 2972.12 3693.69 2958.2 3705.54C2944.27 3717.4 2936.45 3733.47 2936.45 3750.24C2936.45 3767.01 2944.27 3783.08 2958.2 3794.94C2972.12 3806.79 2991 3813.45 3010.69 3813.45H5524.03C5533.78 3813.46 5543.45 3811.83 5552.46 3808.66C5561.48 3805.49 5569.67 3800.83 5576.57 3794.96C5583.47 3789.09 5588.95 3782.12 5592.68 3774.45C5596.42 3766.77 5598.34 3758.55 5598.34 3750.24C5598.34 3741.93 5596.42 3733.71 5592.68 3726.03C5588.95 3718.36 5583.47 3711.39 5576.57 3705.52C5569.67 3699.65 5561.48 3694.99 5552.46 3691.82C5543.45 3688.65 5533.78 3687.02 5524.03 3687.03ZM3466.69 3687.03V3172.29H5015V3687.03H3466.69Z" fill="#CCCCCC"/>
<path d="M5465.64 4353.49C5281.22 4353.49 5109.22 4343.34 4981.33 4324.92C4823.57 4302.19 4746.87 4269.17 4746.87 4223.96L4746.96 4222.54L5023.87 2427.04L4885.23 2088.62C4878.58 2072.7 4876.58 2055.64 4879.42 2038.91C4882.26 2022.19 4889.85 2006.3 4901.53 1992.64C4912.93 1978.76 4928.19 1967.5 4945.94 1959.85C4963.69 1952.21 4983.38 1948.42 5003.27 1948.82L5921.3 1956.97C5940.76 1957.14 5959.89 1961.22 5977.14 1968.89C5994.4 1976.56 6009.28 1987.59 6020.57 2001.08C6031.87 2014.57 6039.26 2030.15 6042.14 2046.54C6045.03 2062.92 6043.32 2079.66 6037.17 2095.38L5907.39 2426.92L6184.35 4222.57V4223.26C6184.38 4272 6097.55 4306.61 5918.91 4329.06C5743.41 4351.11 5543.46 4353.49 5465.64 4353.49Z" fill="#F2F2F2"/>
<path d="M5465.64 4353.49C5281.22 4353.49 5109.22 4343.34 4981.33 4324.92C4823.57 4302.19 4746.87 4269.17 4746.87 4223.96L4746.96 4222.54L5023.87 2427.04L4885.23 2088.62C4878.58 2072.7 4876.58 2055.64 4879.42 2038.91C4882.26 2022.19 4889.85 2006.3 4901.53 1992.64C4912.93 1978.76 4928.19 1967.5 4945.94 1959.85C4963.69 1952.21 4983.38 1948.42 5003.27 1948.82L5921.3 1956.97C5940.76 1957.14 5959.89 1961.22 5977.14 1968.89C5994.4 1976.56 6009.28 1987.59 6020.57 2001.08C6031.87 2014.57 6039.26 2030.15 6042.14 2046.54C6045.03 2062.92 6043.32 2079.66 6037.17 2095.38L5907.39 2426.92L6184.35 4222.57V4223.26C6184.38 4272 6097.55 4306.61 5918.91 4329.06C5743.41 4351.11 5543.46 4353.49 5465.64 4353.49ZM5000.73 1970.28C4985.28 1970.27 4970.06 1973.43 4956.35 1979.51C4942.64 1985.58 4930.86 1994.38 4922.01 2005.17C4912.72 2016.04 4906.68 2028.68 4904.42 2041.99C4902.16 2055.3 4903.75 2068.88 4909.05 2081.54L5049.65 2424.78L5049.26 2427.31L4772.04 4224.67C4772.09 4242.27 4799.82 4276.99 4985.54 4303.73C5112.08 4321.97 5282.58 4332.01 5465.64 4332.01C5626.55 4332.01 5794.62 4322.96 5915.23 4307.81C6069.3 4288.45 6158.05 4257.9 6159.12 4223.91L5881.63 2424.82L6013.24 2088.59C6018.14 2076.08 6019.49 2062.76 6017.2 2049.72C6014.9 2036.68 6009.02 2024.29 6000.03 2013.55C5991.05 2002.81 5979.21 1994.04 5965.48 1987.93C5951.75 1981.83 5936.52 1978.58 5921.04 1978.44L5002.87 1970.3C5002.15 1970.28 5001.44 1970.28 5000.73 1970.28Z" fill="#3F3D56"/>
<path opacity="0.5" d="M5988.96 4004.28H4942.33L5108.24 3048.91L5112.76 3022.58L5181.88 2624.86C5186.1 2600.6 5218.9 2619.44 5242.09 2604.89C5386.08 2514.6 5531.79 2511.98 5678.77 2599.01C5701.49 2612.46 5732.87 2596.72 5737.11 2620L5809.72 3018.93L5816.74 3057.52L5988.96 4004.28Z" fill="url(#paint6_linear_190_153)"/>
<path d="M5859.78 4138.06H5070.39C5049.69 4138.06 5029.24 4134.26 5010.42 4126.92C4991.61 4119.59 4974.87 4108.88 4961.35 4095.54C4947.83 4082.2 4937.84 4066.53 4932.07 4049.61C4926.3 4032.68 4924.89 4014.9 4927.91 3997.47L5158.55 2669.38C5159.74 2662.59 5163.02 2656.19 5168.05 2650.82C5173.08 2645.46 5179.68 2641.32 5187.19 2638.82C5194.71 2636.33 5202.86 2635.57 5210.83 2636.62C5218.79 2637.67 5226.29 2640.5 5232.57 2644.81C5373.13 2740.7 5526.33 2738.54 5687.89 2638.43C5694.16 2634.53 5701.5 2632.07 5709.21 2631.31C5716.92 2630.55 5724.73 2631.49 5731.88 2634.06C5739.18 2636.61 5745.58 2640.73 5750.45 2646.02C5755.32 2651.3 5758.51 2657.57 5759.69 2664.21L6002.11 3996.64C6005.29 4014.12 6003.99 4031.99 5998.3 4049C5992.61 4066.02 5982.66 4081.79 5969.14 4095.22C5955.62 4108.66 5938.84 4119.44 5919.97 4126.83C5901.09 4134.23 5880.56 4138.06 5859.78 4138.06Z" fill="url(#paint7_linear_190_153)"/>
<path d="M5542.14 3982.36H5093.64V4003.83H5542.14V3982.36Z" fill="white"/>
<path d="M5542.14 3853.5H5093.64V3874.98H5542.14V3853.5Z" fill="white"/>
<path d="M5542.14 3724.64H5093.64V3746.12H5542.14V3724.64Z" fill="white"/>
<path d="M5542.14 3595.79H5093.64V3617.27H5542.14V3595.79Z" fill="white"/>
<path d="M5542.14 3466.93H5093.64V3488.41H5542.14V3466.93Z" fill="white"/>
<path d="M5837.89 3128.9C5803.1 3158.31 5761.26 3180.97 5715.22 3195.32C5669.18 3209.66 5620.05 3215.36 5571.19 3212.01C5515.45 3207.72 5464.63 3190 5415.7 3167.66C5365.14 3144.58 5316.21 3116.98 5260.22 3104.09C5211.17 3092.82 5153.04 3091.32 5110.92 3119.23C5107.48 3121.51 5103.27 3122.78 5098.92 3122.88C5094.57 3122.98 5090.29 3121.89 5086.71 3119.77L5091.5 3091.85C5138.41 3063.93 5195.41 3059.64 5251.27 3069.19C5363.75 3088.52 5449.12 3167.77 5564.38 3179.15C5614.09 3183.92 5664.42 3178.09 5710.84 3162.2C5757.26 3146.31 5798.32 3120.84 5830.32 3088.09L5830.45 3087.99L5837.89 3128.9Z" fill="white"/>
<path d="M5755.51 1581.73C5784.07 1581.73 5807.23 1562.01 5807.23 1537.69C5807.23 1513.36 5784.07 1493.64 5755.51 1493.64C5726.94 1493.64 5703.78 1513.36 5703.78 1537.69C5703.78 1562.01 5726.94 1581.73 5755.51 1581.73Z" fill="url(#paint8_linear_190_153)"/>
<path d="M5479.64 1897.4C5508.2 1897.4 5531.36 1877.68 5531.36 1853.36C5531.36 1829.03 5508.2 1809.31 5479.64 1809.31C5451.07 1809.31 5427.91 1829.03 5427.91 1853.36C5427.91 1877.68 5451.07 1897.4 5479.64 1897.4Z" fill="url(#paint9_linear_190_153)"/>
<path d="M3332.69 3528.99H3144.1V3538.02H3332.69V3528.99Z" fill="#CCCCCC"/>
<path d="M3332.69 3474.81H3144.1V3483.84H3332.69V3474.81Z" fill="#CCCCCC"/>
<path d="M3332.69 3420.62H3144.1V3429.66H3332.69V3420.62Z" fill="#CCCCCC"/>
<path d="M3332.69 3366.44H3144.1V3375.47H3332.69V3366.44Z" fill="#CCCCCC"/>
<path d="M3332.69 3312.26H3144.1V3321.29H3332.69V3312.26Z" fill="#CCCCCC"/>
</g>
<defs>
<linearGradient id="paint0_linear_190_153" x1="2731.39" y1="1802.3" x2="2731.39" y2="1872.67" gradientUnits="userSpaceOnUse">
<stop stop-color="#24C6DC"/>
<stop offset="1" stop-color="#514A9D"/>
</linearGradient>
<linearGradient id="paint1_linear_190_153" x1="3071.85" y1="784.855" x2="3071.85" y2="1616.76" gradientUnits="userSpaceOnUse">
<stop stop-color="#24C6DC"/>
<stop offset="1" stop-color="#514A9D"/>
</linearGradient>
<linearGradient id="paint2_linear_190_153" x1="2301.95" y1="2556.67" x2="2408.85" y2="2593.05" gradientUnits="userSpaceOnUse">
<stop stop-color="#24C6DC"/>
<stop offset="1" stop-color="#514A9D"/>
</linearGradient>
<linearGradient id="paint3_linear_190_153" x1="1455.87" y1="1945.52" x2="1455.87" y2="2855.9" gradientUnits="userSpaceOnUse">
<stop stop-color="#24C6DC"/>
<stop offset="1" stop-color="#514A9D"/>
</linearGradient>
<linearGradient id="paint4_linear_190_153" x1="1695.37" y1="1705.04" x2="1695.37" y2="2398.97" gradientUnits="userSpaceOnUse">
<stop stop-color="#24C6DC"/>
<stop offset="1" stop-color="#514A9D"/>
</linearGradient>
<linearGradient id="paint5_linear_190_153" x1="2065.39" y1="1842.46" x2="2065.39" y2="2895.58" gradientUnits="userSpaceOnUse">
<stop stop-color="#24C6DC"/>
<stop offset="1" stop-color="#514A9D"/>
</linearGradient>
<linearGradient id="paint6_linear_190_153" x1="5465.64" y1="2535.42" x2="5465.64" y2="4004.28" gradientUnits="userSpaceOnUse">
<stop stop-color="#24C6DC"/>
<stop offset="1" stop-color="#514A9D"/>
</linearGradient>
<linearGradient id="paint7_linear_190_153" x1="5465.09" y1="2631.05" x2="5465.09" y2="4138.06" gradientUnits="userSpaceOnUse">
<stop stop-color="#24C6DC"/>
<stop offset="1" stop-color="#514A9D"/>
</linearGradient>
<linearGradient id="paint8_linear_190_153" x1="5755.51" y1="1493.64" x2="5755.51" y2="1581.73" gradientUnits="userSpaceOnUse">
<stop stop-color="#24C6DC"/>
<stop offset="1" stop-color="#514A9D"/>
</linearGradient>
<linearGradient id="paint9_linear_190_153" x1="5479.64" y1="1809.31" x2="5479.64" y2="1897.4" gradientUnits="userSpaceOnUse">
<stop stop-color="#24C6DC"/>
<stop offset="1" stop-color="#514A9D"/>
</linearGradient>
<clipPath id="clip0_190_153">
<rect width="5498" height="3985" fill="white" transform="translate(988.93 526.961)"/>
</clipPath>
</defs>
</svg>
