<svg width="7476" height="5039" viewBox="0 0 7476 5039" fill="none" xmlns="http://www.w3.org/2000/svg">
<rect opacity="0.5" width="7475.86" height="4798.38" rx="383" fill="white"/>
<g clip-path="url(#clip0_190_102)">
<path d="M2671.72 2375H1964.01V3223.17H2671.72V2375Z" fill="#CCCCCC"/>
<path d="M1603.72 4498.87H1243.43L1204.83 4167.88H1642.32L1603.72 4498.87Z" fill="#E6E6E6"/>
<path d="M2327.2 4259.13L2315.04 4437.28C2314.49 4445.34 2315.55 4453.44 2318.16 4461.02C2320.77 4468.61 2324.86 4475.51 2330.16 4481.26C2335.46 4487.02 2341.85 4491.49 2348.9 4494.38C2355.94 4497.27 2363.48 4498.51 2371.01 4498.02L2456.39 4492.48C2460.34 4492.22 2464.2 4491.03 2467.68 4489C2471.16 4486.97 2474.17 4484.14 2476.52 4480.71C2478.86 4477.28 2480.47 4473.35 2481.23 4469.18C2482 4465.01 2481.9 4460.71 2480.93 4456.59L2433.54 4253.43L2327.2 4259.13Z" fill="#E6E6E6"/>
<path d="M3041.31 4364.47C3141.79 4389.67 3213.57 4425.47 3260.72 4473.94C3277.52 4491.06 3299.49 4501.16 3322.64 4502.38C3352.21 4504.05 3376.39 4500.5 3394.57 4491.8C3399.22 4489.6 3403.24 4486.11 3406.21 4481.68C3409.18 4477.25 3410.99 4472.05 3411.46 4466.62C3412.01 4461.11 3411.17 4455.54 3409.03 4450.48C3406.9 4445.43 3403.54 4441.08 3399.31 4437.89L3161 4256.16L3059.78 4299.56L3036.17 4324.87C3033.61 4327.61 3031.68 4330.95 3030.53 4334.62C3029.38 4338.3 3029.05 4342.21 3029.54 4346.04C3030.04 4349.88 3031.37 4353.54 3033.41 4356.74C3035.45 4359.94 3038.16 4362.59 3041.31 4364.47Z" fill="#E6E6E6"/>
<path d="M2732.09 1455.77L2050.93 1449.01C2052.64 1342.67 2075.73 1238.25 2126.19 1144.81C2159.32 1083.45 2158.61 1016.66 2150.62 960.394C2138.3 873.563 2166.96 784.722 2230.64 729.449C2279.31 687.134 2340.73 665.352 2403.34 668.206L2416.56 668.796C2459.65 670.715 2501.59 684.204 2538.54 708.024C2575.49 731.844 2606.27 765.232 2628.04 805.123C2650.18 847.708 2659.1 896.732 2653.53 945.111C2649.21 990.631 2659.54 1036.62 2683.71 1083.04C2725.4 1184.97 2734.43 1315.41 2732.09 1455.77Z" fill="#2F2E41"/>
<path d="M3187.83 4265.64L3054.14 4303.02L2403.15 2782.96L2443.84 4265.64H2310.15C2167.3 3568.08 1909.39 2763.02 2025.34 2508.85L2717.02 2465.24L3187.83 4265.64Z" fill="url(#paint0_linear_190_102)"/>
<path d="M2397.34 1200.61C2496.85 1200.61 2577.52 1114.14 2577.52 1007.49C2577.52 900.827 2496.85 814.363 2397.34 814.363C2297.83 814.363 2217.15 900.827 2217.15 1007.49C2217.15 1114.14 2297.83 1200.61 2397.34 1200.61Z" fill="#FFB9B9"/>
<path d="M2554.27 1362.58L2257.84 1343.89C2286.89 1272.42 2298.5 1203.61 2286.9 1138.31H2507.78C2507.27 1188.44 2530.55 1275.17 2554.27 1362.58Z" fill="#FFB9B9"/>
<path d="M2740.27 2521.31L2089.29 2571.15L2156.13 1334.54L2269.47 1300.28L2397.34 1331.43L2525.21 1262.9L2606.58 1294.05L2740.27 2521.31Z" fill="url(#paint1_linear_190_102)"/>
<path d="M2199.72 3412.16L1755.07 3303.14C1887.29 2833.21 2125.48 1758.15 2048.6 1375.04L2281.09 1262.9L2199.72 3412.16Z" fill="#E6E6E6"/>
<path d="M1984.66 2054.08L1816.1 1941.95L1959.85 1490.7C1975.88 1444.13 2006.59 1405.04 2046.67 1380.17L2095.09 1350.12L2066.03 1804.89L1984.66 2054.08Z" fill="#E6E6E6"/>
<path d="M3126.8 3309.37C2986.45 3396.4 2635.65 3444.91 2481.62 3384.13C2470.28 2959.54 2448.06 1758.55 2519.4 1250.45L2775.15 1362.58L2751.9 1698.99C2629.63 1986.76 2984.67 2989.09 3126.8 3309.37Z" fill="#E6E6E6"/>
<path d="M3106.45 1998.02L2949.51 1941.95L2740.27 1686.52L2775.15 1362.58L3123.89 1885.88L3106.45 1998.02Z" fill="#E6E6E6"/>
<path d="M2614.62 2240.49C2617.19 2252.57 2624.12 2263.06 2633.9 2269.67C2643.67 2276.28 2655.49 2278.46 2666.77 2275.75L2799.98 2243.41L2780.73 2152.27L2647.51 2184.6C2636.24 2187.34 2626.44 2194.77 2620.27 2205.25C2614.1 2215.73 2612.07 2228.41 2614.62 2240.49Z" fill="#FFB9B9"/>
<path d="M2554.27 957.645C2454.19 913.537 2355.35 910.345 2257.84 951.415L2217.15 795.672H2589.15L2554.27 957.645Z" fill="#2F2E41"/>
<path d="M2734.46 2135.07L2810.02 2284.58C2937.11 2246.59 3047.26 2126.82 3152.95 1985.55L3123.89 1885.88L2943.71 1935.71L2734.46 2135.07Z" fill="#E6E6E6"/>
<path d="M2679.24 1826.69H2655.99C2655.99 1474.25 2588.28 1228.64 2522.3 1228.64L2516.49 1203.72C2575.66 1203.72 2613.39 1305.94 2634.61 1391.7C2663.39 1507.95 2679.24 1662.44 2679.24 1826.69Z" fill="#3F3D56"/>
<path d="M2144.5 1739.48H2121.25C2121.25 1416.7 2189.42 1216.18 2289.81 1216.18L2284 1241.1C2214.56 1241.1 2144.5 1395.2 2144.5 1739.48Z" fill="#3F3D56"/>
<path d="M2667.62 1895.22C2699.72 1895.22 2725.74 1867.33 2725.74 1832.92C2725.74 1798.52 2699.72 1770.63 2667.62 1770.63C2635.52 1770.63 2609.49 1798.52 2609.49 1832.92C2609.49 1867.33 2635.52 1895.22 2667.62 1895.22Z" fill="#3F3D56"/>
<path d="M2051.5 1888.99H2028.25C2028.25 1799.68 2075.18 1727.02 2132.87 1727.02V1751.94C2088 1751.94 2051.5 1813.42 2051.5 1888.99Z" fill="#3F3D56"/>
<path d="M2237.5 1888.99H2214.25C2214.25 1813.42 2177.75 1751.94 2132.88 1751.94V1727.02C2190.56 1727.02 2237.5 1799.68 2237.5 1888.99Z" fill="#3F3D56"/>
<path d="M2225.87 1920.14C2238.71 1920.14 2249.12 1908.98 2249.12 1895.22C2249.12 1881.46 2238.71 1870.3 2225.87 1870.3C2213.03 1870.3 2202.62 1881.46 2202.62 1895.22C2202.62 1908.98 2213.03 1920.14 2225.87 1920.14Z" fill="#3F3D56"/>
<path d="M2039.88 1920.14C2052.72 1920.14 2063.13 1908.98 2063.13 1895.22C2063.13 1881.46 2052.72 1870.3 2039.88 1870.3C2027.04 1870.3 2016.63 1881.46 2016.63 1895.22C2016.63 1908.98 2027.04 1920.14 2039.88 1920.14Z" fill="#3F3D56"/>
<path d="M1749.25 1666.08L1894.32 1693.84L2225.87 2199.13L2049.73 2154.71L1749.25 1666.08Z" fill="url(#paint2_linear_190_102)"/>
<path d="M1723.53 1659.89C1721.31 1659.93 1719.15 1660.6 1717.27 1661.84C1715.38 1663.07 1713.84 1664.83 1712.81 1666.92C1711.77 1669.02 1711.28 1671.37 1711.39 1673.74C1711.49 1676.1 1712.19 1678.4 1713.4 1680.38L2023.32 2184.37C2025.05 2187.19 2027.72 2189.19 2030.79 2189.96L2174.99 2226.32C2177.42 2226.93 2179.96 2226.74 2182.29 2225.77C2184.62 2224.79 2186.61 2223.08 2188.01 2220.86C2189.41 2218.65 2190.15 2216.02 2190.12 2213.35C2190.1 2210.67 2189.32 2208.06 2187.88 2205.88L1847.61 1687.31C1846.68 1685.89 1845.51 1684.69 1844.15 1683.76C1842.8 1682.84 1841.28 1682.21 1839.7 1681.91L1725.85 1660.12C1725.08 1659.97 1724.3 1659.89 1723.53 1659.89Z" fill="#3F3D56"/>
<path d="M1916.86 2020.24L1925.47 2113.23L2061.39 2098.77C2072.9 2097.54 2083.48 2091.47 2090.8 2081.89C2098.13 2072.3 2101.61 2059.99 2100.47 2047.66C2099.32 2035.33 2093.66 2023.99 2084.72 2016.13C2075.77 2008.28 2064.29 2004.55 2052.78 2005.78L1916.86 2020.24Z" fill="#FFB9B9"/>
<path d="M1798.66 2009.47C1798.86 2041.18 1810.74 2071.51 1831.72 2093.87C1852.7 2116.23 1881.07 2128.8 1910.65 2128.84H1933L1949.27 1983.51L1814.55 1931.52L1798.66 2009.47Z" fill="#E6E6E6"/>
<path d="M6486.93 526.957H3836.23V2023.32H6486.93V526.957Z" fill="#E6E6E6"/>
<path d="M3913.44 1940.58H6409.73V609.707H3913.44V1940.58Z" fill="white"/>
<path d="M4994.3 802.785H4106.45V1754.39H4994.3V802.785Z" fill="#3F3D56"/>
<path d="M4781.99 1237.21C4796.2 1237.21 4807.73 1224.86 4807.73 1209.63C4807.73 1194.4 4796.2 1182.05 4781.99 1182.05C4767.78 1182.05 4756.26 1194.4 4756.26 1209.63C4756.26 1224.86 4767.78 1237.21 4781.99 1237.21Z" fill="url(#paint3_linear_190_102)"/>
<path d="M4685.48 1140.67C4699.7 1140.67 4711.22 1128.32 4711.22 1113.09C4711.22 1097.86 4699.7 1085.51 4685.48 1085.51C4671.27 1085.51 4659.75 1097.86 4659.75 1113.09C4659.75 1128.32 4671.27 1140.67 4685.48 1140.67Z" fill="url(#paint4_linear_190_102)"/>
<path d="M4672.62 1209.63C4663.15 1209.63 4653.86 1212.45 4645.8 1217.77C4638.7 1206.33 4630.35 1195.83 4620.94 1186.49C4621.05 1185.02 4621.15 1183.55 4621.15 1182.05C4621.15 1171.22 4618.19 1160.64 4612.62 1151.61C4607.05 1142.58 4599.12 1135.51 4589.83 1131.27C4580.54 1127.04 4570.28 1125.83 4560.35 1127.8C4550.42 1129.77 4541.26 1134.83 4533.99 1142.35C4520.21 1140.25 4506.23 1140.12 4492.41 1141.96C4492.42 1141.53 4492.47 1141.11 4492.47 1140.67C4492.48 1131.44 4490.33 1122.35 4486.21 1114.24C4482.1 1106.13 4476.15 1099.25 4468.91 1094.25C4461.67 1089.24 4453.37 1086.26 4444.78 1085.59C4436.19 1084.91 4427.57 1086.55 4419.73 1090.37C4411.88 1094.19 4405.06 1100.05 4399.88 1107.43C4394.7 1114.81 4391.33 1123.46 4390.08 1132.6C4388.83 1141.73 4389.74 1151.06 4392.72 1159.72C4395.71 1168.38 4400.67 1176.1 4407.16 1182.17C4398.55 1190.08 4390.73 1198.94 4383.85 1208.61C4377.49 1202.94 4369.96 1199 4361.88 1197.11C4353.81 1195.22 4345.43 1195.45 4337.45 1197.77C4329.48 1200.09 4322.14 1204.43 4316.06 1210.43C4309.98 1216.44 4305.34 1223.92 4302.53 1232.25C4299.72 1240.58 4298.82 1249.51 4299.91 1258.29C4301 1267.07 4304.05 1275.44 4308.8 1282.7C4313.55 1289.95 4319.85 1295.87 4327.19 1299.95C4334.52 1304.04 4342.66 1306.17 4350.93 1306.17L4351.09 1306.16C4351.01 1308.45 4350.93 1310.75 4350.93 1313.06C4350.93 1326.94 4352.49 1340.77 4355.59 1354.25C4340.29 1360.42 4326.7 1370.66 4316.11 1383.99C4305.51 1397.33 4298.25 1413.33 4295.01 1430.5C4291.77 1447.67 4292.65 1465.44 4297.57 1482.15C4302.49 1498.85 4311.29 1513.94 4323.14 1526C4334.99 1538.07 4349.51 1546.7 4365.33 1551.1C4381.15 1555.5 4397.75 1555.52 4413.58 1551.16C4429.41 1546.79 4443.95 1538.19 4455.82 1526.16C4467.7 1514.13 4476.53 1499.05 4481.49 1482.36C4517.29 1489.74 4554.37 1483.84 4586.63 1465.64C4589.92 1473.96 4595.07 1481.28 4601.62 1486.96C4608.17 1492.64 4615.92 1496.51 4624.19 1498.24C4632.46 1499.96 4641 1499.48 4649.06 1496.84C4657.12 1494.2 4664.45 1489.47 4670.41 1483.09C4676.37 1476.7 4680.77 1468.85 4683.23 1460.21C4685.7 1451.57 4686.15 1442.42 4684.54 1433.56C4682.93 1424.69 4679.32 1416.38 4674.02 1409.36C4668.72 1402.34 4661.89 1396.83 4654.13 1393.3C4665.28 1370.62 4671.54 1345.56 4672.45 1319.95L4672.62 1319.96C4686.27 1319.96 4699.36 1314.15 4709.01 1303.8C4718.66 1293.46 4724.09 1279.43 4724.09 1264.79C4724.09 1250.16 4718.66 1236.13 4709.01 1225.79C4699.36 1215.44 4686.27 1209.63 4672.62 1209.63Z" fill="url(#paint5_linear_190_102)"/>
<path d="M4659.75 782.098H4402.4V823.472H4659.75V782.098Z" fill="#E6E6E6"/>
<path d="M6126.64 802.785H5238.79V1754.39H6126.64V802.785Z" fill="#3F3D56"/>
<path d="M5851.28 1448.22C5857.68 1448.22 5862.86 1442.67 5862.86 1435.81C5862.86 1428.96 5857.68 1423.4 5851.28 1423.4C5844.88 1423.4 5839.7 1428.96 5839.7 1435.81C5839.7 1442.67 5844.88 1448.22 5851.28 1448.22Z" fill="url(#paint6_linear_190_102)"/>
<path d="M5807.85 1404.78C5814.25 1404.78 5819.43 1399.22 5819.43 1392.37C5819.43 1385.51 5814.25 1379.95 5807.85 1379.95C5801.46 1379.95 5796.27 1385.51 5796.27 1392.37C5796.27 1399.22 5801.46 1404.78 5807.85 1404.78Z" fill="url(#paint7_linear_190_102)"/>
<path d="M5802.06 1435.81C5797.8 1435.81 5793.62 1437.08 5790 1439.47C5786.8 1434.32 5783.04 1429.6 5778.81 1425.4C5778.86 1424.74 5778.9 1424.07 5778.9 1423.4C5778.9 1418.52 5777.57 1413.76 5775.06 1409.7C5772.56 1405.63 5768.99 1402.45 5764.81 1400.55C5760.63 1398.64 5756.01 1398.1 5751.54 1398.99C5747.08 1399.87 5742.95 1402.15 5739.68 1405.53C5733.48 1404.59 5727.19 1404.53 5720.97 1405.36C5720.97 1405.16 5721 1404.97 5721 1404.78C5721 1400.62 5720.03 1396.53 5718.18 1392.88C5716.33 1389.23 5713.65 1386.14 5710.39 1383.89C5707.13 1381.63 5703.4 1380.29 5699.53 1379.99C5695.67 1379.68 5691.79 1380.42 5688.26 1382.14C5684.73 1383.86 5681.66 1386.5 5679.33 1389.82C5677 1393.14 5675.48 1397.03 5674.92 1401.14C5674.36 1405.25 5674.77 1409.45 5676.11 1413.35C5677.45 1417.25 5679.69 1420.72 5682.61 1423.45C5678.73 1427.01 5675.21 1431 5672.11 1435.35C5669.26 1432.8 5665.87 1431.02 5662.23 1430.17C5658.6 1429.33 5654.83 1429.43 5651.24 1430.47C5647.65 1431.52 5644.35 1433.47 5641.61 1436.17C5638.87 1438.87 5636.79 1442.24 5635.52 1445.99C5634.26 1449.74 5633.85 1453.76 5634.34 1457.71C5634.84 1461.66 5636.21 1465.42 5638.34 1468.69C5640.48 1471.95 5643.32 1474.61 5646.62 1476.45C5649.92 1478.29 5653.58 1479.25 5657.3 1479.25L5657.38 1479.25C5657.34 1480.28 5657.3 1481.31 5657.3 1482.35C5657.3 1488.6 5658.01 1494.82 5659.4 1500.89C5652.51 1503.66 5646.4 1508.27 5641.63 1514.27C5636.87 1520.27 5633.6 1527.48 5632.14 1535.2C5630.68 1542.93 5631.08 1550.92 5633.29 1558.44C5635.5 1565.96 5639.46 1572.75 5644.8 1578.18C5650.13 1583.6 5656.66 1587.49 5663.78 1589.47C5670.9 1591.45 5678.37 1591.46 5685.5 1589.49C5692.62 1587.53 5699.16 1583.66 5704.5 1578.25C5709.85 1572.83 5713.82 1566.05 5716.05 1558.54C5732.16 1561.86 5748.85 1559.2 5763.37 1551.01C5764.85 1554.76 5767.17 1558.05 5770.11 1560.61C5773.06 1563.16 5776.55 1564.91 5780.27 1565.68C5783.99 1566.46 5787.84 1566.24 5791.46 1565.05C5795.09 1563.86 5798.39 1561.74 5801.07 1558.86C5803.75 1555.99 5805.73 1552.46 5806.84 1548.57C5807.95 1544.68 5808.15 1540.56 5807.43 1536.57C5806.7 1532.59 5805.08 1528.85 5802.69 1525.69C5800.31 1522.53 5797.23 1520.05 5793.74 1518.46C5798.76 1508.25 5801.58 1496.98 5801.99 1485.45L5802.06 1485.46C5808.2 1485.46 5814.1 1482.84 5818.44 1478.19C5822.78 1473.53 5825.22 1467.22 5825.22 1460.63C5825.22 1454.05 5822.78 1447.73 5818.44 1443.08C5814.1 1438.42 5808.2 1435.81 5802.06 1435.81Z" fill="url(#paint8_linear_190_102)"/>
<path d="M5942.14 1212.68C5948.53 1212.68 5953.72 1207.12 5953.72 1200.26C5953.72 1193.41 5948.53 1187.85 5942.14 1187.85C5935.74 1187.85 5930.55 1193.41 5930.55 1200.26C5930.55 1207.12 5935.74 1212.68 5942.14 1212.68Z" fill="url(#paint9_linear_190_102)"/>
<path d="M5969.38 1156.1C5975.77 1156.1 5980.96 1150.54 5980.96 1143.69C5980.96 1136.83 5975.77 1131.27 5969.38 1131.27C5962.98 1131.27 5957.8 1136.83 5957.8 1143.69C5957.8 1150.54 5962.98 1156.1 5969.38 1156.1Z" fill="url(#paint10_linear_190_102)"/>
<path d="M5928.79 1149.49C5927.64 1145.09 5925.37 1141.13 5922.23 1138.03C5925.99 1133.34 5929.22 1128.18 5931.84 1122.67C5932.45 1122.55 5933.06 1122.41 5933.66 1122.23C5938.04 1120.91 5941.95 1118.24 5944.92 1114.56C5947.89 1110.87 5949.79 1106.33 5950.36 1101.5C5950.94 1096.66 5950.18 1091.76 5948.17 1087.39C5946.16 1083.02 5943 1079.38 5939.07 1076.92C5938.24 1070.27 5936.59 1063.76 5934.16 1057.57C5934.34 1057.52 5934.51 1057.5 5934.69 1057.44C5938.42 1056.32 5941.83 1054.21 5944.61 1051.31C5947.38 1048.41 5949.43 1044.81 5950.57 1040.84C5951.71 1036.87 5951.91 1032.65 5951.13 1028.58C5950.36 1024.51 5948.64 1020.71 5946.14 1017.54C5943.64 1014.36 5940.44 1011.91 5936.83 1010.4C5933.21 1008.9 5929.31 1008.39 5925.46 1008.92C5921.62 1009.46 5917.96 1011.02 5914.82 1013.46C5911.69 1015.9 5909.17 1019.15 5907.51 1022.9C5903.26 1019.87 5898.73 1017.32 5893.98 1015.3C5895.5 1011.66 5896.17 1007.68 5895.95 1003.7C5895.73 999.724 5894.61 995.861 5892.7 992.441C5890.79 989.02 5888.14 986.143 5884.97 984.053C5881.81 981.963 5878.22 980.721 5874.51 980.432C5870.8 980.144 5867.08 980.817 5863.66 982.395C5860.25 983.973 5857.24 986.409 5854.89 989.498C5852.53 992.587 5850.91 996.237 5850.16 1000.14C5849.4 1004.04 5849.53 1008.08 5850.54 1011.92L5850.56 1012C5849.62 1012.24 5848.69 1012.48 5847.75 1012.76C5842.14 1014.46 5836.74 1016.87 5831.67 1019.95C5827.32 1013.6 5821.52 1008.54 5814.84 1005.25C5808.16 1001.96 5800.8 1000.54 5793.47 1001.13C5786.14 1001.72 5779.06 1004.29 5772.91 1008.61C5766.76 1012.94 5761.73 1018.86 5758.31 1025.84C5754.88 1032.81 5753.16 1040.6 5753.31 1048.48C5753.46 1056.36 5755.48 1064.08 5759.17 1070.89C5762.87 1077.71 5768.12 1083.41 5774.43 1087.45C5780.74 1091.5 5787.91 1093.76 5795.26 1094.02C5796.65 1111.54 5803.55 1128.04 5814.84 1140.8C5811.88 1143.34 5809.55 1146.62 5808.06 1150.36C5806.56 1154.09 5805.94 1158.16 5806.25 1162.21C5806.56 1166.26 5807.8 1170.17 5809.85 1173.59C5811.9 1177.01 5814.7 1179.83 5818.01 1181.82C5821.32 1183.81 5825.03 1184.89 5828.82 1184.98C5832.61 1185.07 5836.37 1184.17 5839.75 1182.34C5843.14 1180.51 5846.06 1177.82 5848.25 1174.5C5850.44 1171.18 5851.83 1167.34 5852.31 1163.31C5862.84 1165.72 5873.73 1165.57 5884.19 1162.87L5884.21 1162.95C5885.03 1166.09 5886.42 1169.02 5888.3 1171.59C5890.18 1174.15 5892.52 1176.29 5895.17 1177.88C5897.83 1179.48 5900.75 1180.5 5903.77 1180.89C5906.79 1181.27 5909.85 1181.01 5912.78 1180.13C5915.71 1179.25 5918.45 1177.75 5920.84 1175.73C5923.23 1173.71 5925.23 1171.21 5926.71 1168.36C5928.2 1165.52 5929.15 1162.39 5929.51 1159.15C5929.86 1155.91 5929.62 1152.63 5928.79 1149.49Z" fill="url(#paint11_linear_190_102)"/>
<path d="M5493.6 1044.01C5499.99 1044.01 5505.18 1038.45 5505.18 1031.6C5505.18 1024.74 5499.99 1019.18 5493.6 1019.18C5487.2 1019.18 5482.02 1024.74 5482.02 1031.6C5482.02 1038.45 5487.2 1044.01 5493.6 1044.01Z" fill="url(#paint12_linear_190_102)"/>
<path d="M5434.38 1049.09C5440.78 1049.09 5445.96 1043.53 5445.96 1036.68C5445.96 1029.82 5440.78 1024.27 5434.38 1024.27C5427.99 1024.27 5422.8 1029.82 5422.8 1036.68C5422.8 1043.53 5427.99 1049.09 5434.38 1049.09Z" fill="url(#paint13_linear_190_102)"/>
<path d="M5460.41 1070.55C5457.54 1073.92 5455.6 1078.09 5454.8 1082.57C5449.1 1081.63 5443.31 1081.42 5437.56 1081.94C5437.14 1081.45 5436.71 1080.97 5436.24 1080.52C5432.89 1077.23 5428.71 1075.07 5424.22 1074.32C5419.73 1073.56 5415.13 1074.24 5411 1076.26C5406.86 1078.29 5403.38 1081.58 5400.98 1085.71C5398.58 1089.85 5397.36 1094.65 5397.49 1099.52C5392.66 1103.79 5388.38 1108.73 5384.75 1114.21C5384.62 1114.07 5384.51 1113.93 5384.37 1113.8C5381.51 1110.99 5378.04 1109 5374.28 1108C5370.51 1107.01 5366.58 1107.04 5362.83 1108.1C5359.08 1109.16 5355.64 1111.22 5352.82 1114.07C5350.01 1116.93 5347.9 1120.49 5346.71 1124.44C5345.51 1128.4 5345.26 1132.61 5345.97 1136.69C5346.69 1140.77 5348.35 1144.6 5350.8 1147.82C5353.26 1151.04 5356.42 1153.54 5360.01 1155.11C5363.61 1156.67 5367.51 1157.24 5371.36 1156.77C5371.2 1162.24 5371.57 1167.71 5372.48 1173.1C5368.8 1173.64 5365.29 1175.13 5362.25 1177.43C5359.22 1179.74 5356.75 1182.79 5355.04 1186.34C5353.34 1189.88 5352.46 1193.81 5352.48 1197.8C5352.5 1201.79 5353.41 1205.71 5355.14 1209.24C5356.87 1212.77 5359.37 1215.8 5362.42 1218.07C5365.47 1220.35 5369 1221.8 5372.68 1222.31C5376.37 1222.82 5380.12 1222.37 5383.61 1221C5387.11 1219.62 5390.24 1217.37 5392.74 1214.42L5392.79 1214.36C5393.48 1215.09 5394.16 1215.81 5394.88 1216.52C5399.19 1220.73 5403.95 1224.37 5409.07 1227.36C5406.34 1234.68 5405.39 1242.62 5406.31 1250.44C5407.23 1258.26 5409.99 1265.7 5414.33 1272.07C5418.67 1278.43 5424.45 1283.51 5431.12 1286.82C5437.79 1290.14 5445.14 1291.58 5452.48 1291.02C5459.81 1290.46 5466.9 1287.91 5473.06 1283.61C5479.22 1279.31 5484.27 1273.4 5487.72 1266.44C5491.17 1259.48 5492.91 1251.69 5492.78 1243.81C5492.66 1235.93 5490.66 1228.21 5486.99 1221.38C5500.14 1210.86 5509.56 1195.87 5513.71 1178.85C5517.28 1180.2 5521.11 1180.59 5524.86 1179.98C5528.61 1179.37 5532.16 1177.79 5535.21 1175.36C5538.25 1172.94 5540.69 1169.75 5542.32 1166.08C5543.95 1162.41 5544.71 1158.37 5544.53 1154.31C5544.36 1150.25 5543.26 1146.29 5541.33 1142.8C5539.4 1139.3 5536.7 1136.36 5533.46 1134.24C5530.23 1132.13 5526.55 1130.89 5522.77 1130.65C5518.98 1130.41 5515.2 1131.17 5511.75 1132.86C5508.1 1122.01 5502.23 1112.18 5494.57 1104.08L5494.62 1104.03C5496.68 1101.62 5498.27 1098.8 5499.31 1095.73C5500.35 1092.67 5500.81 1089.41 5500.68 1086.15C5500.54 1082.89 5499.81 1079.69 5498.52 1076.74C5497.23 1073.78 5495.4 1071.13 5493.16 1068.93C5490.91 1066.73 5488.28 1065.03 5485.41 1063.92C5482.55 1062.81 5479.51 1062.31 5476.47 1062.46C5473.43 1062.61 5470.45 1063.41 5467.69 1064.79C5464.93 1066.18 5462.46 1068.14 5460.41 1070.55Z" fill="url(#paint14_linear_190_102)"/>
<path d="M5792.09 782.098H5534.74V823.472H5792.09V782.098Z" fill="#E6E6E6"/>
<path d="M1150.91 4045.43C1243.68 4178.6 1436.26 4192.61 1436.26 4192.61C1436.26 4192.61 1478.43 3990.73 1385.65 3857.57C1292.88 3724.4 1100.3 3710.39 1100.3 3710.39C1100.3 3710.39 1058.14 3912.27 1150.91 4045.43Z" fill="url(#paint15_linear_190_102)"/>
<path d="M1623.51 4095.49C1562.3 4183.36 1435.22 4192.61 1435.22 4192.61C1435.22 4192.61 1407.4 4059.4 1468.62 3971.53C1529.83 3883.66 1656.91 3874.41 1656.91 3874.41C1656.91 3874.41 1684.73 4007.62 1623.51 4095.49Z" fill="url(#paint16_linear_190_102)"/>
<path d="M4331.63 4496.51H988.934V4511.96H4331.63V4496.51Z" fill="#3F3D56"/>
</g>
<defs>
<linearGradient id="paint0_linear_190_102" x1="2592.01" y1="2465.24" x2="2592.01" y2="4303.02" gradientUnits="userSpaceOnUse">
<stop stop-color="#92C36A"/>
<stop offset="1" stop-color="#00A79D"/>
</linearGradient>
<linearGradient id="paint1_linear_190_102" x1="2414.78" y1="1262.9" x2="2414.78" y2="2571.15" gradientUnits="userSpaceOnUse">
<stop stop-color="#92C36A"/>
<stop offset="1" stop-color="#00A79D"/>
</linearGradient>
<linearGradient id="paint2_linear_190_102" x1="1987.56" y1="1666.08" x2="1987.56" y2="2199.13" gradientUnits="userSpaceOnUse">
<stop stop-color="#92C36A"/>
<stop offset="1" stop-color="#00A79D"/>
</linearGradient>
<linearGradient id="paint3_linear_190_102" x1="4781.99" y1="1182.05" x2="4781.99" y2="1237.21" gradientUnits="userSpaceOnUse">
<stop stop-color="#92C36A"/>
<stop offset="1" stop-color="#00A79D"/>
</linearGradient>
<linearGradient id="paint4_linear_190_102" x1="4685.48" y1="1085.51" x2="4685.48" y2="1140.67" gradientUnits="userSpaceOnUse">
<stop stop-color="#92C36A"/>
<stop offset="1" stop-color="#00A79D"/>
</linearGradient>
<linearGradient id="paint5_linear_190_102" x1="4508.59" y1="1085.44" x2="4508.59" y2="1554.41" gradientUnits="userSpaceOnUse">
<stop stop-color="#92C36A"/>
<stop offset="1" stop-color="#00A79D"/>
</linearGradient>
<linearGradient id="paint6_linear_190_102" x1="5851.28" y1="1423.4" x2="5851.28" y2="1448.22" gradientUnits="userSpaceOnUse">
<stop stop-color="#92C36A"/>
<stop offset="1" stop-color="#00A79D"/>
</linearGradient>
<linearGradient id="paint7_linear_190_102" x1="5807.85" y1="1379.95" x2="5807.85" y2="1404.78" gradientUnits="userSpaceOnUse">
<stop stop-color="#92C36A"/>
<stop offset="1" stop-color="#00A79D"/>
</linearGradient>
<linearGradient id="paint8_linear_190_102" x1="5728.25" y1="1379.92" x2="5728.25" y2="1590.96" gradientUnits="userSpaceOnUse">
<stop stop-color="#92C36A"/>
<stop offset="1" stop-color="#00A79D"/>
</linearGradient>
<linearGradient id="paint9_linear_190_102" x1="5942.14" y1="1187.85" x2="5942.14" y2="1212.68" gradientUnits="userSpaceOnUse">
<stop stop-color="#92C36A"/>
<stop offset="1" stop-color="#00A79D"/>
</linearGradient>
<linearGradient id="paint10_linear_190_102" x1="5969.38" y1="1131.27" x2="5969.38" y2="1156.1" gradientUnits="userSpaceOnUse">
<stop stop-color="#92C36A"/>
<stop offset="1" stop-color="#00A79D"/>
</linearGradient>
<linearGradient id="paint11_linear_190_102" x1="5852.45" y1="980.367" x2="5852.45" y2="1184.99" gradientUnits="userSpaceOnUse">
<stop stop-color="#92C36A"/>
<stop offset="1" stop-color="#00A79D"/>
</linearGradient>
<linearGradient id="paint12_linear_190_102" x1="5493.6" y1="1019.18" x2="5493.6" y2="1044.01" gradientUnits="userSpaceOnUse">
<stop stop-color="#92C36A"/>
<stop offset="1" stop-color="#00A79D"/>
</linearGradient>
<linearGradient id="paint13_linear_190_102" x1="5434.38" y1="1024.27" x2="5434.38" y2="1049.09" gradientUnits="userSpaceOnUse">
<stop stop-color="#92C36A"/>
<stop offset="1" stop-color="#00A79D"/>
</linearGradient>
<linearGradient id="paint14_linear_190_102" x1="5445.07" y1="1062.44" x2="5445.07" y2="1291.14" gradientUnits="userSpaceOnUse">
<stop stop-color="#92C36A"/>
<stop offset="1" stop-color="#00A79D"/>
</linearGradient>
<linearGradient id="paint15_linear_190_102" x1="1268.28" y1="3710.39" x2="1268.28" y2="4192.61" gradientUnits="userSpaceOnUse">
<stop stop-color="#92C36A"/>
<stop offset="1" stop-color="#00A79D"/>
</linearGradient>
<linearGradient id="paint16_linear_190_102" x1="1546.06" y1="3874.41" x2="1546.06" y2="4192.61" gradientUnits="userSpaceOnUse">
<stop stop-color="#DCF8C6"/>
<stop offset="1" stop-color="#00A79D"/>
</linearGradient>
<clipPath id="clip0_190_102">
<rect width="5498" height="3985" fill="white" transform="translate(988.934 526.957)"/>
</clipPath>
</defs>
</svg>
