<svg width="1597" height="594" viewBox="0 0 1597 594" fill="none" xmlns="http://www.w3.org/2000/svg">
<rect y="0.490234" width="1597" height="593" fill="black"/>
<path d="M798.449 550.543C560.094 550.543 321.736 550.543 83.3552 550.585C80.561 550.585 79.927 550.188 79.927 548.43C79.9974 380.429 79.9974 212.446 79.927 44.4468C79.927 42.6897 80.561 42.291 83.3552 42.291C560.069 42.3353 1036.81 42.3353 1513.52 42.291C1516.32 42.291 1516.95 42.6897 1516.95 44.4468C1516.88 212.431 1516.88 380.429 1516.95 548.416C1516.95 550.171 1516.32 550.571 1513.52 550.571C1275.16 550.543 1036.81 550.543 798.449 550.543Z" fill="black"/>
<path d="M1307.38 315.875C1302.13 312.077 1297.18 308.504 1293.48 303.609C1289.66 298.545 1287.69 293.06 1289.12 286.533C1290.16 281.779 1293 278.712 1296.88 276.181C1305.05 270.807 1314.52 269.541 1323.7 267.403C1337.94 264.056 1352.24 260.877 1366.48 257.501C1368.9 256.938 1371.2 255.813 1373.45 254.688C1377.13 252.831 1377.72 249.483 1376.96 245.882C1376.2 242.31 1373.81 240.256 1370.08 240.003C1369.04 239.919 1368 239.947 1366.96 239.947C1322.49 239.947 1278.03 240.003 1233.59 239.862C1229.88 239.862 1228.93 240.819 1228.93 244.532C1229.04 299.361 1228.95 354.19 1229.1 409.019C1229.1 412.761 1228.25 414.027 1224.49 413.577C1221.37 413.183 1218.34 412.48 1215.47 411.298C1208.67 408.541 1207.21 406.234 1207.21 398.948C1207.21 347.551 1207.16 296.154 1207.3 244.757C1207.3 240.762 1206.31 239.806 1202.38 239.862C1182.83 240.087 1163.28 240.115 1143.76 239.862C1139.63 239.806 1138.96 241.072 1138.96 244.87C1139.07 299.558 1138.96 354.247 1139.18 408.907C1139.21 413.492 1137.47 414.055 1133.9 413.492C1130.95 413.042 1128.11 412.311 1125.39 411.101C1120.11 408.794 1116.79 405.644 1117.35 398.948C1118.03 390.79 1117.19 382.519 1117.58 374.305C1118.65 352.756 1109.01 336.496 1092.97 323.358C1082.24 314.581 1069.77 309.179 1056.51 305.353C1053.56 304.481 1053.73 305.972 1053.73 307.97C1053.76 319.785 1053.87 331.572 1053.7 343.388C1053.56 351.968 1051.48 360.154 1047.27 367.666C1038 384.292 1021.4 389.496 1006.03 387.724C980.221 384.742 960.726 370.507 947.047 348.845C935.727 330.925 942.103 308.392 960.867 295.985C972.215 288.474 984.94 285.38 998.282 284.564C1008.7 283.917 1019.1 284.789 1029.35 286.899C1031.79 287.405 1032.38 286.786 1032.38 284.339C1032.27 270.582 1032.19 256.854 1032.41 243.097C1032.47 239.3 1030.33 239.947 1028.17 239.947C996.85 239.947 965.502 239.778 934.182 240.059C925.137 240.144 921.991 236.711 918.788 227.147C918.199 225.402 918.676 224.221 920.867 224.418C921.906 224.502 922.946 224.446 923.985 224.446C1067.97 224.446 1211.93 224.446 1355.92 224.474C1357.97 224.474 1360.02 224.305 1362.1 225.037C1376.4 230.129 1387.46 239.3 1395.44 252.015C1399.88 259.104 1397.44 265.828 1389.96 270.02C1382.32 274.296 1373.67 275.196 1365.36 277.193C1351.43 280.541 1337.44 283.748 1323.48 287.011C1320.56 287.686 1317.86 288.924 1315.27 290.359C1307.75 294.579 1306.54 304.678 1312.58 310.895C1314.54 312.921 1316.03 311.599 1317.72 310.98C1338.64 303.356 1359.71 301.893 1380.7 310.473C1399.35 318.069 1414.71 329.997 1425.44 347.298C1438.05 367.638 1434.57 386.767 1415.84 401.649C1410.33 406.038 1404.21 409.329 1397.58 411.608C1389.85 414.28 1376.87 406.403 1375.39 398.273C1374.94 395.854 1376.93 396.079 1378.11 395.685C1385.78 393.097 1392.75 389.299 1398.98 384.095C1409.43 375.43 1414.21 364.318 1412.32 350.955C1410.22 336.074 1400.36 327.465 1386.65 323.892C1361.17 317.253 1337.38 322.007 1317.47 339.337C1295.22 358.692 1294.99 390.649 1315.92 411.861C1326.85 422.945 1340.27 430.372 1354.21 436.842C1362.38 440.64 1370.72 444.044 1379.07 447.532C1380.81 448.263 1382.13 448.939 1381.14 451.048C1380.33 452.793 1379.49 454.734 1376.87 453.749C1348.84 443.256 1321.34 431.694 1299.77 409.92C1290.02 400.074 1282.86 388.568 1280.25 374.558C1275.81 350.871 1284.43 330.588 1304.63 317.703C1305.41 317.141 1306.23 316.606 1307.38 315.875Z" fill="#FEFEFE"/>
<path d="M428.989 341.785C428.905 342.066 428.82 342.319 428.736 342.572C426.461 342.46 426.236 340.603 426.096 339.056C425.59 332.726 421.686 328.9 416.742 325.721C413.68 323.752 410.197 322.092 409.691 317.929C409.888 317.225 408.736 317.872 409.326 317.732C409.551 317.675 409.579 317.816 409.495 318.154C408.905 321.192 406.77 323.105 404.354 324.568C398.203 328.253 393.512 332.923 392.416 340.406C392.079 342.769 390.59 343.191 388.512 342.291C386.489 341.419 384.691 341.925 383.343 343.67C381.995 345.386 382.135 347.074 383.062 349.071C385.085 353.375 384.27 354.725 379.748 355.288C377.388 355.569 375 355.513 372.641 355.879C370.927 356.16 369.439 355.851 368.765 354.36C369.692 358.636 369.13 363.362 369.186 368.06C369.242 372.983 369.467 377.906 369.074 382.829C368.765 386.683 367.023 387.387 362.81 385.67C362.781 350.421 362.753 315.172 362.753 279.923C362.753 262.903 362.866 245.855 362.669 228.835C362.641 225.234 363.708 224.334 367.22 224.362C386.321 224.531 405.393 224.531 424.494 224.362C427.921 224.334 429.045 225.093 429.017 228.751C428.82 248.921 429.017 269.092 428.848 289.234C428.82 292.582 429.663 293.454 433.034 293.426C450.927 293.257 468.82 293.229 486.713 293.426C490.168 293.454 490.842 292.441 490.814 289.178C490.674 269.007 490.814 248.837 490.674 228.694C490.646 225.431 491.376 224.334 494.831 224.362C514.213 224.531 533.623 224.475 553.005 224.39C555.617 224.39 557.021 224.672 556.993 227.935C556.853 280.513 556.853 333.092 556.825 385.642C556.179 387.077 555.308 388.315 553.482 388.005C551.769 387.696 551.151 386.289 550.701 384.827C550.477 384.123 550.336 383.364 550.364 382.632C550.645 371.576 548.342 360.549 549.578 349.577C550.196 343.951 549.971 338.718 548.623 333.345C548.145 331.432 547.724 329.35 545.842 328.45C542.583 326.847 542.246 324.062 542.162 320.939C541.994 315.341 541.207 314.553 535.561 314.356C532.78 314.272 530.28 313.653 528.005 312.021C527.275 311.515 526.432 311.149 525.73 310.586C519.662 305.663 513.623 305.748 507.471 310.474C504.213 312.949 500.617 314.497 496.404 314.694C492.949 314.862 490.898 316.803 491.095 320.517C491.292 324.202 490.337 327.156 486.882 329.182C484.634 330.504 484.691 333.289 484.213 335.596C483.061 341.194 482.977 341.25 477.163 341.278C462.556 341.278 447.949 341.278 433.343 341.307C431.882 341.335 430.337 340.856 428.989 341.785Z" fill="#E98B10"/>
<path d="M771.823 352.475C777.16 365.472 782.497 378.441 787.806 391.466C790.587 398.33 793.171 405.279 796.065 412.087C797.16 414.703 796.711 415.491 793.874 415.491C772.694 415.434 751.514 415.406 730.335 415.519C727.835 415.519 726.992 414.365 726.318 412.396C723.706 404.997 720.925 397.655 718.425 390.2C717.526 387.527 716.318 386.515 713.397 386.515C692.807 386.655 672.217 386.627 651.656 386.543C649.015 386.543 647.723 387.302 646.852 389.891C644.409 397.346 641.572 404.688 639.043 412.115C638.201 414.59 636.965 415.519 634.24 415.519C613.51 415.406 592.78 415.491 572.05 415.406C570.757 415.406 567.724 416.588 569.156 413.015C577.33 392.816 585.505 372.646 593.679 352.475C602.808 339.422 613.875 328.619 628.622 322.065C629.577 321.643 630.476 321.08 631.487 320.827C634.493 320.011 635.841 321.108 635.308 324.231C634.633 328.057 633.706 331.826 632.667 335.568C630.111 344.767 628.931 354.163 628.622 362.884C635.616 351.181 639.802 337.34 647.302 325.103C650.757 319.448 654.661 314.187 660.925 311.29C662.92 310.361 664.043 308.617 665.195 306.845C668.032 302.456 670.841 298.04 674.83 294.552C676.796 292.807 678.931 291.401 681.571 293.426C681.993 296.858 680.279 299.784 679.184 302.822C675.335 313.484 671.571 324.146 667.779 334.808C666.122 339.478 666.319 339.647 671.038 339.675C679.212 339.703 687.414 339.619 695.588 339.731C698.397 339.76 698.874 338.916 697.919 336.299C693.425 323.837 689.015 311.318 684.521 298.856C683.818 296.915 682.723 295.03 683.537 292.836C686.375 291.091 688.397 293.061 690.139 294.664C692.667 296.943 695.167 299.39 696.936 302.344C700.026 307.577 704.211 311.684 709.043 315.257C715.11 319.702 719.127 325.694 721.992 332.586C725.728 341.532 729.914 350.253 734.408 358.833C735.475 360.887 736.262 363.025 736.458 364.853C737.61 352.757 734.043 340.885 730.925 328.957C730.279 326.453 728.256 323.359 730.644 321.418C733.172 319.336 735.925 321.924 738.397 323.106C752.413 329.576 763.34 339.647 771.823 352.475Z" fill="#B83E1B"/>
<path d="M139.946 343.473C136.491 325.215 136.435 306.985 141.8 289.121C149.777 262.48 166.378 242.76 192.221 232.323C228.541 217.638 264.889 218.426 299.692 237.105C322.697 249.455 336.321 269.57 342.135 295.057C342.781 297.814 342.248 298.433 339.607 298.433C318.428 298.377 297.248 298.349 276.097 298.461C273.428 298.461 272.585 296.858 271.462 295.057C260.198 277.418 234.552 272.467 218.681 285.323C210.423 291.991 205.957 301.19 205.058 311.908C204.243 321.782 204.384 331.545 208.738 340.772C211.013 348.986 209.721 357.37 209.805 365.669C209.833 367.779 208.85 369.438 206.434 369.635C203.99 369.832 202.474 368.651 201.771 366.372C200.648 362.715 201.21 358.973 201.069 355.26C201.013 354.078 201.238 352.897 200.957 351.772C200.395 355.316 200.114 358.917 200.086 362.574C200.086 364.178 200.114 365.922 198.485 366.991C195.62 365.669 195.985 362.659 195.058 360.324C194.721 353.966 193.429 347.636 193.962 341.222C194.917 339 194.243 337.762 191.743 337.621C187.895 334.667 183.513 335.764 179.3 336.018C177.642 336.102 177.081 337.706 176.322 339.028C174.243 342.741 175.901 348.03 171.322 350.815C170.788 351.153 171.8 352.981 171.996 354.163C172.361 356.301 173.569 358.467 171.631 360.492C166.94 360.549 166.94 356.019 165.058 353.459C164.019 352.081 163.345 350.421 161.8 349.465C158.85 347.636 156.519 345.301 154.693 342.319C153.513 340.378 151.996 338.043 149.103 340.463C148.682 340.828 149.103 340.913 148.766 340.659C144.553 337.706 142.811 342.375 139.946 343.473Z" fill="#E98B10"/>
<path d="M771.823 352.475C770.194 353.544 770.222 351.856 769.745 351.181C761.149 339.056 750.222 329.716 736.739 323.387C735.531 322.824 734.267 322.374 733.059 321.839C730.897 320.911 730.222 321.839 730.728 323.837C732.132 329.294 733.734 334.696 735.11 340.153C737.329 348.846 738.34 357.651 737.61 366.625C737.582 367.132 737.076 367.582 736.936 367.779C729.97 353.01 723.958 337.818 715.756 323.64C713.593 319.927 710.391 317.141 706.88 315.003C699.914 310.756 697.077 303.019 691.543 297.562C689.24 295.283 686.992 293.398 683.931 292.498C682.133 289.685 682.245 293.736 681.122 293.286C674.352 293.201 672.105 299.025 669.015 303.216C665.953 307.352 663.481 311.571 658.538 314.047C652.274 317.198 649.128 323.556 646.066 329.435C640.532 340.097 635.644 351.097 630.588 361.984C629.802 363.672 629.409 365.556 628.425 367.301C627.077 363.306 627.47 359.199 627.836 355.204C628.791 344.823 631.712 334.836 634.015 324.709C634.268 323.612 635.335 322.402 633.987 321.474C633.004 320.799 632.021 321.699 631.066 322.065C616.684 327.663 606.459 338.55 596.431 349.606C595.532 350.59 594.943 351.828 593.65 352.419C603.763 327.156 613.875 301.866 623.987 276.603C630.392 260.596 636.852 244.646 643.144 228.61C644.324 225.6 645.757 224.306 649.212 224.334C671.74 224.503 694.268 224.475 716.795 224.391C719.436 224.391 721.037 224.841 722.161 227.682C738.425 268.614 754.829 309.461 771.177 350.337C771.486 351.012 771.627 351.772 771.823 352.475Z" fill="#E98B10"/>
<path d="M807.75 359.76C807.722 315.903 807.722 272.017 807.61 228.159C807.61 225.177 808.537 224.39 811.43 224.39C831.093 224.502 850.755 224.474 870.446 224.418C872.806 224.418 873.901 224.84 873.873 227.569C873.733 269.794 873.705 312.02 873.648 354.247C869.519 361.673 864.491 368.566 865.137 377.99C865.839 388.371 865.306 398.836 865.278 409.273C865.278 411.326 865.53 413.492 863.901 415.18C862.721 415.208 861.542 415.208 860.362 415.237C858.817 413.633 858.311 411.579 858.255 409.498C857.974 396.107 855.896 382.8 856.429 369.41C856.373 366.878 857.553 364.402 856.823 361.842C856.177 360.661 855.418 359.423 855.334 358.129C854.744 347.157 852.862 336.214 854.351 325.186C854.856 323.414 855.699 321.642 854.772 319.729C852.693 317.647 852.581 314.834 852.356 312.217C851.71 304.678 851.654 297.082 851.514 289.515C851.851 288.587 852.525 287.827 853.031 286.983C853.34 286.28 853.789 285.351 853.199 284.873C849.295 281.582 850.137 277.109 850.165 272.861C850.165 270.02 849.407 267.263 849.435 264.421C850.502 260.342 848.817 256.488 848.452 252.522C848.087 248.527 848.312 244.504 848.312 240.481C848.312 237.724 847.216 236.289 844.351 236.402C842.862 236.458 841.373 236.402 839.885 236.43C837.637 236.458 836.711 237.64 836.654 239.778C836.598 243.041 836.317 246.361 836.682 249.596C837.272 254.434 834.828 258.936 835.475 263.718C836.233 269.176 834.604 274.549 834.632 279.978C834.632 281.497 833.873 282.791 832.806 283.889C831.598 286.027 832.946 287.827 833.536 289.74C834.772 298.039 832.638 306.225 832.806 314.496C832.834 316.353 831.542 317.759 830.615 319.278C830.109 321.22 830.812 323.02 831.177 324.877C831.711 326.902 832.385 329.012 831.739 331.01C829.8 336.946 830.868 343.106 830.418 349.127C830.025 354.134 830.418 359.142 827.469 363.558C827.497 365.584 828.143 367.525 828.368 369.522C829.435 382.435 827.329 395.291 827.581 408.175C827.638 410.651 827.244 413.239 825.418 415.265C824.239 415.265 823.059 415.265 821.879 415.265C820.39 413.689 820.559 411.692 820.587 409.779C820.868 398.189 819.997 386.57 821.233 374.98C821.851 369.325 818.368 364.459 816.57 359.339C815.587 356.553 813.115 359.113 811.458 360.07C810.194 360.745 808.761 363.333 807.75 359.76Z" fill="#E98B10"/>
<path d="M428.989 341.784C430.393 340.096 432.303 340.856 433.989 340.856C448.286 340.8 462.612 340.771 476.91 340.912C480.589 340.94 482.64 340.349 482.893 335.933C483.118 332.191 483.202 327.859 488.539 326.424C490.926 325.777 489.831 322.683 489.691 320.769C489.382 316.493 490.589 313.343 495.252 313.568C501.966 313.905 506.376 309.292 511.657 306.591C515.252 304.762 518.089 304.706 521.628 306.732C527.022 309.826 531.881 314.271 539.072 313.314C542.64 312.836 543.482 316.015 543.454 319.194C543.426 322.542 542.359 326.284 547.415 327.493C549.044 327.887 549.269 330.306 549.774 332.051C550.617 334.976 549.859 338.324 552.134 340.912C552.527 341.362 552.499 342.431 552.302 343.078C547.892 356.582 552.555 370.226 551.656 383.813C551.404 387.611 553.173 388.061 556.769 385.642C556.769 393.716 556.769 401.761 556.769 409.835C555.617 412.142 553.932 412.705 551.656 411.467C549.353 410.229 547.106 410.37 544.943 411.889C544.213 412.395 543.314 412.705 542.415 412.705C534.887 412.733 527.527 414.702 519.943 414.224C516.769 414.027 513.511 414.618 510.336 415.265C505.561 415.265 500.786 414.983 496.039 415.377C491.797 415.715 490.477 414.477 490.533 410.06C490.758 389.018 490.505 367.975 490.758 346.904C490.814 342.516 489.606 341.503 485.337 341.559C466.545 341.84 447.753 341.728 428.989 341.784Z" fill="#B63D1B"/>
<path d="M171.014 360.576C172.643 357.538 170.62 354.837 170.339 351.968C170.255 351.096 168.317 348.676 171.8 349.492C172.98 349.774 172.839 348.367 172.98 347.551C173.317 345.807 173.598 344.035 174.019 342.29C176.07 333.879 185.873 331.178 192.474 337.199C192.081 340.096 190.62 340.068 188.401 338.915C182.306 335.736 179.019 337.339 177.755 344.035C177.839 343.444 177.615 344.4 177.671 344.232C179.103 339.196 180.985 334.723 187.109 339.308C189.497 341.081 189.553 344.429 187.839 346.651C184.918 350.505 186.856 352.474 189.974 354.359C191.968 356.469 194.862 357.735 196.07 360.604C197.025 362.545 197.811 364.543 197.923 366.737C199.525 368.059 201.294 369.1 203.036 370.225C205.086 371.548 205.227 372.842 202.643 373.911C199.047 375.374 197.671 374.727 195.311 370.028C194.44 367.187 194.328 363.952 191.35 362.152C188.935 361.476 187.249 357.397 184.019 360.548C183.092 362.377 183.542 364.036 184.749 365.556C190.227 372.476 196.013 379.087 203.682 383.757C205.002 384.573 206.322 385.22 207.895 384.826C209.749 384.348 211.435 384.657 213.092 385.473C214.805 386.289 216.491 386.514 218.232 385.585C218.485 385.445 218.85 385.22 219.075 385.304C225.816 388.314 231.631 383.082 238.035 383.194C239.468 383.222 240.592 383.757 241.743 384.488C249.637 389.636 258.344 389.439 267.164 388.314C267.754 388.23 267.052 388.117 267.586 388.202C276.687 389.805 284.692 381.534 294.046 385.304C295.254 385.782 296.827 385.501 297.866 386.401C300.254 388.539 302.979 388.286 305.872 388.145C309.299 387.977 312.866 388.033 314.496 392.084C302.782 403.083 288.597 409.469 273.316 413.267C260.929 416.362 248.204 417.74 235.367 417.037C209.524 415.63 185.704 408.766 166.154 390.734C164.412 389.13 162.896 387.273 161.266 385.557C160.592 382.744 158.233 381 156.969 378.524C155.48 375.627 155.536 373.151 157.896 370.816C159.272 369.466 160.48 367.834 162.25 367.018C165.592 365.527 168.485 363.333 171.014 360.576Z" fill="#84350C"/>
<path d="M362.782 385.67C366.798 386.374 368.231 384.939 368.09 380.663C367.753 371.126 367.978 361.561 368.175 351.771C369.102 354.978 370.899 355.485 373.849 354.528C376.04 353.825 378.54 353.909 380.899 353.937C384.607 353.994 383.764 351.293 382.5 350.28C379.045 347.467 380.731 344.682 382.444 342.516C384.579 339.787 387.613 338.999 391.096 343.135C391.349 332.698 397.219 327.24 404.691 322.936C407.388 321.36 408.736 318.716 409.691 315.256C410.253 319.729 412.865 322.148 416.124 324.033C422.304 327.606 427.303 331.938 427.275 339.928C427.275 340.8 428.23 341.7 428.736 342.6C428.736 361.449 428.736 380.297 428.736 399.145C424.495 401.34 419.775 400.918 415.281 401.677C406.32 403.224 397.191 403.196 388.146 403.984C384.916 404.265 381.911 403.703 379.691 400.918C379.045 400.102 378.006 399.089 377.079 399.37C372.107 400.861 367.641 397.12 362.753 398.189C362.753 394.025 362.753 389.834 362.782 385.67Z" fill="#D25120"/>
<path d="M191.715 361.449C195.788 362.771 195.367 366.485 196.041 369.607C195.62 374.727 199.777 378.356 204.58 376.668C208.99 375.121 213.681 376.106 217.024 377.737C223.625 380.973 230.142 380.1 236.659 379.594C248.513 378.666 260.254 376.64 272.108 375.627C278.26 375.093 284.271 376.162 290.31 377.034C295.816 377.822 295.956 377.765 295.984 372.392C296.012 370.451 295.9 368.51 295.956 366.569C295.422 360.943 296.883 355.401 296.827 349.802C296.743 343.248 296.799 343.248 290.198 343.051C289.13 343.107 288.091 343.079 287.024 343.051C282.417 342.685 277.642 344.401 273.26 341.785C274.439 340.406 276.041 341.025 277.445 341.025C297.698 340.969 317.95 340.969 338.231 340.969C343.371 340.969 343.624 341.25 342.332 346.342C340.394 353.853 338.034 361.196 333.99 367.891C332.416 366.513 332.754 364.628 332.782 362.884C332.838 358.861 332.613 354.838 332.248 350.843C331.939 347.355 329.186 344.992 325.647 344.851C321.742 344.682 318.905 346.877 318.344 350.478C317.473 355.851 317.782 365.275 318.962 368.876C320.591 367.638 320.872 365.556 322.079 364.093C324.299 361.449 326.77 361.28 328.624 364.122C329.916 366.147 331.546 367.835 333.119 369.579C328.372 378.356 322.501 386.149 314.411 392.113C311.012 388.99 306.995 388.596 302.754 389.665C301.686 389.918 300.675 390.284 299.832 389.44C295.17 384.77 289.158 386.064 283.54 385.642C282.473 385.558 281.434 385.783 280.675 386.599C277.923 389.637 275.114 391.128 270.984 388.568C269.018 387.358 267.192 390.256 264.777 390.228C258.175 390.172 251.659 389.89 245.254 388.146C244.552 387.949 243.597 387.724 243.26 387.218C240.367 382.773 235.367 383.758 232.361 385.052C227.979 386.965 224.412 389.328 219.945 385.896C215.507 390.2 210.957 384.742 206.041 386.008C202.755 386.852 199.58 381.957 196.21 379.819C190.76 376.387 188.007 370.226 183.204 366.006C182.081 365.022 180.002 361.505 183.654 359.62C185.086 359.255 185.873 360.296 186.406 361.252C188.176 364.403 189.89 363.39 191.715 361.449Z" fill="#B73D1B"/>
<path d="M287.305 341.897C288.232 341.869 289.159 341.841 290.086 341.841C292.024 344.148 291.069 346.961 291.378 349.577C291.659 351.8 291.827 354.022 291.939 356.244C292.136 360.549 291.602 365.19 297.192 366.766C297.22 368.707 297.248 370.648 297.248 372.589C297.248 379.622 297.192 379.903 290.394 378.384C277.951 375.571 265.676 377.371 253.344 379.031C242.895 380.41 232.474 381.732 221.884 381.282C220.451 381.225 219.271 380.804 218.344 379.735C216.828 378.018 215.283 376.837 213.092 378.862C212.277 379.622 211.406 379.059 210.732 378.384C208.85 376.443 206.884 376.105 204.974 378.215C203.288 380.072 201.659 378.722 200.114 378.187C199.187 377.85 198.541 376.499 197.642 376.359C191.098 375.458 194.384 372.392 196.069 369.635C197.67 373.011 199.524 375.768 203.766 372.223C202.586 369.776 197.67 370.873 197.979 366.794C199.665 361.533 198.204 355.935 199.665 350.646C200.002 349.436 199.3 347.917 200.929 346.933C203.204 350.28 202.109 354.05 202.418 357.595C202.642 360.408 202.165 363.221 202.867 366.034C203.401 368.172 204.581 368.904 206.715 368.679C208.963 368.425 208.654 366.794 208.654 365.359C208.71 357.173 208.738 349.014 208.794 340.828C210.479 343.557 212.165 346.258 213.878 348.958C212.979 350.927 211.912 352.869 213.064 355.147C215.058 354.528 214.552 352.39 215.845 351.603C231.097 366.344 257.642 363.727 270.507 346.426C274.243 345.498 274.861 348.142 275.17 350.731C275.591 354.444 275.226 358.185 275.367 361.927C275.423 363.474 274.833 365.218 276.574 366.597C278.513 365.247 278.035 363.193 278.119 361.364C278.316 357.342 277.726 353.291 278.765 349.324C279.131 347.945 279.383 346.004 281.265 346.117C283.204 346.229 283.175 348.171 283.288 349.605C283.597 353.403 284.58 357.116 284.411 359.142C284.524 356.216 285.535 351.518 285.395 346.736C285.282 344.851 285.732 343.107 287.305 341.897Z" fill="#D25120"/>
<path d="M1124.04 138.87C1154.4 138.842 1175.19 149.447 1192.69 167.114C1205.11 179.633 1214.12 194.346 1219.52 211.225C1220.22 213.419 1221.01 215.276 1217.94 215.979C1215.53 216.542 1213.76 216.683 1212.66 213.363C1207.04 196.484 1198.73 181.208 1184.52 169.899C1170.7 158.9 1154.99 154.933 1137.44 156.649C1126.48 157.718 1116.37 161.094 1106.37 165.229C1103.84 166.27 1102.38 165.989 1100.58 164.076C1097.02 160.25 1093.82 156.199 1091.54 151.445C1090.44 149.166 1090.81 147.928 1093.28 146.775C1104.6 141.374 1116.46 138.701 1124.04 138.87Z" fill="#FEFEFE"/>
<path d="M857.553 368.679C857.89 384.235 859.014 399.764 860.362 415.265C848.733 415.265 837.075 415.265 825.446 415.237C826.542 399.736 827.413 384.207 827.356 368.65C830.362 370.873 833.789 371.126 837.356 370.957C840.755 370.817 844.154 370.817 847.553 370.957C851.12 371.126 854.547 370.845 857.553 368.679Z" fill="#B9411B"/>
<path d="M1423.98 224.418C1431.42 224.418 1438.87 224.39 1446.31 224.418C1452.66 224.446 1459.32 231.479 1459.35 237.837C1459.35 239.806 1458.39 239.947 1456.87 239.947C1440.95 239.891 1424.99 240.031 1409.07 239.835C1403.39 239.75 1397.01 231.62 1397.44 226.05C1397.63 223.631 1399.21 224.475 1400.3 224.475C1408.19 224.39 1416.09 224.418 1423.98 224.418Z" fill="#FEFEFE"/>
<path d="M807.75 359.761C808.368 359.818 808.34 361.449 809.323 360.493C810.278 359.564 811.008 358.327 812.076 357.623C815.952 355.063 817.469 355.767 818.621 360.155C819.435 363.306 819.941 366.597 821.963 369.326C823.255 371.07 822.918 373.124 822.694 374.952C821.036 388.343 822.356 401.79 821.935 415.181C817.469 415.181 811.935 416.813 808.873 414.759C805.475 412.48 807.722 406.516 807.694 402.212C807.497 388.062 807.694 373.912 807.75 359.761Z" fill="#BC441D"/>
<path d="M171.013 360.576C170.339 363.558 168.541 365.471 165.648 366.428C165.227 366.569 164.862 366.794 164.468 367.019C156.238 371.295 155.283 374.896 160.255 382.547C160.845 383.448 162.895 384.01 161.238 385.67C150.255 373.573 143.289 359.479 139.974 343.5C141.266 341.925 141.94 339.787 143.907 338.802C145.227 338.155 146.772 336.496 147.727 339.253C147.895 339.731 148.008 340.603 148.682 339.675C151.603 335.764 153.879 338.915 154.974 340.912C157.081 344.738 160.171 347.186 163.654 349.493C166.294 351.265 166.238 354.922 168.345 357.201C169.3 358.242 169.44 359.986 171.013 360.576Z" fill="#B83E1A"/>
<path d="M362.753 398.189C365.59 396.641 368.371 395.15 371.208 398.245C372.304 399.455 373.568 399.145 374.776 398.189C376.461 396.867 378.512 396.923 379.467 398.667C382.613 404.35 387.838 402.859 392.472 402.549C401.18 401.987 409.832 400.889 418.511 400.017C421.91 399.68 425.225 398.78 428.68 399.089C428.708 403.871 428.708 408.654 428.736 413.436C426.854 415.012 424.214 414.393 422.809 413.83C418.118 411.861 412.247 412.761 408.596 408.232C407.669 407.078 406.377 406.741 404.972 407.303C403.371 407.922 401.77 407.838 400.141 407.613C398.09 407.303 396.377 407.922 394.944 409.498C392.416 412.339 389.523 412.986 386.264 410.736C384.242 409.329 382.191 409.048 380.029 410.51C379.298 411.017 378.343 411.664 377.557 411.298C372.838 409.104 367.585 409.526 362.725 408.063C362.753 404.772 362.753 401.48 362.753 398.189Z" fill="#B73D1A"/>
<path d="M863.901 415.181C863.901 400.89 863.901 386.599 863.873 372.308C863.873 370.198 863.957 368.145 865.081 366.288C866.963 363.221 869.8 360.718 869.744 356.526C869.716 354.951 871.794 354.163 873.62 354.247C873.676 373.574 873.676 392.872 873.845 412.199C873.873 414.759 873.058 415.687 870.53 415.462C868.339 415.237 866.12 415.265 863.901 415.181Z" fill="#BC441D"/>
<path d="M362.725 408.063C364.916 407.951 367.023 408.232 369.27 407.444C371.574 406.656 373.315 409.498 375.731 409.835C376.995 410.004 378.118 410.989 379.354 409.695C382.079 406.91 384.776 408.035 387.304 410.004C389.832 411.973 392.276 411.354 393.736 409.104C395.674 406.094 398.231 405.981 401.096 406.488C402.304 406.713 403.259 407.05 404.41 406.206C406.601 404.603 408.511 405.475 409.635 407.557C410.702 409.582 412.528 410.257 414.326 410.539C419.186 411.27 423.764 413.352 428.736 413.436C428.624 416.587 426.18 415.349 424.719 415.349C405.674 415.434 386.602 415.265 367.557 415.518C363.371 415.574 361.883 414.28 362.529 410.285C362.669 409.554 362.669 408.795 362.725 408.063Z" fill="#85340C"/>
<path d="M333.147 369.607C330.423 369.719 329.299 367.891 328.4 365.753C327.81 364.346 327.08 362.883 325.338 362.912C323.849 362.94 323.344 364.459 322.445 365.415C320.816 367.159 321.546 371.745 318.175 370.788C315.226 369.916 317.164 366.175 316.911 363.727C316.434 359.395 316.293 355.063 316.855 350.646C317.389 346.426 320.366 343.529 325.479 343.557C329.72 343.585 333.765 347.045 333.793 350.646C333.849 356.385 333.934 362.152 334.018 367.891C333.737 368.454 333.456 369.044 333.147 369.607Z" fill="#EC8821"/>
<path d="M287.304 341.897C286.742 348.086 286.237 354.303 285.591 360.492C285.45 361.955 286.49 364.627 284.411 364.627C281.883 364.599 283.175 361.842 283.007 360.267C282.501 355.766 282.192 351.265 281.377 346.735C278.905 350.252 279.467 354.218 279.355 358.044C279.271 360.576 279.411 363.136 279.186 365.64C279.018 367.384 278.175 368.735 275.984 368.594C273.681 368.425 274.018 366.765 274.018 365.331C273.962 360.548 273.877 355.766 273.99 351.011C274.046 348.395 273.063 346.82 270.45 346.398C271.405 344.851 272.361 343.303 273.316 341.784C277.978 341.812 282.641 341.84 287.304 341.897Z" fill="#ED8B21"/>
<path d="M510.337 415.265C515.308 413.352 520.645 413.83 525.702 412.902C532.527 411.664 539.943 413.746 546.263 409.526C548.033 408.345 549.999 409.161 551.319 410.061C553.398 411.495 554.999 411.13 556.769 409.836C557.64 413.859 556.6 415.631 551.909 415.49C538.033 415.153 524.185 415.321 510.337 415.265Z" fill="#87340C"/>
<path d="M215.76 351.575C215.535 353.544 216.097 355.851 213.597 356.836C212.923 357.089 211.884 357.061 211.687 356.245C211.153 353.994 210.648 351.631 212.193 349.521C212.474 349.127 213.232 349.099 213.766 348.902C214.44 349.803 215.114 350.675 215.76 351.575Z" fill="#F0982E"/>
<path d="M1117.1 335.455C1100.28 315.987 1079.8 302.709 1056.29 294.016C1054.29 293.285 1053.7 292.3 1053.7 290.218C1053.79 274.549 1053.82 258.851 1053.7 243.182C1053.67 240.678 1054.35 239.891 1056.91 239.919C1076.01 240.031 1095.08 240.003 1114.18 239.919C1116.57 239.919 1117.58 240.369 1117.55 243.069C1117.47 273.396 1117.49 303.694 1117.47 334.02C1117.49 334.273 1117.35 334.555 1117.1 335.455Z" fill="black"/>
<path d="M1032.33 321.446C1032.05 328.872 1033 337.368 1030.59 345.723C1026.06 361.449 1013.03 371.774 996.625 372.28C990.642 372.449 984.799 372.139 979.181 369.748C968.957 365.388 963.872 357.539 963.311 346.596C962.412 328.901 970.67 316.438 985.895 308.364C999.574 301.106 1014.29 299.503 1029.55 301.05C1031.93 301.303 1032.41 302.147 1032.35 304.313C1032.24 309.687 1032.33 315.06 1032.33 321.446Z" fill="black"/>
<path d="M681.15 293.285C681.599 292.244 682.077 291.232 682.582 290.078C683.116 291.006 683.538 291.738 683.959 292.497C687.414 304.425 692.105 315.903 696.15 327.634C697.639 331.938 699.155 336.243 700.728 340.828C688.566 340.828 676.852 340.828 664.437 340.828C670.054 324.793 675.588 309.039 681.15 293.285Z" fill="black"/>
<path d="M189.721 355.4C188.4 354.416 187.024 353.543 185.788 352.474C184.299 351.18 182.811 350.139 185.76 348.367C187.558 347.27 188.232 344.541 187.642 342.319C187.024 339.956 185.423 337.621 182.614 338.212C179.777 338.802 179.019 341.728 178.288 344.204C178.007 345.16 178.541 346.37 178.766 347.917C176.715 344.626 176.996 339.646 179.047 337.958C181.266 336.102 186.715 336.102 188.934 338.183C190.872 340.012 191.35 337.733 192.445 337.199C194.075 337.452 195.872 337.536 195.17 340.04C191.996 342.206 193.091 345.554 192.754 348.536C192.474 351.124 193.485 354.359 189.721 355.4Z" fill="#EF9A31"/>
<path d="M189.721 355.4C193.063 351.94 191.153 347.608 191.659 343.669C191.94 341.503 191.547 338.831 195.198 340.04C194.552 346.933 196.35 353.74 196.097 360.633C194.018 358.776 191.406 357.679 189.721 355.4Z" fill="#D1561F"/>
<path d="M855.867 324.737C854.014 328.253 854.828 332.107 855.165 335.652C855.783 342.01 855.839 348.34 856.036 354.697C856.12 357.145 856.57 359.677 858.62 361.477C856.766 363.081 854.491 362.799 852.3 362.856C843.62 363.053 834.913 362.434 826.261 363.362C825.587 362.631 825.165 361.308 825.952 361.055C829.885 359.93 828.817 356.835 829.042 354.163C829.66 346.258 828.368 338.212 830.699 330.42C831.261 328.507 830.39 326.594 829.884 324.737C838.536 324.005 847.216 323.809 855.867 324.737Z" fill="#BB431C"/>
<path d="M852.469 289.009C853.003 298.095 853.649 307.182 854.042 316.268C854.126 318.322 856.177 318.069 856.654 319.419C855.783 320.319 854.632 320.629 853.452 320.657C846.401 320.854 839.351 320.882 832.272 320.657C831.064 320.629 829.969 320.207 829.07 319.363C831.823 316.662 831.795 313.258 831.767 309.714C831.682 302.793 833.34 295.929 832.497 288.981C839.154 286.477 845.812 286.449 852.469 289.009Z" fill="#BB431C"/>
<path d="M834.491 263.775C833.621 261.862 832.581 260.005 834.576 258.064C835.643 257.023 835.166 255.504 835.194 254.21C835.278 250.637 835.109 247.036 835.39 243.464C835.587 240.763 833.705 236.599 836.402 235.643C839.997 234.377 844.323 235.165 848.34 235.333C849.941 235.39 849.632 237.078 849.632 238.231C849.8 245.489 848.733 252.86 851.429 259.921C852.047 261.552 850.699 263.043 850.418 264.647C845.025 266.447 839.632 267.685 834.491 263.775Z" fill="#B6421C"/>
<path d="M834.491 263.774C839.716 265.631 845.137 264.225 850.474 264.646C851.542 268.36 851.261 272.214 851.485 276.012C851.626 278.6 850.137 281.863 854.351 283.298C855.671 283.748 855.306 286.449 854.182 288.024C852.469 285.38 849.997 284.676 846.963 284.789C843.283 284.958 839.575 284.845 835.896 284.817C834.126 284.789 832.328 284.789 830.868 283.495C832.694 282.426 833.705 281.188 833.677 278.712C833.62 273.733 834.182 268.754 834.491 263.774Z" fill="#BD4924"/>
<path d="M826.261 363.39C826.795 360.717 828.958 361.533 830.559 361.533C839.913 361.477 849.266 361.505 858.62 361.505C858.901 363.981 857.918 366.288 857.581 368.679C856.794 371.351 855.39 372.533 852.272 372.364C845.924 372.026 839.519 372.083 833.143 372.336C830.081 372.477 828.171 371.661 827.385 368.651C826.205 367.047 826.401 365.19 826.261 363.39Z" fill="#913009"/>
<path d="M829.07 319.363C838.255 319.391 847.469 319.391 856.654 319.42C857.075 321.304 856.205 322.993 855.868 324.737C847.216 326.115 838.536 326.2 829.885 324.737C829.604 322.964 828.705 321.248 829.07 319.363Z" fill="#90300A"/>
<path d="M830.84 283.496C837.019 283.496 843.227 283.692 849.407 283.383C853.059 283.214 854.632 284.311 854.154 287.996C853.817 288.728 853.143 288.841 852.469 288.981C845.812 288.981 839.154 288.981 832.469 288.953C830.362 287.631 830.924 285.465 830.84 283.496Z" fill="#903109"/>
<path d="M505 372.195C505.28 368.51 505.365 364.768 505.926 361.111C506.629 356.441 512.893 352.671 518.089 353.515C523.539 354.387 527.471 359.226 526.769 364.346C526.629 365.359 527.022 366.062 527.415 366.85C528.23 373.376 527.668 379.931 527.724 386.458C527.752 388.736 525.533 389.355 523.174 387.864C521.32 386.711 520.589 384.629 519.41 382.941C517.331 379.931 515.674 380.044 513.763 383.166C512.977 384.46 512.499 385.867 511.91 387.245C511.011 389.299 509.297 390.087 507.191 389.834C504.691 389.524 505.477 387.442 505.393 385.951C505.168 381.394 505.898 376.78 505 372.195Z" fill="#EB871D"/>
<path d="M504.999 372.195C506.797 376.471 505.337 380.972 505.87 385.332C506.039 386.654 505.056 388.849 507.19 388.933C508.511 388.989 511.095 389.468 510.814 386.007C510.674 384.179 512.471 382.041 513.735 380.297C515.505 377.877 518.567 378.384 520.196 381.309C521.713 384.038 522.555 388.596 526.319 387.358C528.848 386.514 527.134 382.125 527.303 379.312C527.555 375.177 527.387 370.985 527.415 366.85C529.269 374.023 527.836 381.338 528.201 388.567C528.342 391.381 528.314 394.194 528.117 397.007C528.033 398.329 527.471 399.736 526.207 400.411C524.55 401.283 523.763 399.651 522.977 398.751C520.73 396.05 518.791 397.148 516.432 398.667C515.589 399.201 514.522 404.068 512.527 399.258C512.443 399.061 509.803 399.539 508.651 400.242C504.662 402.633 504.943 399.848 504.943 397.345C504.971 388.933 504.971 380.578 504.999 372.195Z" fill="#CE4F1F"/>
<path d="M191.715 361.448C190.479 362.349 192.53 364.852 189.777 365.105C187.727 365.302 187.024 363.924 186.097 362.658C185.339 361.617 185.002 360.239 183.654 359.704C183.934 357.06 185.676 357.651 187.081 358.354C188.738 359.198 190.17 360.407 191.715 361.448Z" fill="#E97922"/>
<path d="M418.989 374.896C418.989 377.287 418.82 379.679 419.017 382.042C419.354 386.093 416.854 386.318 414.27 385.277C412.613 384.63 410.702 384.011 409.551 382.182C408.399 380.354 406.686 379.594 404.607 380.916C401.377 382.97 400.506 380.635 400.309 378.3C400.028 374.305 400.056 370.255 400.253 366.26C400.45 362.434 405.927 357.905 409.944 357.933C413.961 357.961 418.708 362.321 418.989 366.4C419.157 369.214 419.017 372.055 419.017 374.868C419.017 374.896 419.017 374.896 418.989 374.896Z" fill="#EF9027"/>
<path d="M382.36 367.018C381.967 363.614 382.613 360.295 385.927 360.182C389.832 360.07 390.394 363.474 390.394 366.934C390.394 369.916 390.057 371.52 386.377 371.52C382.557 371.548 381.602 370.029 382.36 367.018Z" fill="#F49C2F"/>
<path d="M376.995 366.485C376.433 368.257 378.203 371.295 374.298 371.323C370.338 371.38 371.798 368.398 371.658 366.485C371.461 363.981 371.321 360.352 374.298 360.296C377.641 360.239 376.742 363.981 376.995 366.485Z" fill="#F2982E"/>
<path d="M388.062 352.643C387.978 353.769 387.304 354.247 386.321 354.162C384.916 354.022 385 352.84 385.028 351.856C385.028 350.955 385.225 349.999 386.405 350.055C388.006 350.139 387.613 351.687 388.062 352.643Z" fill="#E98B10"/>
<path d="M297.192 366.737C290.282 367.666 291.096 363.08 290.872 358.523C290.591 352.953 289.945 347.411 290.085 341.813C298.287 341.784 298.344 341.784 298.119 349.971C297.95 355.569 297.501 361.167 297.192 366.737Z" fill="#F09329"/>
</svg>
