<svg width="1597" height="594" viewBox="0 0 1597 594" fill="none" xmlns="http://www.w3.org/2000/svg">
<path d="M639.418 242.709C631.395 242.709 624.47 240.661 618.646 236.564C612.821 232.467 608.334 226.598 605.184 218.955C602.094 211.311 600.548 202.171 600.548 191.531V191.439C600.548 180.739 602.123 171.599 605.273 164.016C608.423 156.373 612.881 150.534 618.646 146.498C624.47 142.402 631.395 140.353 639.418 140.353C643.935 140.353 648.095 141.117 651.899 142.646C655.703 144.175 659.031 146.376 661.884 149.25C664.796 152.062 667.115 155.456 668.838 159.43H669.373V108.344H695.404V240.691H669.373V223.907H668.838C667.173 227.821 664.915 231.183 662.062 233.996C659.21 236.748 655.881 238.888 652.077 240.416C648.273 241.945 644.054 242.709 639.418 242.709ZM648.154 220.513C652.375 220.513 656.089 219.352 659.298 217.028C662.508 214.644 665.004 211.281 666.787 206.94C668.57 202.598 669.462 197.462 669.462 191.531V191.439C669.462 185.508 668.541 180.403 666.698 176.123C664.915 171.781 662.419 168.449 659.21 166.126C656.06 163.741 652.375 162.549 648.154 162.549C643.816 162.549 640.072 163.71 636.922 166.034C633.771 168.357 631.335 171.69 629.612 176.032C627.888 180.311 627.026 185.447 627.026 191.439V191.531C627.026 197.462 627.858 202.598 629.522 206.94C631.245 211.281 633.683 214.644 636.832 217.028C640.042 219.352 643.816 220.513 648.154 220.513ZM713.324 240.691V142.371H739.356V240.691H713.324ZM726.34 129.714C722.418 129.714 719.119 128.338 716.444 125.587C713.77 122.835 712.432 119.564 712.432 115.773C712.432 111.921 713.77 108.65 716.444 105.959C719.119 103.208 722.418 101.832 726.34 101.832C730.263 101.832 733.562 103.208 736.236 105.959C738.911 108.65 740.247 111.921 740.247 115.773C740.247 119.564 738.911 122.835 736.236 125.587C733.562 128.338 730.263 129.714 726.34 129.714ZM801.495 274.81C792.758 274.81 785.121 273.557 778.583 271.05C772.104 268.604 766.933 265.272 763.07 261.053C759.267 256.833 756.949 252.094 756.116 246.836L756.028 246.011H781.346L781.614 246.653C782.683 249.038 784.912 251.147 788.3 252.981C791.688 254.815 796.086 255.733 801.495 255.733C808.21 255.733 813.322 254.082 816.828 250.781C820.335 247.478 822.089 243.076 822.089 237.573V222.531H821.553C819.889 225.955 817.631 228.921 814.778 231.428C811.926 233.934 808.567 235.891 804.704 237.298C800.9 238.643 796.681 239.316 792.044 239.316C784.08 239.316 777.186 237.359 771.361 233.446C765.596 229.533 761.139 223.938 757.989 216.662C754.899 209.325 753.353 200.58 753.353 190.43V190.339C753.353 179.883 754.928 170.926 758.078 163.466C761.287 156.006 765.805 150.289 771.628 146.315C777.453 142.34 784.407 140.353 792.491 140.353C797.007 140.353 801.138 141.117 804.882 142.646C808.627 144.175 811.895 146.345 814.688 149.158C817.542 151.971 819.83 155.303 821.553 159.155H822.089V142.371H848.121V237.94C848.121 245.216 846.219 251.606 842.415 257.109C838.67 262.673 833.292 267.014 826.279 270.132C819.325 273.251 811.064 274.81 801.495 274.81ZM801.049 219.688C805.328 219.688 809.043 218.526 812.193 216.203C815.343 213.88 817.78 210.577 819.503 206.298C821.286 202.017 822.177 196.943 822.177 191.072V190.981C822.177 185.111 821.286 180.066 819.503 175.848C817.78 171.567 815.313 168.296 812.103 166.034C808.953 163.71 805.268 162.549 801.049 162.549C796.769 162.549 793.025 163.71 789.816 166.034C786.606 168.296 784.14 171.537 782.416 175.756C780.693 179.975 779.831 185.05 779.831 190.981V191.072C779.831 196.943 780.693 202.017 782.416 206.298C784.14 210.577 786.606 213.88 789.816 216.203C793.025 218.526 796.769 219.688 801.049 219.688ZM865.772 240.691V142.371H891.804V240.691H865.772ZM878.788 129.714C874.866 129.714 871.567 128.338 868.893 125.587C866.218 122.835 864.88 119.564 864.88 115.773C864.88 111.921 866.218 108.65 868.893 105.959C871.567 103.208 874.866 101.832 878.788 101.832C882.711 101.832 886.01 103.208 888.684 105.959C891.359 108.65 892.696 111.921 892.696 115.773C892.696 119.564 891.359 122.835 888.684 125.587C886.01 128.338 882.711 129.714 878.788 129.714ZM947.256 242.709C936.677 242.709 928.832 240.416 923.721 235.83C918.609 231.245 916.053 223.694 916.053 213.176V162.549H902.77V142.371H916.053V118.341H942.353V142.371H959.827V162.549H942.353V210.241C942.353 214.828 943.334 218.037 945.295 219.871C947.315 221.645 950.288 222.531 954.21 222.531C955.399 222.531 956.439 222.501 957.33 222.44C958.222 222.318 959.054 222.195 959.827 222.073V241.7C958.401 241.945 956.618 242.158 954.478 242.342C952.397 242.587 949.99 242.709 947.256 242.709ZM1001.73 242.251C995.369 242.251 989.782 240.997 984.967 238.49C980.153 235.922 976.379 232.406 973.645 227.943C970.971 223.418 969.633 218.282 969.633 212.534V212.35C969.633 206.359 971.09 201.253 974.001 197.034C976.914 192.754 981.134 189.391 986.661 186.945C992.189 184.499 998.904 183.002 1006.81 182.451L1044.07 180.066V196.759L1010.73 198.96C1005.74 199.266 1001.94 200.489 999.321 202.629C996.705 204.708 995.398 207.49 995.398 210.975V211.159C995.398 214.767 996.735 217.61 999.409 219.688C1002.08 221.706 1005.68 222.715 1010.2 222.715C1014.06 222.715 1017.51 221.95 1020.54 220.422C1023.63 218.832 1026.04 216.692 1027.76 214.002C1029.54 211.25 1030.43 208.162 1030.43 204.738V174.93C1030.43 170.59 1029.1 167.165 1026.42 164.658C1023.75 162.09 1019.86 160.806 1014.74 160.806C1009.87 160.806 1006.01 161.845 1003.15 163.924C1000.3 166.003 998.548 168.632 997.895 171.812L997.716 172.638H973.913L974.001 171.537C974.477 165.484 976.408 160.103 979.796 155.395C983.243 150.687 987.999 147.018 994.06 144.389C1000.18 141.698 1007.43 140.353 1015.81 140.353C1024.07 140.353 1031.24 141.729 1037.3 144.48C1043.36 147.171 1048.06 150.992 1051.38 155.945C1054.77 160.898 1056.47 166.676 1056.47 173.279V240.691H1030.43V226.016H1029.9C1028.12 229.38 1025.8 232.284 1022.95 234.73C1020.15 237.115 1016.97 238.979 1013.41 240.324C1009.84 241.609 1005.95 242.251 1001.73 242.251ZM1073.94 240.691V108.344H1099.97V240.691H1073.94ZM604.025 497.122V366.701H630.057V383.852H630.681C632.405 379.878 634.663 376.454 637.456 373.579C640.31 370.706 643.608 368.505 647.352 366.976C651.156 365.448 655.317 364.683 659.833 364.683C667.917 364.683 674.871 366.731 680.695 370.828C686.519 374.864 691.007 380.703 694.157 388.347C697.306 395.989 698.882 405.13 698.882 415.769V415.861C698.882 426.501 697.306 435.641 694.157 443.285C691.066 450.928 686.638 456.797 680.873 460.894C675.108 464.991 668.213 467.039 660.19 467.039C655.674 467.039 651.483 466.275 647.62 464.746C643.757 463.218 640.398 461.078 637.546 458.326C634.693 455.513 632.375 452.151 630.592 448.237H630.057V497.122H604.025ZM651.275 444.843C655.614 444.843 659.358 443.682 662.508 441.358C665.658 438.974 668.094 435.611 669.818 431.27C671.542 426.928 672.403 421.792 672.403 415.861V415.769C672.403 409.777 671.542 404.611 669.818 400.269C668.094 395.929 665.628 392.626 662.419 390.364C659.269 388.041 655.555 386.879 651.275 386.879C647.055 386.879 643.341 388.071 640.131 390.456C636.922 392.779 634.425 396.111 632.642 400.453C630.859 404.733 629.968 409.869 629.968 415.861V415.953C629.968 421.823 630.859 426.928 632.642 431.27C634.485 435.611 636.982 438.974 640.131 441.358C643.341 443.682 647.055 444.843 651.275 444.843ZM740.871 466.581C734.512 466.581 728.925 465.327 724.111 462.82C719.297 460.252 715.523 456.736 712.789 452.273C710.115 447.748 708.778 442.612 708.778 436.864V436.681C708.778 430.689 710.233 425.583 713.146 421.364C716.058 417.084 720.278 413.722 725.806 411.275C731.332 408.829 738.049 407.332 745.953 406.781L783.219 404.396V421.089L749.876 423.29C744.884 423.596 741.08 424.819 738.464 426.959C735.85 429.038 734.543 431.82 734.543 435.306V435.489C734.543 439.097 735.879 441.94 738.554 444.018C741.228 446.036 744.824 447.045 749.341 447.045C753.204 447.045 756.652 446.281 759.682 444.752C762.774 443.162 765.181 441.022 766.904 438.332C768.687 435.58 769.578 432.492 769.578 429.068V399.26C769.578 394.92 768.241 391.495 765.567 388.988C762.892 386.42 758.999 385.136 753.888 385.136C749.014 385.136 745.151 386.175 742.299 388.254C739.445 390.333 737.692 392.963 737.038 396.142L736.86 396.968H713.056L713.146 395.867C713.622 389.814 715.553 384.433 718.941 379.724C722.388 375.017 727.142 371.348 733.205 368.719C739.326 366.028 746.577 364.683 754.957 364.683C763.219 364.683 770.381 366.059 776.443 368.81C782.505 371.501 787.201 375.322 790.529 380.275C793.917 385.227 795.61 391.006 795.61 397.61V465.021H769.578V450.346H769.043C767.26 453.71 764.943 456.614 762.089 459.06C759.296 461.445 756.116 463.309 752.55 464.654C748.984 465.939 745.092 466.581 740.871 466.581ZM850.439 467.039C839.86 467.039 832.014 464.746 826.903 460.16C821.791 455.575 819.235 448.024 819.235 437.506V386.879H805.952V366.701H819.235V342.671H845.535V366.701H863.009V386.879H845.535V434.571C845.535 439.158 846.516 442.367 848.477 444.201C850.498 445.975 853.47 446.861 857.393 446.861C858.581 446.861 859.621 446.831 860.512 446.77C861.404 446.648 862.236 446.525 863.009 446.403V466.03C861.583 466.275 859.8 466.488 857.66 466.672C855.579 466.917 853.172 467.039 850.439 467.039ZM877.986 465.021V332.674H904.019V383.669H904.553C907.049 377.554 910.764 372.876 915.696 369.636C920.69 366.334 926.752 364.683 933.884 364.683C940.837 364.683 946.81 366.273 951.803 369.452C956.796 372.57 960.629 377.003 963.303 382.751C966.038 388.499 967.405 395.347 967.405 403.296V465.021H941.373V408.799C941.373 401.951 939.768 396.601 936.559 392.748C933.408 388.835 928.861 386.879 922.918 386.879C919.114 386.879 915.786 387.826 912.933 389.721C910.14 391.556 907.94 394.124 906.336 397.426C904.791 400.666 904.019 404.427 904.019 408.707V465.021H877.986ZM1028.03 467.039C1018.34 467.039 1009.96 464.991 1002.89 460.894C995.814 456.797 990.346 450.928 986.483 443.285C982.619 435.641 980.688 426.501 980.688 415.861V415.678C980.688 405.099 982.65 396.02 986.572 388.438C990.494 380.794 995.993 374.925 1003.07 370.828C1010.14 366.731 1018.43 364.683 1027.94 364.683C1037.51 364.683 1045.83 366.731 1052.9 370.828C1060.03 374.864 1065.56 380.703 1069.48 388.347C1073.4 395.929 1075.37 405.038 1075.37 415.678V415.861C1075.37 426.562 1073.4 435.733 1069.48 443.376C1065.62 451.019 1060.15 456.89 1053.08 460.985C1046.01 465.021 1037.66 467.039 1028.03 467.039ZM1028.12 446.036C1032.34 446.036 1035.99 444.874 1039.08 442.551C1042.23 440.167 1044.64 436.742 1046.3 432.279C1048.03 427.753 1048.89 422.282 1048.89 415.861V415.678C1048.89 409.319 1048.03 403.908 1046.3 399.444C1044.58 394.981 1042.14 391.587 1038.99 389.263C1035.84 386.879 1032.16 385.687 1027.94 385.687C1023.78 385.687 1020.12 386.879 1016.97 389.263C1013.88 391.587 1011.47 394.981 1009.75 399.444C1008.03 403.908 1007.17 409.319 1007.17 415.678V415.861C1007.17 422.282 1008 427.753 1009.66 432.279C1011.39 436.742 1013.82 440.167 1016.97 442.551C1020.12 444.874 1023.84 446.036 1028.12 446.036ZM1089.45 465.021V332.674H1115.48V465.021H1089.45ZM1176.91 467.039C1167.22 467.039 1158.84 464.991 1151.77 460.894C1144.7 456.797 1139.23 450.928 1135.36 443.285C1131.5 435.641 1129.57 426.501 1129.57 415.861V415.678C1129.57 405.099 1131.53 396.02 1135.45 388.438C1139.38 380.794 1144.87 374.925 1151.95 370.828C1159.02 366.731 1167.31 364.683 1176.82 364.683C1186.39 364.683 1194.71 366.731 1201.78 370.828C1208.92 374.864 1214.45 380.703 1218.37 388.347C1222.29 395.929 1224.25 405.038 1224.25 415.678V415.861C1224.25 426.562 1222.29 435.733 1218.37 443.376C1214.5 451.019 1209.03 456.89 1201.96 460.985C1194.89 465.021 1186.54 467.039 1176.91 467.039ZM1177 446.036C1181.22 446.036 1184.87 444.874 1187.96 442.551C1191.11 440.167 1193.52 436.742 1195.19 432.279C1196.91 427.753 1197.77 422.282 1197.77 415.861V415.678C1197.77 409.319 1196.91 403.908 1195.19 399.444C1193.46 394.981 1191.02 391.587 1187.87 389.263C1184.73 386.879 1181.04 385.687 1176.82 385.687C1172.66 385.687 1169 386.879 1165.85 389.263C1162.76 391.587 1160.36 394.981 1158.63 399.444C1156.91 403.908 1156.05 409.319 1156.05 415.678V415.861C1156.05 422.282 1156.88 427.753 1158.54 432.279C1160.27 436.742 1162.7 440.167 1165.85 442.551C1169 444.874 1172.72 446.036 1177 446.036ZM1282.38 499.14C1273.63 499.14 1266 497.887 1259.47 495.38C1252.99 492.934 1247.81 489.602 1243.95 485.383C1240.14 481.163 1237.83 476.425 1236.99 471.166L1236.91 470.341H1262.23L1262.49 470.983C1263.57 473.368 1265.79 475.477 1269.18 477.311C1272.57 479.145 1276.96 480.063 1282.38 480.063C1289.1 480.063 1294.2 478.412 1297.71 475.111C1301.22 471.808 1302.97 467.406 1302.97 461.903V446.861H1302.43C1300.77 450.285 1298.51 453.251 1295.66 455.758C1292.81 458.264 1289.45 460.221 1285.58 461.628C1281.78 462.973 1277.56 463.646 1272.92 463.646C1264.96 463.646 1258.07 461.69 1252.25 457.776C1246.48 453.863 1242.02 448.268 1238.87 440.992C1235.78 433.655 1234.24 424.91 1234.24 414.761V414.669C1234.24 404.213 1235.81 395.256 1238.95 387.796C1242.17 380.336 1246.68 374.619 1252.51 370.645C1258.34 366.67 1265.29 364.683 1273.37 364.683C1277.89 364.683 1282.02 365.448 1285.77 366.976C1289.5 368.505 1292.78 370.675 1295.56 373.488C1298.42 376.3 1300.71 379.633 1302.43 383.485H1302.97V366.701H1329V462.27C1329 469.546 1327.1 475.936 1323.3 481.439C1319.55 487.003 1314.17 491.344 1307.16 494.462C1300.21 497.581 1291.94 499.14 1282.38 499.14ZM1281.93 444.018C1286.21 444.018 1289.92 442.857 1293.07 440.533C1296.22 438.21 1298.66 434.907 1300.38 430.628C1302.17 426.347 1303.06 421.273 1303.06 415.402V415.311C1303.06 409.441 1302.17 404.396 1300.38 400.178C1298.66 395.897 1296.19 392.626 1292.99 390.364C1289.84 388.041 1286.15 386.879 1281.93 386.879C1277.65 386.879 1273.91 388.041 1270.69 390.364C1267.49 392.626 1265.02 395.867 1263.29 400.086C1261.57 404.305 1260.71 409.38 1260.71 415.311V415.402C1260.71 421.273 1261.57 426.347 1263.29 430.628C1265.02 434.907 1267.49 438.21 1270.69 440.533C1273.91 442.857 1277.65 444.018 1281.93 444.018ZM1361.1 497.398C1358.54 497.398 1356.08 497.275 1353.7 497.031C1351.32 496.786 1349.36 496.511 1347.81 496.205V476.303C1348.76 476.486 1349.98 476.669 1351.47 476.853C1352.96 477.097 1354.65 477.22 1356.55 477.22C1360.47 477.22 1363.56 476.547 1365.82 475.202C1368.08 473.857 1369.78 471.533 1370.9 468.232L1372.06 465.021L1338.27 366.701H1366.89L1388.46 448.879L1384.99 443.56H1389.89L1386.42 448.879L1407.99 366.701H1435.44L1402.64 466.764C1400.15 474.469 1397 480.553 1393.19 485.016C1389.44 489.48 1384.92 492.659 1379.64 494.554C1374.35 496.45 1368.17 497.398 1361.1 497.398Z" fill="#FFCB15"/>
<g filter="url(#filter0_i_138_14)">
<path d="M519.079 331.161C515.942 325.413 508.873 323.465 503.397 326.777C497.872 330.04 495.999 337.395 499.136 343.094C530.313 399.545 538.178 446.644 519.64 465.932C484.203 502.852 373.772 439.387 296.813 359.313C277.385 339.1 259.924 318.058 244.71 297.017C260.346 275.05 278.087 253.57 296.813 234.088C373.725 154.062 484.157 90.6461 519.64 127.517C534.105 142.568 532.608 175.055 515.474 216.65C496.702 262.241 461.78 312.944 417.167 359.362C406.729 370.223 395.915 380.696 385.008 390.436C380.186 394.723 379.67 402.321 383.79 407.289C387.956 412.306 395.213 412.841 399.988 408.556C411.316 398.424 422.551 387.515 433.412 376.263C480.037 327.751 516.691 274.417 536.587 226.1C557.933 174.325 557.651 133.313 535.884 110.665C493.004 66.0492 380.841 112.905 280.568 217.284C261.89 236.718 245.132 256.591 230.479 276.317C217.325 256.006 206.418 235.89 198.506 216.7C181.373 175.152 179.875 142.665 194.34 127.566C212.878 108.278 258.052 116.412 312.307 148.802C317.785 152.065 324.853 150.117 327.989 144.37C331.127 138.622 329.254 131.316 323.729 128.053C258.192 88.9414 205.107 82.5608 178.096 110.665C156.281 133.362 156.047 174.325 177.394 226.1C186.756 248.895 199.958 272.761 216.061 296.724C163.21 375.533 145.983 449.421 178.096 482.833C189.237 494.426 204.779 500.124 223.785 500.124C251.264 500.124 285.999 488.142 325.134 464.568C330.611 461.257 332.484 453.951 329.301 448.203C326.118 442.504 319.095 440.556 313.572 443.868C258.754 476.989 213.065 485.415 194.34 465.932C170.185 440.8 190.829 379.429 230.76 317.523C245.553 337.444 262.265 357.218 280.521 376.214C327.147 424.727 378.407 462.815 424.892 483.564C449.468 494.523 471.564 500.027 490.241 500.027C509.341 500.027 524.836 494.28 535.884 482.833C562.895 454.73 556.763 399.447 519.079 331.161ZM357.013 256.834C335.854 256.834 318.675 274.709 318.675 296.724C318.675 318.74 335.854 336.615 357.013 336.615C378.173 336.615 395.353 318.74 395.353 296.724C395.306 274.709 378.173 256.834 357.013 256.834Z" fill="#FFC600"/>
</g>
<defs>
<filter id="filter0_i_138_14" x="161.558" y="93.3662" width="390.946" height="410.758" filterUnits="userSpaceOnUse" color-interpolation-filters="sRGB">
<feFlood flood-opacity="0" result="BackgroundImageFix"/>
<feBlend mode="normal" in="SourceGraphic" in2="BackgroundImageFix" result="shape"/>
<feColorMatrix in="SourceAlpha" type="matrix" values="0 0 0 0 0 0 0 0 0 0 0 0 0 0 0 0 0 0 127 0" result="hardAlpha"/>
<feOffset dy="4"/>
<feGaussianBlur stdDeviation="2"/>
<feComposite in2="hardAlpha" operator="arithmetic" k2="-1" k3="1"/>
<feColorMatrix type="matrix" values="0 0 0 0 0 0 0 0 0 0 0 0 0 0 0 0 0 0 0.25 0"/>
<feBlend mode="normal" in2="shape" result="effect1_innerShadow_138_14"/>
</filter>
</defs>
</svg>
