<svg width="1729" height="603" viewBox="0 0 1729 603" fill="none" xmlns="http://www.w3.org/2000/svg">
<rect x="1" y="0.69043" width="1728" height="599" fill="white"/>
<path d="M645.074 385.107C645.074 442.273 657.718 458.428 694.117 458.428V472.098H538.942V458.428C569.211 458.428 587.985 448.072 587.985 386.764V97.2056C587.985 40.8681 575.341 23.884 538.942 23.884V10.2139H696.416C815.192 10.2139 863.468 77.736 863.468 141.53C863.468 218.165 809.444 260.833 711.359 260.833C692.584 260.833 676.875 260.004 645.074 255.862V385.107ZM645.074 235.15C664.614 242.606 676.109 243.02 698.331 243.02C762.317 243.02 802.931 205.738 802.931 143.187C803.314 93.8916 777.643 27.6122 698.715 27.6122H645.074V235.15Z" fill="#1D1D1B"/>
<path d="M873.047 297.701C871.515 426.117 943.163 458.429 979.179 458.429C1015.96 458.429 1034.74 444.759 1073.43 398.777V419.904C1041.25 464.228 1010.21 481.212 963.47 481.212C879.944 481.212 819.79 419.075 819.79 332.912C819.79 246.749 878.411 178.812 953.891 178.812C1015.58 178.812 1072.67 231.836 1069.22 298.115H873.047V297.701ZM1018.26 284.031C1020.56 221.066 980.712 195.382 946.612 195.382C902.166 195.382 875.729 231.008 872.664 284.031H1018.26Z" fill="#1D1D1B"/>
<path d="M1357.73 409.962C1357.73 447.244 1365.39 458.429 1402.94 458.429V472.099H1260.79V458.429C1296.81 458.429 1306.77 449.729 1306.77 422.803V273.675C1306.77 227.694 1275.74 208.224 1247.38 208.224C1220.95 208.224 1197.57 226.037 1171.52 263.733V403.334C1171.52 446.83 1176.88 458.014 1216.73 458.014V471.685H1076.12V458.429C1111.37 458.429 1120.56 455.115 1120.56 403.748V243.021C1120.56 208.224 1112.13 201.182 1076.12 201.182V187.512L1158.88 178.812H1171.52V235.978C1203.32 197.454 1233.97 178.812 1267.69 178.812C1312.13 178.812 1358.11 212.781 1358.11 281.131V409.962H1357.73Z" fill="#1D1D1B"/>
<path d="M1683.79 409.962C1683.79 447.244 1691.45 458.429 1729 458.429V472.099H1586.85V458.429C1622.87 458.429 1632.83 449.729 1632.83 422.803V273.675C1632.83 227.694 1601.79 208.224 1573.44 208.224C1547 208.224 1523.63 226.037 1497.58 263.733V403.334C1497.58 446.83 1502.94 458.014 1542.79 458.014V471.685H1402.17V458.429C1437.42 458.429 1446.62 455.115 1446.62 403.748V243.021C1446.62 208.224 1438.19 201.182 1402.17 201.182V187.512L1484.93 178.812H1497.58V235.978C1529.38 197.454 1560.03 178.812 1593.75 178.812C1638.19 178.812 1684.17 212.781 1684.17 281.131V409.962H1683.79Z" fill="#1D1D1B"/>
<path d="M554.268 558.676C554.268 570.274 557.333 579.388 570.36 579.388C582.238 579.388 588.368 571.517 588.368 558.261V535.064C588.368 533.407 587.985 531.75 587.985 530.507C587.602 527.607 584.537 526.364 580.705 525.95V523.879H601.012V525.95C596.798 526.364 594.116 527.607 593.732 530.507C593.732 531.75 593.349 533.407 593.349 535.064V558.676C593.349 576.488 581.472 583.116 570.743 583.116C552.736 583.116 546.988 574.003 546.988 559.09V534.235C546.988 526.364 547.371 526.779 539.708 525.95V523.879H562.697V525.95C555.034 526.779 555.418 526.364 555.418 534.235V558.676H554.268Z" fill="#1D1D1B"/>
<path d="M648.523 582.288C638.178 570.274 627.066 557.433 616.338 545.005V573.588C616.338 574.831 616.721 576.074 616.721 576.902C617.104 579.388 619.403 580.216 623.618 580.631V582.288H607.526V580.631C610.591 580.216 612.89 579.388 613.273 576.902C613.273 576.074 613.656 574.831 613.656 573.588V543.348C611.74 540.863 609.825 538.792 605.993 538.792V537.135H617.871C627.833 548.734 637.794 560.747 647.756 572.346V545.834C647.756 544.591 647.373 543.348 647.373 542.52C646.99 540.035 644.691 539.206 640.476 538.792V537.135H656.952V538.792C653.887 539.206 651.588 540.035 651.205 542.52C651.205 543.348 650.821 544.591 650.821 545.834V582.288H648.523Z" fill="#1D1D1B"/>
<path d="M682.623 574.417C682.623 580.216 682.24 580.216 688.37 580.631V582.288H670.745V580.631C676.492 579.802 676.492 580.216 676.492 574.417V545.42C676.492 539.62 676.875 539.62 670.745 539.206V537.135H688.37V538.792C682.623 539.62 682.623 539.206 682.623 545.005V574.417Z" fill="#1D1D1B"/>
<path d="M716.34 538.792C712.892 538.792 710.209 539.62 712.125 545.834C714.807 553.29 718.639 564.475 722.087 574.417C726.302 564.475 730.133 554.533 734.348 544.591C735.88 540.449 734.348 538.378 729.75 538.378V537.135H743.927V538.792C742.011 538.792 739.712 539.62 738.562 542.52C733.198 555.776 727.451 569.032 722.087 581.873H718.256C714.424 570.689 709.826 558.261 705.612 547.491C703.313 540.449 701.014 538.792 697.949 538.792V537.135H715.957L716.34 538.792Z" fill="#1D1D1B"/>
<path d="M753.888 580.631C759.635 579.802 759.635 580.216 759.635 574.417V545.42C759.635 539.62 760.019 539.62 753.888 539.206V537.135H783.391V547.491H781.858C781.092 542.52 779.942 539.206 774.961 539.206H766.149V557.847H771.513C775.728 557.847 777.26 556.19 777.643 552.048H779.176V565.718H777.643C777.643 561.99 776.111 559.504 771.513 559.504H766.149V574.417C766.149 579.802 768.831 580.216 774.578 580.216C784.157 580.216 783.774 577.731 786.839 570.689H788.372L786.456 582.288H753.888V580.631Z" fill="#1D1D1B"/>
<path d="M798.333 537.135H817.491C824.004 537.135 830.901 540.449 830.901 547.905C830.901 554.533 826.686 559.09 821.706 561.161L828.219 570.689C831.667 575.245 835.116 579.802 837.415 581.045V581.873H830.518C826.686 581.873 824.388 574.831 816.725 561.99H810.594V574.417C810.594 580.216 810.211 580.216 816.341 580.631V582.288H798.717V580.631C804.464 579.802 804.464 580.216 804.464 574.417V545.42C804.464 539.62 804.847 539.62 798.717 539.206L798.333 537.135ZM810.594 560.333H815.958C821.706 560.333 824.388 556.19 824.388 548.734C824.388 541.691 820.556 539.206 815.575 539.206H810.594V560.333Z" fill="#1D1D1B"/>
<path d="M869.982 547.077C869.599 542.52 866.917 538.792 861.553 538.792C857.721 538.792 854.273 540.863 854.273 545.42C854.273 549.977 858.871 552.462 865.384 557.433C872.281 562.404 874.58 565.718 874.58 571.103C874.58 578.56 866.534 583.116 858.488 583.116C854.273 583.116 850.825 582.288 847.376 581.045C846.993 581.045 846.993 580.631 846.993 580.217V571.103H848.526C849.292 578.145 853.89 581.045 859.254 581.045C863.852 581.045 867.683 577.731 867.683 572.76C867.683 568.618 865.384 565.304 855.422 558.676C851.974 556.19 847.376 553.705 847.376 546.663C847.376 540.863 853.89 536.307 861.553 536.307C864.235 536.307 868.066 536.721 870.748 537.549C871.132 537.549 871.132 537.964 871.132 538.378V546.663H869.982V547.077Z" fill="#1D1D1B"/>
<path d="M898.718 574.417C898.718 580.216 898.335 580.216 904.466 580.631V582.288H886.841V580.631C892.588 579.802 892.588 580.216 892.588 574.417V545.42C892.588 539.62 892.971 539.62 886.841 539.206V537.135H904.466V538.792C898.718 539.62 898.718 539.206 898.718 545.005V574.417Z" fill="#1D1D1B"/>
<path d="M937.033 574.417C937.033 580.216 936.65 580.216 942.78 580.63V582.287H925.156V580.63C930.903 579.802 930.903 580.216 930.903 574.417V539.62H925.156C919.408 539.62 918.259 543.348 915.96 547.491H913.661L915.577 537.549H951.976L953.892 547.491H951.976C949.677 543.348 948.528 539.62 942.78 539.62H937.033V574.417Z" fill="#1D1D1B"/>
<path d="M973.049 580.631C978.796 579.802 978.796 580.216 978.796 574.417V564.475L968.834 545.005C966.535 540.863 965.003 539.206 961.938 539.206V537.135H978.796V538.792C973.815 538.792 974.198 541.277 975.731 544.591L983.777 560.747L992.972 544.591C995.271 540.863 992.972 538.792 989.141 538.792V537.135H1002.55V538.792C1000.64 538.792 999.103 539.62 997.187 542.52L986.076 561.99C985.31 563.232 985.31 564.889 985.31 566.546V574.417C985.31 580.216 984.926 580.216 991.057 580.631V582.288H973.432V580.631H973.049Z" fill="#1D1D1B"/>
<path d="M1032.05 566.96C1032.05 556.19 1041.63 539.62 1055.81 539.62C1067.3 539.62 1069.6 547.077 1069.6 554.533C1069.6 563.646 1061.94 583.116 1045.85 583.116C1035.12 583.53 1032.05 574.831 1032.05 566.96ZM1061.94 550.805C1061.94 542.106 1056.58 541.691 1055.04 541.691C1045.85 541.691 1039.72 557.847 1039.72 568.617C1039.72 572.76 1040.48 580.63 1047 580.63C1056.96 581.045 1061.94 565.303 1061.94 550.805Z" fill="#1D1D1B"/>
<path d="M1112.9 542.52L1110.98 544.177H1099.87C1095.66 564.061 1088.76 590.573 1084.16 603H1080.33L1092.59 544.177H1084.55L1085.31 540.863H1093.36C1097.96 523.051 1112.9 521.394 1116.35 521.394C1118.26 521.394 1122.48 521.808 1123.63 523.051L1122.48 528.436L1120.18 529.264C1119.03 527.193 1116.35 524.293 1112.51 524.293C1107.53 524.293 1103.7 527.607 1101.4 536.721L1100.64 540.863H1113.28L1112.9 542.52Z" fill="#1D1D1B"/>
<path d="M1165.01 571.931C1165.01 579.802 1164.62 579.388 1172.29 580.216V582.288H1149.3V580.216C1156.96 579.388 1156.58 579.802 1156.58 571.931V534.235C1156.58 526.364 1156.96 526.779 1149.3 525.95V523.879H1171.52C1185.7 523.879 1192.59 529.264 1192.59 539.206C1192.59 551.219 1181.48 557.847 1168.45 557.019V555.362C1179.18 555.362 1184.16 549.148 1184.16 540.034C1184.16 530.507 1179.57 526.364 1169.99 526.364H1164.62V571.931H1165.01Z" fill="#1D1D1B"/>
<path d="M1204.47 580.631C1210.22 579.802 1210.22 580.216 1210.22 574.417V545.42C1210.22 539.62 1210.6 539.62 1204.47 539.206V537.135H1233.97V547.491H1232.44C1231.67 542.52 1230.52 539.206 1225.54 539.206H1216.73V557.847H1222.1C1226.31 557.847 1227.84 556.19 1228.23 552.048H1229.76V565.718H1228.23C1228.23 561.99 1226.69 559.504 1222.1 559.504H1216.73V574.417C1216.73 579.802 1219.41 580.216 1225.16 580.216C1234.74 580.216 1234.36 577.731 1237.42 570.689H1238.95L1237.04 582.288H1204.47V580.631Z" fill="#1D1D1B"/>
<path d="M1291.06 582.288C1280.72 570.274 1269.61 557.433 1258.88 545.005V573.588C1258.88 574.831 1259.26 576.074 1259.26 576.902C1259.64 579.388 1261.94 580.216 1266.16 580.631V582.288H1250.07V580.631C1253.13 580.216 1255.43 579.388 1255.81 576.902C1255.81 576.074 1256.2 574.831 1256.2 573.588V543.348C1254.28 540.863 1252.36 538.792 1248.53 538.792V537.135H1260.41C1270.37 548.734 1280.33 560.747 1290.3 572.346V545.834C1290.3 544.591 1289.91 543.348 1289.91 542.52C1289.53 540.035 1287.23 539.206 1283.02 538.792V537.135H1299.11V538.792C1296.04 539.206 1293.74 540.035 1293.36 542.52C1293.36 543.348 1292.98 544.591 1292.98 545.834V582.288H1291.06Z" fill="#1D1D1B"/>
<path d="M1350.07 582.288C1339.72 570.274 1328.61 557.433 1317.88 545.005V573.588C1317.88 574.831 1318.27 576.074 1318.27 576.902C1318.65 579.388 1320.95 580.216 1325.16 580.631V582.288H1309.07V580.631C1312.14 580.216 1314.43 579.388 1314.82 576.902C1314.82 576.074 1315.2 574.831 1315.2 573.588V543.348C1313.28 540.863 1311.37 538.792 1307.54 538.792V537.135H1319.41C1329.38 548.734 1339.34 560.747 1349.3 572.346V545.834C1349.3 544.591 1348.92 543.348 1348.92 542.52C1348.53 540.035 1346.24 539.206 1342.02 538.792V537.135H1358.11V538.792C1355.05 539.206 1352.75 540.035 1352.37 542.52C1352.37 543.348 1351.98 544.591 1351.98 545.834V582.288H1350.07Z" fill="#1D1D1B"/>
<path d="M1392.98 547.077C1392.6 542.52 1389.91 538.792 1384.55 538.792C1380.72 538.792 1377.27 540.863 1377.27 545.42C1377.27 549.977 1381.87 552.462 1388.38 557.433C1395.28 562.404 1397.58 565.718 1397.58 571.103C1397.58 578.56 1389.53 583.116 1381.48 583.116C1377.27 583.116 1373.82 582.288 1370.37 581.045C1369.99 581.045 1369.99 580.631 1369.99 580.217V571.103H1371.52C1372.29 578.145 1376.89 581.045 1382.25 581.045C1386.85 581.045 1390.68 577.731 1390.68 572.76C1390.68 568.618 1388.38 565.304 1378.42 558.676C1374.97 556.19 1370.37 553.705 1370.37 546.663C1370.37 540.863 1376.89 536.307 1384.55 536.307C1387.23 536.307 1391.06 536.721 1393.75 537.549C1394.13 537.549 1394.13 537.964 1394.13 538.378V546.663H1392.98V547.077Z" fill="#1D1D1B"/>
<path d="M1419.42 580.631C1425.16 579.802 1425.16 580.216 1425.16 574.417V564.475L1415.2 545.005C1412.9 540.863 1411.37 539.206 1408.31 539.206V537.135H1425.16V538.792C1420.18 538.792 1420.57 541.277 1422.1 544.591L1430.14 560.747L1439.34 544.591C1441.64 540.863 1439.34 538.792 1435.51 538.792V537.135H1448.92V538.792C1447 538.792 1445.47 539.62 1443.55 542.52L1432.44 561.99C1431.68 563.232 1431.68 564.889 1431.68 566.546V574.417C1431.68 580.216 1431.29 580.216 1437.42 580.631V582.288H1419.42V580.631Z" fill="#1D1D1B"/>
<path d="M1459.65 580.631C1465.39 579.802 1465.39 580.216 1465.39 574.417V545.42C1465.39 539.62 1465.78 539.62 1459.65 539.206V537.135H1477.27V538.792C1471.52 539.62 1471.52 539.206 1471.52 545.005V574.831C1471.52 579.388 1474.21 579.802 1479.95 579.802C1489.53 579.802 1489.15 577.317 1492.21 570.274H1493.75L1491.83 581.873H1459.65V580.631Z" fill="#1D1D1B"/>
<path d="M1516.74 538.792C1513.29 538.792 1510.61 539.62 1512.52 545.834C1515.2 553.29 1519.04 564.475 1522.48 574.417C1526.7 564.475 1530.53 554.533 1534.74 544.591C1536.28 540.449 1534.74 538.378 1530.15 538.378V537.135H1544.32V538.792C1542.41 538.792 1540.11 539.62 1538.96 542.52C1533.59 555.776 1527.85 569.032 1522.48 581.873H1519.04C1515.2 570.689 1510.61 558.261 1506.39 547.491C1504.09 540.449 1501.79 538.792 1498.73 538.792V537.135H1516.74V538.792Z" fill="#1D1D1B"/>
<path d="M1555.43 567.375L1552.37 576.074C1551.6 578.56 1552.75 580.631 1555.82 580.631V582.288H1543.94V580.631C1545.86 580.631 1547.77 579.388 1548.54 577.317C1551.22 571.518 1558.88 550.391 1564.63 536.307H1568.46C1573.06 549.148 1579.57 569.032 1581.87 574.832C1583.4 578.56 1584.55 580.631 1587.24 580.631V582.288H1571.91V580.631C1576.12 580.631 1576.51 578.56 1575.36 575.66L1572.68 567.375H1555.43ZM1571.53 564.89L1564.63 543.763L1556.97 564.89H1571.53Z" fill="#1D1D1B"/>
<path d="M1637.81 582.288C1627.47 570.274 1616.35 557.433 1605.63 545.005V573.588C1605.63 574.831 1606.01 576.074 1606.01 576.902C1606.39 579.388 1608.69 580.216 1612.91 580.631V582.288H1596.81V580.631C1599.88 580.216 1602.18 579.388 1602.56 576.902C1602.56 576.074 1602.94 574.831 1602.94 573.588V543.348C1601.03 540.863 1599.11 538.792 1595.28 538.792V537.135H1607.16C1617.12 548.734 1627.08 560.747 1637.04 572.346V545.834C1637.04 544.591 1636.66 543.348 1636.66 542.52C1636.28 540.035 1633.98 539.206 1629.77 538.792V537.135H1645.86V538.792C1642.79 539.206 1640.49 540.035 1640.11 542.52C1640.11 543.348 1639.73 544.591 1639.73 545.834V582.288H1637.81Z" fill="#1D1D1B"/>
<path d="M1668.85 574.417C1668.85 580.216 1668.46 580.216 1674.59 580.631V582.288H1656.97V580.631C1662.72 579.802 1662.72 580.216 1662.72 574.417V545.42C1662.72 539.62 1663.1 539.62 1656.97 539.206V537.135H1674.59V538.792C1668.85 539.62 1668.85 539.206 1668.85 545.005V574.417Z" fill="#1D1D1B"/>
<path d="M1696.43 567.375L1693.37 576.074C1692.6 578.56 1693.75 580.631 1696.82 580.631V582.288H1684.94V580.631C1686.85 580.631 1688.77 579.388 1689.54 577.317C1692.22 571.518 1700.26 550.391 1705.63 536.307H1709.46C1714.06 549.148 1720.57 569.032 1722.87 574.832C1724.4 578.56 1725.55 580.631 1728.23 580.631V582.288H1712.91V580.631C1717.12 580.631 1717.51 578.56 1716.36 575.66L1713.67 567.375H1696.43ZM1712.14 564.89L1705.25 543.763L1697.58 564.89H1712.14Z" fill="#1D1D1B"/>
<path d="M1.00213 4H490.665C490.665 4 490.665 265.389 490.665 269.946C487.217 486.597 263.842 600.515 235.489 599.686C206.37 598.443 0.235835 487.011 1.00213 269.118C1.00213 264.975 1.00213 4 1.00213 4Z" fill="white" stroke="white" stroke-width="1.4337"/>
<path d="M12.8797 18.084H479.171C479.171 18.084 479.171 267.046 479.171 271.188C476.106 477.483 263.075 586.016 236.255 585.187C208.285 583.944 12.1134 477.897 12.8797 270.36C12.8797 266.632 12.8797 18.084 12.8797 18.084Z" fill="white"/>
<path d="M12.8799 172.184C13.6462 173.013 12.8799 18.499 12.8799 18.499H478.788C478.788 18.499 478.788 101.348 478.788 172.184H12.8799Z" fill="#961B1F"/>
<path d="M38.9336 397.534C56.9416 438.544 79.1641 471.27 110.199 499.439L245.834 350.31L376.487 495.71C403.307 468.784 429.745 436.473 448.519 398.363L245.834 186.269L40.083 397.534H38.9336Z" fill="#243069"/>
<path d="M12.8799 173.013H478.788" stroke="#243069" stroke-width="0.7226"/>
<path d="M361.928 56.6093H374.571C383.767 54.1238 387.215 48.3244 396.794 48.3244C403.691 48.3244 406.756 53.2954 411.737 53.2954C415.951 53.2954 422.465 47.9102 429.745 47.9102C437.025 47.9102 440.856 52.8811 445.454 54.9523C449.669 57.0236 455.416 57.0236 461.163 57.0236C461.163 61.5803 461.163 64.48 461.163 68.2082C461.163 72.3507 466.144 70.6937 466.144 76.9074C466.144 83.5353 460.013 82.2926 460.013 85.1923L459.63 110.461C460.014 113.775 465.761 114.19 465.761 118.746C465.761 125.788 459.247 123.303 459.63 129.102C460.014 133.245 459.63 141.944 459.63 141.944C446.986 141.944 366.525 142.773 362.694 142.773C363.077 133.659 364.226 134.073 364.61 129.517C364.993 125.788 357.33 123.717 357.33 117.503C357.33 113.361 361.928 113.361 362.311 109.633V84.7781C361.928 81.4641 355.414 79.8071 355.414 75.2504C355.797 69.451 361.544 70.2794 361.544 66.5512C361.928 64.0658 362.311 57.8521 361.928 56.6093Z" fill="white" stroke="#243069" stroke-width="0.7233"/>
<path d="M372.272 57.0236C372.272 57.0236 372.272 112.947 372.272 126.203C372.272 126.203 447.369 126.203 450.818 126.203C450.818 111.29 450.818 56.6094 450.818 56.6094" stroke="#243069" stroke-width="0.7226"/>
<path d="M411.737 53.2949V126.202" stroke="#243069" stroke-width="0.7226"/>
<path d="M412.886 117.503C416.335 117.503 422.082 119.989 428.212 122.06C435.875 124.546 443.921 122.889 450.052 124.131C451.967 124.546 412.886 124.96 412.886 124.96C412.886 116.675 412.886 117.503 412.886 117.503Z" fill="#243069" stroke="#243069" stroke-width="0.7226"/>
<path d="M411.712 133.777C414.675 133.777 417.076 131.18 417.076 127.977C417.076 124.774 414.675 122.178 411.712 122.178C408.75 122.178 406.348 124.774 406.348 127.977C406.348 131.18 408.75 133.777 411.712 133.777Z" fill="#243069" stroke="#243069" stroke-width="0.7226"/>
<path d="M409.438 117.503C405.99 117.503 400.243 119.989 394.112 122.06C386.449 124.546 378.403 122.889 372.273 124.131C370.357 124.546 409.438 124.96 409.438 124.96C409.438 116.675 409.438 117.503 409.438 117.503Z" fill="#243069" stroke="#243069" stroke-width="0.7226"/>
<path d="M151.196 148.986C152.346 154.371 156.177 157.685 162.307 157.685C173.419 157.685 184.53 148.572 191.044 143.601C196.024 139.458 201.389 135.316 201.389 126.617L200.622 129.931C200.622 129.931 209.435 120.403 231.274 127.859C237.404 129.931 263.075 145.672 268.823 148.157C273.804 150.229 290.662 163.485 316.716 158.514C316.716 158.514 356.947 152.714 347.751 107.561C341.238 75.2502 343.153 73.1789 345.835 62.8228C345.069 62.4085 321.314 56.6091 321.697 92.2342C311.352 93.477 298.325 101.762 306.754 123.717C310.203 117.918 314.8 112.118 321.314 112.118C325.145 112.118 329.743 118.332 329.743 122.888C330.509 134.073 320.164 139.044 307.137 136.559C300.624 135.316 294.494 127.445 285.681 120.403C287.214 119.575 288.746 113.775 288.746 111.29C288.746 105.49 284.149 103.005 281.083 100.933C281.85 98.8622 282.999 96.3767 282.999 94.3055C282.999 89.7488 277.252 90.163 274.953 88.506C275.719 87.2633 275.719 88.0918 275.719 86.0206C275.719 79.3926 276.486 75.6644 264.225 76.0787C265.374 69.4507 263.842 65.3083 259.627 63.6513L250.815 63.237C245.067 61.9943 250.815 59.9231 245.451 54.5379C240.853 49.5669 233.19 54.5379 233.19 54.5379C233.19 49.9811 230.125 46.2529 225.144 46.2529C222.462 46.2529 219.013 46.6672 217.098 47.4957L213.266 50.8096C208.668 50.8096 207.519 46.2529 201.772 46.2529C196.408 46.2529 194.109 50.8096 192.193 53.7094C188.362 51.6381 187.978 48.3242 182.997 48.3242C179.932 48.3242 179.166 51.6381 178.017 53.2951C174.951 57.0233 174.951 61.1658 169.97 63.237L168.055 59.5088C168.055 59.0946 168.055 59.0946 168.055 58.6803C160.775 62.4085 143.916 103.833 143.916 112.532C143.916 120.817 150.43 117.089 150.43 125.788C150.43 130.759 143.533 134.487 143.533 139.044C143.533 144.429 149.28 147.329 154.644 147.329L151.196 148.986Z" fill="white" stroke="#243069" stroke-width="0.7226"/>
<path d="M168.821 114.189C168.821 114.189 176.867 117.503 176.867 119.575C176.867 122.06 171.503 124.96 168.055 128.274H163.457C164.99 122.474 163.457 124.546 163.457 119.575C163.84 115.846 167.289 114.189 168.821 114.189Z" fill="#243069" stroke="#243069" stroke-width="0.7226"/>
<path d="M198.707 98.8628C202.921 96.7916 201.005 90.9922 207.902 90.9922C214.032 90.9922 216.331 95.5489 221.695 95.5489C225.527 95.5489 227.826 91.4064 233.19 91.4064C237.788 91.4064 243.535 98.0344 242.769 105.905C242.769 105.905 258.478 100.106 257.711 118.747C270.355 114.19 269.206 125.375 270.355 130.76C271.505 136.145 279.934 131.588 278.401 142.773" stroke="#243069" stroke-width="0.7226"/>
<path d="M30.5046 57.0234H43.1485C52.344 54.5379 55.7923 48.7385 65.371 48.7385C72.2677 48.7385 75.3329 53.7094 80.3138 53.7094C84.5285 53.7094 91.042 48.3242 98.3218 48.3242C105.602 48.3242 109.433 53.2952 114.031 55.3664C118.245 57.4376 123.993 57.4376 129.74 57.4376C129.74 61.9943 129.74 64.8941 129.74 68.6223C129.74 72.7647 134.721 71.1078 134.721 77.3215C134.721 83.9494 128.59 82.7067 128.59 85.6064L128.207 110.875C128.59 114.189 134.338 114.604 134.338 119.16C134.338 126.202 127.824 123.717 128.207 129.516C128.59 133.659 128.207 142.358 128.207 142.358C115.563 142.358 36.6349 142.358 32.8035 142.358C33.1866 133.245 32.8035 134.487 32.8035 129.931C33.1866 126.202 25.5237 124.131 25.5237 117.918C25.5237 113.775 30.1214 113.775 30.5046 110.047V85.1921C30.1214 81.8782 23.6079 80.2212 23.6079 75.6645C23.9911 69.865 29.7383 70.6935 29.7383 66.9653C30.5046 64.4798 30.5046 58.6804 30.5046 57.0234Z" fill="white" stroke="#243069" stroke-width="0.7233"/>
<path d="M40.8496 57.4377C40.8496 57.4377 40.8496 113.361 40.8496 126.617C40.8496 126.617 115.947 126.617 119.395 126.617C119.395 111.704 119.395 57.0234 119.395 57.0234" stroke="#243069" stroke-width="0.7226"/>
<path d="M79.9307 53.71V126.617" stroke="#243069" stroke-width="0.7226"/>
<path d="M81.4634 117.918C84.9117 117.918 90.6589 120.403 96.7893 122.474C104.452 124.96 112.498 123.303 118.629 124.545C120.544 124.96 81.4634 125.374 81.4634 125.374C81.4634 117.089 81.4634 117.918 81.4634 117.918Z" fill="#243069" stroke="#243069" stroke-width="0.7226"/>
<path d="M80.0301 134.302C82.9926 134.302 85.3942 131.706 85.3942 128.503C85.3942 125.3 82.9926 122.703 80.0301 122.703C77.0676 122.703 74.666 125.3 74.666 128.503C74.666 131.706 77.0676 134.302 80.0301 134.302Z" fill="#243069" stroke="#243069" stroke-width="0.7226"/>
<path d="M78.0148 117.918C74.5665 117.918 68.8193 120.403 62.6889 122.474C55.0259 124.96 46.9798 123.303 40.8494 124.545C38.9337 124.96 78.0148 125.374 78.0148 125.374C77.6317 117.089 78.0148 117.918 78.0148 117.918Z" fill="#243069" stroke="#243069" stroke-width="0.7226"/>
<path d="M133.651 423.101C156.081 423.101 174.265 403.998 174.265 380.434C174.265 356.869 156.081 337.767 133.651 337.767C111.22 337.767 93.0371 356.869 93.0371 380.434C93.0371 403.998 111.22 423.101 133.651 423.101Z" fill="white" stroke="#243069" stroke-width="0.7233"/>
<path d="M245.46 320.716C267.891 320.716 286.074 301.613 286.074 278.048C286.074 254.484 267.891 235.381 245.46 235.381C223.03 235.381 204.847 254.484 204.847 278.048C204.847 301.613 223.03 320.716 245.46 320.716Z" fill="white" stroke="#243069" stroke-width="0.7229"/>
<path d="M350.831 423.101C373.262 423.101 391.445 403.998 391.445 380.434C391.445 356.869 373.262 337.767 350.831 337.767C328.401 337.767 310.218 356.869 310.218 380.434C310.218 403.998 328.401 423.101 350.831 423.101Z" fill="white" stroke="#243069" stroke-width="0.7233"/>
<path d="M286.447 119.575C276.102 107.147 266.907 92.6488 265.374 91.8203C260.393 89.3348 248.133 63.2373 215.182 61.1661C206.753 60.7518 175.335 64.0658 174.185 72.765" stroke="#243069" stroke-width="0.7226"/>
<path d="M201.772 129.103C201.772 128.274 201.772 127.446 201.772 126.203C201.772 124.96 194.109 125.789 192.193 124.96C191.044 124.546 195.642 122.475 194.875 122.475C199.473 120.403 211.734 114.604 207.519 110.461C203.305 106.319 201.006 101.762 198.707 98.8625C195.642 95.1343 192.193 93.0631 186.446 93.0631C181.465 93.0631 173.802 102.177 170.737 104.662C173.036 102.177 179.933 95.9628 179.933 90.5776C179.933 78.5645 171.12 68.2083 168.821 58.6807" stroke="#243069" stroke-width="0.7226"/>
<path d="M154.645 147.329C163.457 147.329 168.055 146.501 172.269 144.43C176.867 141.944 184.913 136.559 186.829 131.588" stroke="#243069" stroke-width="0.7226"/>
<path d="M12.8797 18.084H479.171C479.171 18.084 479.171 267.046 479.171 271.188C476.106 477.483 263.075 586.016 236.255 585.187C208.285 584.359 12.1134 477.897 12.8797 270.36C12.8797 266.632 12.8797 18.084 12.8797 18.084Z" stroke="#243069" stroke-width="1.4337"/>
</svg>
