<svg width="1541" height="498" viewBox="0 0 1541 498" fill="none" xmlns="http://www.w3.org/2000/svg">
<g clip-path="url(#clip0_132_64)">
<rect x="-2.31836" width="1539.84" height="495.468" fill="white"/>
<path fill-rule="evenodd" clip-rule="evenodd" d="M272.742 238.344C279.312 320.535 223.952 392.808 148.593 400.088C73.3301 407.368 7.05263 346.912 0.38623 264.721V0.422034L45.2153 0V140.854C70.2385 116.165 102.991 102.132 136.902 102.554C207.528 102.554 266.462 161.322 272.742 238.344ZM139.318 351.976C190.427 350.71 230.522 304.286 228.976 248.578C227.044 193.714 185.306 150.244 134.97 150.666C88.9817 151.932 50.3359 190.232 45.2153 240.454C44.4424 247.839 44.4424 255.225 45.2153 262.611C50.3359 313.677 89.7546 351.976 136.902 351.976C137.675 351.976 138.48 351.976 139.318 351.976ZM1408.73 202.998L1458.68 363.055L1509.02 202.998H1537.52L1434.14 495.468H1407.58L1447.77 392.808L1379.85 202.998H1408.73ZM1224.59 300.488C1224.59 244.358 1239.47 198.778 1299.95 198.778C1360.04 198.778 1367.77 244.358 1367.77 300.488V312.833H1249.61C1251.16 346.912 1259.37 377.509 1299.95 377.509C1319.85 378.775 1340.14 374.977 1358.79 366.853V390.276C1340.14 398.4 1319.85 402.62 1299.95 401.776C1239.08 401.776 1224.2 356.724 1224.2 300.488H1224.59ZM1300.33 223.045C1258.6 223.467 1251.16 255.436 1250 290.676H1342.84C1342.84 256.28 1341.3 223.467 1300.33 223.045ZM1194.54 401.776C1168.84 401.776 1155.22 390.276 1155.22 358.834V105.614H1179.76V362.211C1179.76 375.821 1183.62 379.619 1194.54 379.619V401.776ZM1047.49 283.079L1134.16 397.978H1102.95L1032.71 298.8L1010.01 322.223V397.978H985.467V105.614H1010.01V290.359L1090.78 203.104H1124.4L1047.49 283.079ZM957.352 226.421C950.299 224.311 943.246 223.045 935.904 223.467C917.933 222.201 899.963 226.421 884.022 235.811V397.978H858.999V202.998H873.104L878.515 219.141C895.326 205.953 915.228 198.778 935.904 199.2C943.182 199.2 950.331 199.763 957.352 200.888V226.421ZM755.621 199.2C815.715 199.2 823.541 244.252 823.541 300.488V313.255H705.285C706.831 346.912 715.043 377.931 755.621 377.931C775.524 379.197 795.813 375.399 814.556 366.853V390.276C795.813 398.822 775.524 402.62 755.621 402.198C694.754 402.198 679.972 356.619 679.972 300.488C680.359 244.252 695.141 199.2 755.621 199.2ZM705.285 290.676H798.132C798.132 256.175 796.586 223.467 755.235 223.467C713.884 223.467 706.444 255.753 705.285 290.676ZM474.763 105.508H559.397C622.197 105.508 642.872 140.01 642.872 182.635C643.645 209.012 629.636 232.857 607.801 243.408C638.621 252.376 651.857 284.345 651.857 315.787C651.857 361.366 628.863 397.978 562.102 397.978H474.763V105.508ZM498.917 373.183H565.291C616.013 373.183 625.771 343.852 625.771 315.681C625.771 276.538 610.12 258.285 566.45 258.285H498.917V373.183ZM562.875 130.197H498.917V233.596H566.064C606.255 233.596 616.4 207.219 616.4 182.53C616.4 156.997 608.188 130.197 562.875 130.197Z" fill="#0C5740"/>
<path fill-rule="evenodd" clip-rule="evenodd" d="M1436.08 497.578H1404.48L1445.83 392.808L1377.14 200.466H1409.89L1458.68 355.88L1507.47 200.466H1540.23L1539.45 203.843L1436.08 497.578ZM1410.67 493.358H1433.37L1534.72 205.214H1510.57L1459.07 369.913L1407.58 205.214H1383.42L1450.47 393.336V394.18L1410.67 493.358ZM1299.85 403.992C1230.48 403.992 1222.66 344.802 1222.66 300.172C1222.66 255.858 1230.48 196.352 1299.85 196.352C1364.29 196.352 1369.7 247.84 1369.7 300.172V315.049H1251.93C1254.63 367.803 1277.63 375.083 1299.85 375.083C1319.75 376.349 1339.66 372.551 1358.01 364.427L1360.72 363.16V391.226L1359.56 392.07C1340.43 400.616 1320.14 404.414 1299.85 403.992ZM1299.85 200.994C1249.22 200.994 1226.52 231.591 1226.52 300.172C1226.52 368.647 1249.22 399.35 1299.85 399.35C1318.98 400.194 1338.5 396.29 1356.47 388.271V369.913C1338.5 377.615 1318.98 380.569 1299.85 379.725C1255.79 379.725 1248.74 343.958 1247.58 312.938V310.406H1365.84V300.172C1365.45 247.84 1360.33 200.994 1299.85 200.994ZM1196.47 403.992H1194.54C1166.43 403.992 1153.19 389.538 1153.19 358.413V103.082H1181.69V361.894C1181.69 373.817 1184.4 377.193 1194.54 377.193H1196.47V403.992ZM1157.54 107.724V358.835C1157.54 386.583 1168.07 398.928 1192.61 399.35V381.413C1181.69 380.991 1177.44 375.505 1177.44 361.894V107.302L1157.54 107.724ZM755.235 403.992C686.252 403.992 678.04 344.802 678.04 300.172C678.04 255.858 686.252 196.668 755.235 196.668C820.063 196.668 825.087 247.734 825.087 300.172V315.049H707.314C710.406 368.225 733.014 375.505 755.235 375.505C775.138 376.349 795.04 372.867 813.397 364.427L816.488 363.16V391.648L814.943 392.07C796.199 400.616 775.91 404.414 755.235 403.992ZM755.235 200.994C704.899 200.994 682.291 231.591 682.291 300.172C682.291 368.647 704.899 399.35 755.235 399.35C774.751 400.194 794.267 396.29 812.237 388.693V369.913C794.267 377.615 774.751 380.991 755.235 379.725C711.565 379.725 704.512 343.958 703.353 312.938V310.723H821.223V300.172C821.223 247.734 816.102 200.994 755.235 200.994ZM1138.02 400.194H1101.31L1031.46 301.86L1011.17 323.067V400.194H983.148V103.082H1011.17V284.768L1089.23 200.572H1129.04L1049.81 283.079L1138.02 400.194ZM1103.72 395.974H1129.04L1044.4 283.185L1118.89 205.32H1091.26L1007.3 295.952V107.83H987.013V395.552H1007.3V321.485L1032.33 295.952L1103.72 395.974ZM886.051 400.194H857.163V200.572H874.65L879.384 215.976C896.195 203.21 915.615 196.774 935.904 196.774C943.247 196.774 950.557 197.477 957.835 198.884H959.381V229.165L956.966 228.321C949.945 225.999 942.925 224.979 935.904 225.261C918.803 223.995 901.606 228.321 886.051 236.761V400.194ZM861.028 395.552H882.09V234.229L883.249 233.807C899.287 223.995 917.644 219.774 935.904 221.041C942.409 220.759 948.786 221.463 955.034 223.151V202.788C948.786 201.592 942.409 200.994 935.904 200.994C915.615 200.994 895.809 207.852 879.384 221.041L877.452 222.729L871.559 204.898H861.028V395.552ZM561.813 400.194H472.445V103.082H559.108C629.733 103.082 644.515 146.129 644.515 182.741C645.288 207.43 633.211 230.853 612.922 243.197C643.355 254.592 653.5 287.405 653.5 315.471C653.5 354.192 637.462 400.194 561.813 400.194ZM476.406 395.552H561.813C634.37 395.552 649.635 352.082 649.635 315.471C649.635 287.827 638.235 254.592 607.028 245.729L601.232 244.041L606.642 241.404C627.704 231.275 641.423 207.852 640.65 182.741C640.65 133.363 612.535 107.408 559.108 107.408H476.406V395.552ZM564.905 375.505H497.081V255.542H565.677C609.444 255.542 627.317 272.951 627.317 315.471C626.931 355.986 606.642 375.505 564.905 375.505ZM500.559 371.285H564.905C616.787 371.285 622.68 339.316 622.68 315.471C622.68 275.483 606.642 260.184 565.291 260.184H500.559V371.285ZM1344.78 292.997H1247.68V290.465C1248.45 256.386 1255.5 221.041 1299.56 221.041C1343.62 221.041 1344.78 259.762 1344.78 290.465V292.997ZM1251.54 288.671H1340.53C1340.53 252.904 1336.56 225.683 1299.56 225.683C1260.14 225.683 1252.7 255.542 1251.54 288.671ZM799.774 292.997H702.677V290.782C703.836 256.386 710.889 221.041 754.945 221.041C799.001 221.041 800.161 259.762 800.161 290.782L799.774 292.997ZM706.928 288.777H795.523C795.523 253.01 791.948 225.788 754.559 225.788C715.14 225.788 708.087 255.12 706.928 288.777ZM565.291 236.023H496.308V127.877H562.199C611.763 127.877 617.559 159.424 617.559 182.846C617.559 226.632 589.155 236.023 565.291 236.023ZM500.559 231.275H565.291C597.753 231.275 613.695 214.71 613.695 182.846C613.695 138.111 586.353 132.624 562.586 132.624H500.173L500.559 231.275ZM366.748 74.5947H371.386V427.837H366.748V74.5947ZM140.091 233.807L108.498 207.852H172.07L140.091 233.807Z" fill="#0C5740"/>
<path fill-rule="evenodd" clip-rule="evenodd" d="M194.291 207.746C194.291 208.168 192.745 211.966 191.2 217.031C190.105 230.958 189.847 244.744 190.427 258.39C190.427 266.831 188.398 275.377 184.92 283.079C179.896 292.786 170.138 298.378 159.607 297.534H146.66C143.955 298.378 141.636 300.066 140.477 302.598C138.931 300.066 136.516 298.378 133.811 297.534H120.961C110.816 298.378 101.058 292.364 95.9377 282.657C92.4596 274.955 90.5273 266.409 90.1409 257.968C90.6562 244.322 90.3985 230.677 89.368 217.031C88.5951 213.655 87.5323 210.56 86.1797 207.746C92.1698 208.027 97.9022 209.575 103.377 212.388C111.203 216.187 139.318 240.454 140.477 241.72C140.477 241.72 169.751 216.609 177.48 212.388C182.601 209.856 188.398 208.168 194.291 207.746ZM179.413 225.999C179.992 224.592 180.54 223.186 181.055 221.779C177.867 221.779 174.775 222.623 172.07 224.733C168.882 227.265 167.336 231.169 167.336 234.967V263.033C167.336 263.033 166.563 269.469 161.152 269.469C160.895 269.469 160.508 269.469 159.993 269.469C156.032 269.469 153.327 265.565 153.713 261.344C153.713 254.486 155.645 251.532 158.737 251.532C160.766 251.954 162.698 253.22 164.244 254.908C164.631 251.11 163.858 246.89 162.312 243.513C160.38 240.032 156.805 238.344 152.94 238.766C149.849 238.766 140.863 241.72 141.25 259.656C141.25 277.487 151.394 286.033 160.766 286.033C169.751 286.033 180.282 278.331 179.896 258.812C179.058 247.699 179.058 236.761 179.896 225.999H179.413ZM145.018 284.767C144.631 281.813 142.699 279.175 140.38 277.487C139.221 277.487 135.646 283.079 135.646 285.189C136.419 288.988 137.965 292.786 139.994 295.846C142.699 292.786 144.245 288.988 145.018 284.767ZM139.607 258.812C139.994 240.876 131.009 237.499 127.434 237.499C123.956 237.499 120.478 239.188 118.546 242.564C116.903 246.046 116.13 250.266 116.517 254.486C118.159 252.376 120.091 251.11 122.024 251.11C125.115 251.11 127.048 253.642 127.048 260.922C127.048 261.204 127.048 261.485 127.048 261.766C127.048 265.987 123.569 269.469 119.705 269.047C114.198 269.047 113.425 262.188 113.425 262.188V234.545C113.425 230.325 111.493 226.421 108.787 224.311C105.986 222.201 102.894 220.935 99.8023 220.935C100.318 222.341 100.704 223.889 100.962 225.577C101.735 236.339 101.735 247.277 100.962 258.39C100.575 277.487 111.106 285.611 120.091 285.611C129.463 285.611 139.607 276.643 139.607 258.812ZM120.091 263.455C121.251 263.455 122.41 262.188 122.41 260.5C122.41 259.234 121.251 257.968 120.091 257.968C118.546 257.968 117.29 259.234 117.773 260.5C117.773 262.188 118.546 263.455 120.091 263.455ZM162.215 259.656C162.215 258.39 160.669 257.124 159.51 257.546C157.868 257.968 157.095 259.234 157.481 260.922C157.223 261.204 157.223 261.485 157.481 261.766C157.481 263.033 159.124 264.299 160.283 263.877C161.829 263.877 162.602 262.188 162.215 260.922C162.473 260.36 162.473 259.938 162.215 259.656ZM120.478 285.611C120.478 285.611 120.349 285.611 120.091 285.611H120.478Z" fill="#0C5740"/>
</g>
<defs>
<clipPath id="clip0_132_64">
<rect width="1541" height="498" fill="white"/>
</clipPath>
</defs>
</svg>
